<svg width="68" height="69" viewBox="0 0 68 69" fill="none" xmlns="http://www.w3.org/2000/svg">
<path fill-rule="evenodd" clip-rule="evenodd" d="M34 69C52.7777 69 68 53.5538 68 34.5C68 15.4462 52.7777 0 34 0C15.2223 0 0 15.4462 0 34.5C0 53.5538 15.2223 69 34 69ZM22.9302 26.2762H17.593C17.1977 26.2762 16.8419 26.9983 17 27.4797C17.1318 27.8808 17.5535 28.964 18.186 30.0872C18.7132 31.157 20.0442 33.7779 21.1512 35.7035C22.2713 37.5087 24.9465 41.4401 26.686 42.7238C27.6085 43.3924 29.9674 44.7698 32.0233 44.9302C32.9457 45.064 35.0279 45.2913 35.9767 45.1308C36.3062 45.064 36.9651 44.6895 36.9651 43.7267C37.031 42.9913 37.2814 41.4 37.7558 40.9186C37.9535 40.718 38.4674 40.4372 38.9419 40.9186C39.3372 41.2529 40.2465 42.082 40.7209 42.7238C41.3798 43.5262 42.8558 45.1308 43.4884 45.1308C45.0698 45.2645 48.2326 45.3314 49.2209 45.3314C49.6163 45.2645 50.486 45.0105 50.8023 44.5291C50.9341 44.2616 51.1186 43.6064 50.8023 43.125C49.7481 41.7209 47.4419 38.7924 46.6512 38.311C46.3217 38.1105 45.6233 37.5488 45.4651 36.907C45.3992 36.7064 45.4651 36.0645 46.2558 35.1017C47.2442 33.7645 49.3395 30.8895 49.814 30.0872C50.2093 29.4186 51 27.9209 51 27.2791C51 27.0116 50.8814 26.4767 50.407 26.4767C49.6822 26.4099 48.114 26.2762 47.6395 26.2762C46.3217 26.2093 43.5674 26.1959 43.093 26.6773C43.0271 26.7442 42.7767 27.1186 42.3023 28.0814C42.0388 28.75 41.393 30.2878 40.9186 31.0901C40.5891 31.625 39.7721 32.8954 39.1395 33.6977C38.8101 34.1657 38.0326 35.0616 37.5581 34.9012C37.3605 34.7674 36.9651 34.2593 36.9651 33.2965V27.2791C36.9651 27.0116 36.886 26.3965 36.5698 26.0756C36.3721 25.875 35.8186 25.4738 35.186 25.4738H31.4302C30.969 25.4738 29.9279 25.514 29.4535 25.6744C29.2558 25.7413 28.7814 25.9552 28.4651 26.2762C28.2674 26.4767 28.0302 26.918 28.6628 27.0785C29.0581 27.1453 29.8884 27.4395 30.0465 28.0814C30.1124 28.4157 30.2442 29.5256 30.2442 31.2907C30.3101 32.1599 30.2837 34.0988 29.6512 34.9012C29.5853 35.0349 29.2953 35.182 28.6628 34.7006C28.4651 34.5 27.9116 33.8581 27.2791 32.8954C26.6202 31.8924 25.1837 29.5256 24.7093 28.0814C24.5116 27.4797 23.8791 26.2762 22.9302 26.2762Z" fill="white"/>
</svg>
