<svg width="68" height="69" viewBox="0 0 68 69" fill="none" xmlns="http://www.w3.org/2000/svg">
<path fill-rule="evenodd" clip-rule="evenodd" d="M34 69C52.7777 69 68 53.5538 68 34.5C68 15.4462 52.7777 0 34 0C15.2223 0 0 15.4462 0 34.5C0 53.5538 15.2223 69 34 69ZM47.6944 21.0833L17.4722 32.1042C16.5278 32.5833 16.3389 33.6375 17.4722 34.0208L25.5 36.4167L27.8611 43.6042C27.8611 44.0833 28.3333 45.0417 28.8056 45.5208C29.0544 45.7734 29.8444 45.9042 30.2222 45.5208L34.4722 41.6875L41.5556 46.4792C42.5 47.1181 43.9167 47.9167 44.8611 46.4792L50.0556 23.4792C50.213 22.8403 50.3389 21.4667 49.5833 21.0833C49.2685 20.9236 48.45 20.7 47.6944 21.0833Z" fill="white"/>
<path d="M29.2778 43.125L29.75 38.3333L43.9167 26.3542L44.3889 25.875C44.3889 25.3958 44.3889 25.3958 43.9167 25.3958L26.9167 35.4583C26.5389 35.8417 26.7593 36.5764 26.9167 36.8958L28.8056 42.6458C29.1833 43.7958 29.2778 43.4444 29.2778 43.125Z" fill="white"/>
</svg>
