<svg width="820" height="150" viewBox="0 0 761 128" fill="none" xmlns="http://www.w3.org/2000/svg" preserveAspectRatio="none"><mask id="a" maskUnits="userSpaceOnUse" x="-2" y="0" width="763" height="128" fill="#000"><path fill="#fff" d="M-2 0h763v128H-2z"/><path d="M95.917 93.66c0 6.702-1.733 12.344-5.198 16.924-3.466 4.468-8.161 7.875-14.086 10.221-5.813 2.346-12.185 3.519-19.116 3.519H0V5.351h63.721c5.59 0 10.397 1.508 14.421 4.525 4.136 2.904 7.267 6.702 9.39 11.394 2.236 4.58 3.354 9.384 3.354 14.411 0 5.697-1.453 11.115-4.36 16.254-2.906 5.139-7.154 8.937-12.744 11.395 6.82 2.01 12.186 5.641 16.098 10.892 4.025 5.25 6.037 11.73 6.037 19.438zm-23.309-4.357c0-3.016-.614-5.698-1.844-8.043-1.23-2.458-2.907-4.357-5.03-5.698-2.013-1.452-4.36-2.178-7.044-2.178H23.14v31.335h34.377c2.794 0 5.31-.67 7.545-2.011 2.348-1.452 4.193-3.351 5.534-5.697 1.342-2.346 2.012-4.915 2.012-7.708zM23.141 25.124V55.12h30.854c2.571 0 4.919-.614 7.043-1.843 2.124-1.23 3.8-2.96 5.03-5.195 1.342-2.234 2.013-4.915 2.013-8.043 0-3.016-.615-5.642-1.845-7.876-1.118-2.234-2.683-3.966-4.695-5.194-1.9-1.23-4.08-1.844-6.54-1.844h-31.86zm140.972 30.833c-6.819 0-12.912 1.34-18.278 4.021-5.366 2.57-9.223 6.312-11.57 11.227v53.119h-22.47V36.519h20.625v18.767c3.13-6.032 7.099-10.78 11.906-14.243 4.807-3.463 9.893-5.362 15.259-5.697h2.851c.671 0 1.23.056 1.677.168v20.443zm6.001 42.394c0-5.697 1.565-10.668 4.696-14.913 3.242-4.357 7.713-7.708 13.415-10.054 5.701-2.346 12.241-3.52 19.619-3.52a77.2 77.2 0 0111.235.839c3.801.558 7.099 1.452 9.893 2.68v-4.691c0-5.586-1.676-9.887-5.03-12.903-3.242-3.016-8.105-4.524-14.589-4.524-4.807 0-9.39.838-13.75 2.513-4.36 1.676-8.944 4.134-13.751 7.373l-7.21-14.746c5.813-3.798 11.738-6.646 17.775-8.546 6.148-1.899 12.576-2.848 19.284-2.848 12.52 0 22.246 3.128 29.177 9.384 7.043 6.255 10.565 15.192 10.565 26.81V99.19c0 2.346.391 4.022 1.173 5.027.895 1.006 2.292 1.62 4.193 1.843v18.265c-2.013.335-3.857.615-5.534.838-1.565.224-2.907.335-4.025.335-4.471 0-7.881-1.005-10.229-3.016-2.235-2.011-3.633-4.468-4.192-7.373l-.503-4.524c-3.801 4.915-8.552 8.713-14.253 11.394-5.702 2.681-11.515 4.022-17.44 4.022-5.813 0-11.067-1.173-15.762-3.519-4.584-2.458-8.217-5.753-10.9-9.886-2.571-4.245-3.857-8.993-3.857-14.244zm54.666 4.525c1.23-1.341 2.236-2.681 3.019-4.022.782-1.34 1.173-2.57 1.173-3.686v-8.882c-2.683-1.117-5.589-1.954-8.719-2.513-3.13-.67-6.093-1.005-8.888-1.005-5.813 0-10.62 1.284-14.421 3.854-3.689 2.457-5.533 5.753-5.533 9.886 0 2.234.614 4.357 1.844 6.368 1.23 2.01 3.019 3.63 5.366 4.859 2.348 1.229 5.143 1.843 8.384 1.843 3.354 0 6.652-.614 9.894-1.843 3.242-1.34 5.869-2.96 7.881-4.859zm47.66 21.448V36.519h22.47v87.805h-22.47zm0-100.037V2h22.47v22.287h-22.47zm124.404 100.037h-22.47V75.06c0-7.038-1.23-12.177-3.689-15.417-2.46-3.24-5.869-4.86-10.229-4.86-3.018 0-6.093.783-9.223 2.347-3.018 1.564-5.757 3.742-8.216 6.535-2.46 2.68-4.249 5.809-5.366 9.384v51.275h-22.47V36.519h20.29v16.254c2.235-3.798 5.086-6.982 8.552-9.551 3.465-2.681 7.434-4.692 11.905-6.033 4.584-1.452 9.391-2.178 14.422-2.178 5.477 0 9.949 1.005 13.414 3.016 3.578 1.9 6.261 4.524 8.049 7.876 1.901 3.24 3.186 6.926 3.857 11.06a67.372 67.372 0 011.174 12.567v54.794zM416.215 2h22.47v94.173c0 4.022.67 6.759 2.012 8.211 1.341 1.34 3.186 2.011 5.533 2.011 1.789 0 3.634-.224 5.534-.671 1.901-.447 3.577-1.005 5.031-1.675l3.018 17.092c-3.018 1.452-6.54 2.569-10.564 3.351-4.025.782-7.658 1.173-10.9 1.173-7.043 0-12.52-1.843-16.433-5.53-3.801-3.798-5.701-9.16-5.701-16.086V2zm93.968 124c-7.154 0-13.582-1.173-19.284-3.519-5.701-2.458-10.564-5.809-14.588-10.054-3.913-4.245-6.931-9.104-9.056-14.578-2.124-5.474-3.186-11.227-3.186-17.26 0-6.144 1.062-11.953 3.186-17.427 2.125-5.474 5.143-10.333 9.056-14.578 4.024-4.245 8.887-7.54 14.588-9.887 5.702-2.457 12.13-3.686 19.284-3.686 7.155 0 13.527 1.229 19.117 3.686 5.701 2.346 10.564 5.642 14.588 9.887a42.07 42.07 0 019.055 14.578c2.125 5.474 3.187 11.283 3.187 17.427 0 6.033-1.062 11.786-3.187 17.26a42.065 42.065 0 01-9.055 14.578c-3.912 4.245-8.719 7.596-14.421 10.054-5.701 2.346-12.129 3.519-19.284 3.519zM487.21 80.59c0 5.138 1.006 9.718 3.019 13.74 2.012 3.91 4.751 6.982 8.216 9.216 3.466 2.234 7.378 3.351 11.738 3.351 4.248 0 8.105-1.117 11.571-3.351 3.465-2.346 6.204-5.474 8.216-9.384 2.124-4.022 3.186-8.602 3.186-13.74 0-5.027-1.062-9.552-3.186-13.573-2.012-4.022-4.751-7.15-8.216-9.384-3.466-2.234-7.323-3.352-11.571-3.352-4.36 0-8.272 1.173-11.738 3.52-3.465 2.234-6.204 5.362-8.216 9.383-2.013 3.91-3.019 8.434-3.019 13.573zM611.876 126c-7.154 0-13.582-1.173-19.284-3.519-5.701-2.458-10.564-5.809-14.589-10.054-3.912-4.245-6.931-9.104-9.055-14.578-2.124-5.474-3.186-11.227-3.186-17.26 0-6.144 1.062-11.953 3.186-17.427 2.124-5.474 5.143-10.333 9.055-14.578 4.025-4.245 8.888-7.54 14.589-9.887 5.702-2.457 12.13-3.686 19.284-3.686 7.155 0 13.527 1.229 19.117 3.686 5.701 2.346 10.564 5.642 14.588 9.887a42.07 42.07 0 019.055 14.578c2.124 5.474 3.186 11.283 3.186 17.427 0 6.033-1.062 11.786-3.186 17.26a42.065 42.065 0 01-9.055 14.578c-3.912 4.245-8.719 7.596-14.421 10.054-5.701 2.346-12.129 3.519-19.284 3.519zm-22.973-45.41c0 5.138 1.006 9.718 3.019 13.74 2.012 3.91 4.751 6.982 8.216 9.216 3.466 2.234 7.378 3.351 11.738 3.351 4.248 0 8.105-1.117 11.571-3.351 3.465-2.346 6.204-5.474 8.216-9.384 2.124-4.022 3.186-8.602 3.186-13.74 0-5.027-1.062-9.552-3.186-13.573-2.012-4.022-4.751-7.15-8.216-9.384-3.466-2.234-7.323-3.352-11.571-3.352-4.36 0-8.272 1.173-11.738 3.52-3.465 2.234-6.204 5.362-8.216 9.383-2.013 3.91-3.019 8.434-3.019 13.573zm144.118 43.734l-25.656-37.87-11.906 11.73v26.14h-22.47V2h22.47v74.065l35.382-39.378h23.811l-32.699 37.2L757 124.323h-23.979z"/></mask><path d="M95.917 93.66c0 6.702-1.733 12.344-5.198 16.924-3.466 4.468-8.161 7.875-14.086 10.221-5.813 2.346-12.185 3.519-19.116 3.519H0V5.351h63.721c5.59 0 10.397 1.508 14.421 4.525 4.136 2.904 7.267 6.702 9.39 11.394 2.236 4.58 3.354 9.384 3.354 14.411 0 5.697-1.453 11.115-4.36 16.254-2.906 5.139-7.154 8.937-12.744 11.395 6.82 2.01 12.186 5.641 16.098 10.892 4.025 5.25 6.037 11.73 6.037 19.438zm-23.309-4.357c0-3.016-.614-5.698-1.844-8.043-1.23-2.458-2.907-4.357-5.03-5.698-2.013-1.452-4.36-2.178-7.044-2.178H23.14v31.335h34.377c2.794 0 5.31-.67 7.545-2.011 2.348-1.452 4.193-3.351 5.534-5.697 1.342-2.346 2.012-4.915 2.012-7.708zM23.141 25.124V55.12h30.854c2.571 0 4.919-.614 7.043-1.843 2.124-1.23 3.8-2.96 5.03-5.195 1.342-2.234 2.013-4.915 2.013-8.043 0-3.016-.615-5.642-1.845-7.876-1.118-2.234-2.683-3.966-4.695-5.194-1.9-1.23-4.08-1.844-6.54-1.844h-31.86zm140.972 30.833c-6.819 0-12.912 1.34-18.278 4.021-5.366 2.57-9.223 6.312-11.57 11.227v53.119h-22.47V36.519h20.625v18.767c3.13-6.032 7.099-10.78 11.906-14.243 4.807-3.463 9.893-5.362 15.259-5.697h2.851c.671 0 1.23.056 1.677.168v20.443zm6.001 42.394c0-5.697 1.565-10.668 4.696-14.913 3.242-4.357 7.713-7.708 13.415-10.054 5.701-2.346 12.241-3.52 19.619-3.52a77.2 77.2 0 0111.235.839c3.801.558 7.099 1.452 9.893 2.68v-4.691c0-5.586-1.676-9.887-5.03-12.903-3.242-3.016-8.105-4.524-14.589-4.524-4.807 0-9.39.838-13.75 2.513-4.36 1.676-8.944 4.134-13.751 7.373l-7.21-14.746c5.813-3.798 11.738-6.646 17.775-8.546 6.148-1.899 12.576-2.848 19.284-2.848 12.52 0 22.246 3.128 29.177 9.384 7.043 6.255 10.565 15.192 10.565 26.81V99.19c0 2.346.391 4.022 1.173 5.027.895 1.006 2.292 1.62 4.193 1.843v18.265c-2.013.335-3.857.615-5.534.838-1.565.224-2.907.335-4.025.335-4.471 0-7.881-1.005-10.229-3.016-2.235-2.011-3.633-4.468-4.192-7.373l-.503-4.524c-3.801 4.915-8.552 8.713-14.253 11.394-5.702 2.681-11.515 4.022-17.44 4.022-5.813 0-11.067-1.173-15.762-3.519-4.584-2.458-8.217-5.753-10.9-9.886-2.571-4.245-3.857-8.993-3.857-14.244zm54.666 4.525c1.23-1.341 2.236-2.681 3.019-4.022.782-1.34 1.173-2.57 1.173-3.686v-8.882c-2.683-1.117-5.589-1.954-8.719-2.513-3.13-.67-6.093-1.005-8.888-1.005-5.813 0-10.62 1.284-14.421 3.854-3.689 2.457-5.533 5.753-5.533 9.886 0 2.234.614 4.357 1.844 6.368 1.23 2.01 3.019 3.63 5.366 4.859 2.348 1.229 5.143 1.843 8.384 1.843 3.354 0 6.652-.614 9.894-1.843 3.242-1.34 5.869-2.96 7.881-4.859zm47.66 21.448V36.519h22.47v87.805h-22.47zm0-100.037V2h22.47v22.287h-22.47zm124.404 100.037h-22.47V75.06c0-7.038-1.23-12.177-3.689-15.417-2.46-3.24-5.869-4.86-10.229-4.86-3.018 0-6.093.783-9.223 2.347-3.018 1.564-5.757 3.742-8.216 6.535-2.46 2.68-4.249 5.809-5.366 9.384v51.275h-22.47V36.519h20.29v16.254c2.235-3.798 5.086-6.982 8.552-9.551 3.465-2.681 7.434-4.692 11.905-6.033 4.584-1.452 9.391-2.178 14.422-2.178 5.477 0 9.949 1.005 13.414 3.016 3.578 1.9 6.261 4.524 8.049 7.876 1.901 3.24 3.186 6.926 3.857 11.06a67.372 67.372 0 011.174 12.567v54.794zM416.215 2h22.47v94.173c0 4.022.67 6.759 2.012 8.211 1.341 1.34 3.186 2.011 5.533 2.011 1.789 0 3.634-.224 5.534-.671 1.901-.447 3.577-1.005 5.031-1.675l3.018 17.092c-3.018 1.452-6.54 2.569-10.564 3.351-4.025.782-7.658 1.173-10.9 1.173-7.043 0-12.52-1.843-16.433-5.53-3.801-3.798-5.701-9.16-5.701-16.086V2zm93.968 124c-7.154 0-13.582-1.173-19.284-3.519-5.701-2.458-10.564-5.809-14.588-10.054-3.913-4.245-6.931-9.104-9.056-14.578-2.124-5.474-3.186-11.227-3.186-17.26 0-6.144 1.062-11.953 3.186-17.427 2.125-5.474 5.143-10.333 9.056-14.578 4.024-4.245 8.887-7.54 14.588-9.887 5.702-2.457 12.13-3.686 19.284-3.686 7.155 0 13.527 1.229 19.117 3.686 5.701 2.346 10.564 5.642 14.588 9.887a42.07 42.07 0 019.055 14.578c2.125 5.474 3.187 11.283 3.187 17.427 0 6.033-1.062 11.786-3.187 17.26a42.065 42.065 0 01-9.055 14.578c-3.912 4.245-8.719 7.596-14.421 10.054-5.701 2.346-12.129 3.519-19.284 3.519zM487.21 80.59c0 5.138 1.006 9.718 3.019 13.74 2.012 3.91 4.751 6.982 8.216 9.216 3.466 2.234 7.378 3.351 11.738 3.351 4.248 0 8.105-1.117 11.571-3.351 3.465-2.346 6.204-5.474 8.216-9.384 2.124-4.022 3.186-8.602 3.186-13.74 0-5.027-1.062-9.552-3.186-13.573-2.012-4.022-4.751-7.15-8.216-9.384-3.466-2.234-7.323-3.352-11.571-3.352-4.36 0-8.272 1.173-11.738 3.52-3.465 2.234-6.204 5.362-8.216 9.383-2.013 3.91-3.019 8.434-3.019 13.573zM611.876 126c-7.154 0-13.582-1.173-19.284-3.519-5.701-2.458-10.564-5.809-14.589-10.054-3.912-4.245-6.931-9.104-9.055-14.578-2.124-5.474-3.186-11.227-3.186-17.26 0-6.144 1.062-11.953 3.186-17.427 2.124-5.474 5.143-10.333 9.055-14.578 4.025-4.245 8.888-7.54 14.589-9.887 5.702-2.457 12.13-3.686 19.284-3.686 7.155 0 13.527 1.229 19.117 3.686 5.701 2.346 10.564 5.642 14.588 9.887a42.07 42.07 0 019.055 14.578c2.124 5.474 3.186 11.283 3.186 17.427 0 6.033-1.062 11.786-3.186 17.26a42.065 42.065 0 01-9.055 14.578c-3.912 4.245-8.719 7.596-14.421 10.054-5.701 2.346-12.129 3.519-19.284 3.519zm-22.973-45.41c0 5.138 1.006 9.718 3.019 13.74 2.012 3.91 4.751 6.982 8.216 9.216 3.466 2.234 7.378 3.351 11.738 3.351 4.248 0 8.105-1.117 11.571-3.351 3.465-2.346 6.204-5.474 8.216-9.384 2.124-4.022 3.186-8.602 3.186-13.74 0-5.027-1.062-9.552-3.186-13.573-2.012-4.022-4.751-7.15-8.216-9.384-3.466-2.234-7.323-3.352-11.571-3.352-4.36 0-8.272 1.173-11.738 3.52-3.465 2.234-6.204 5.362-8.216 9.383-2.013 3.91-3.019 8.434-3.019 13.573zm144.118 43.734l-25.656-37.87-11.906 11.73v26.14h-22.47V2h22.47v74.065l35.382-39.378h23.811l-32.699 37.2L757 124.323h-23.979z" stroke="#39E22B" stroke-width="4" mask="url(#a)"/></svg>