<svg width="250" height="300" viewBox="247 240 165 231" fill="none" xmlns="http://www.w3.org/2000/svg"><mask id="a" style="mask-type:luminance" maskUnits="userSpaceOnUse" x="0" y="0" width="1263" height="710"><path d="M1262.22 0H0v710h1262.22V0z" fill="#fff"/></mask><g mask="url(#a)"><path d="M305.497 417.914h47.399c7.429-.395 13.411-6.574 13.411-14.134v-8.349c26.625-13.675 44.836-41.351 44.836-73.236 0-45.426-36.947-82.307-82.308-82.307-45.361-.066-82.307 36.881-82.307 82.307 0 45.361 36.946 82.308 82.307 82.308 7.034 0 13.937-.921 20.446-2.564v-51.081h-11.308v41.746a70.401 70.401 0 01-9.138.591c-12.819 0-24.85-3.418-35.237-9.401l-2.169-1.249c-20.183-12.556-33.66-34.908-33.66-60.35 0-39.181 31.885-71 71-71 39.116 0 71 31.885 71 71 0 29.912-18.604 55.551-44.835 66.004v15.581c0 1.512-1.249 2.826-2.761 2.892h-46.807c-7.823 0-14.2 6.377-14.2 14.2 0 7.823 6.377 14.2 14.2 14.2h46.741c1.578 0 2.893 1.315 2.893 2.893 0 1.578-1.315 2.892-2.893 2.892h-12.885c.066 2.499.066 7.166.066 7.626 0 1.315-.263 2.564-.657 3.682-1.512 3.944-5.325 6.771-9.73 6.771-4.47 0-8.283-2.827-9.73-6.771-.46-1.184-.657-2.367-.657-3.682 0-.46.066-5.127.066-7.626h-11.308c0 2.499-.065 7.166-.065 7.626 0 1.249.131 2.498.328 3.682 1.775 10.255 10.65 18.013 21.432 18.013 10.715 0 19.656-7.823 21.431-18.013h1.972c7.824 0 14.2-6.377 14.2-14.2 0-7.823-6.376-14.2-14.2-14.2h-46.741c-1.578 0-2.893-1.315-2.893-2.893-.131-1.643 1.183-2.958 2.761-2.958z" fill="#39E22B"/></g><mask id="b" style="mask-type:luminance" maskUnits="userSpaceOnUse" x="0" y="0" width="1263" height="710"><path d="M1262.22 0H0v710h1262.22V0z" fill="#fff"/></mask><g mask="url(#b)"><path d="M328.901 369.069c-25.573 0-46.347-20.775-46.347-46.348s20.774-46.347 46.347-46.347 46.347 20.774 46.347 46.347c-.066 25.573-20.84 46.348-46.347 46.348zm0-85.266c-21.432 0-38.919 17.487-38.919 38.918 0 21.432 17.487 38.919 38.919 38.919 21.431 0 38.918-17.487 38.918-38.919-.065-21.431-17.487-38.918-38.918-38.918z" fill="#fff"/></g><mask id="c" style="mask-type:luminance" maskUnits="userSpaceOnUse" x="0" y="0" width="1263" height="710"><path d="M1262.22 0H0v710h1262.22V0z" fill="#fff"/></mask><g mask="url(#c)"><path d="M371.501 322.721c0 23.536-19.065 42.6-42.6 42.6s-42.6-19.064-42.6-42.6c0-23.535 19.065-42.6 42.6-42.6s42.6 19.065 42.6 42.6z" fill="#E0E0E0"/></g><mask id="d" style="mask-type:luminance" maskUnits="userSpaceOnUse" x="0" y="0" width="1263" height="710"><path d="M1262.22 0H0v710h1262.22V0z" fill="#fff"/></mask><g mask="url(#d)"><path d="M353.225 322.721c0 13.477-10.913 24.324-24.324 24.324-13.411 0-24.324-10.913-24.324-24.324 0-13.411 10.913-24.324 24.324-24.324 13.411 0 24.324 10.913 24.324 24.324z" fill="#272827"/></g><mask id="e" style="mask-type:luminance" maskUnits="userSpaceOnUse" x="0" y="0" width="1263" height="710"><path d="M1262.22 0H0v710h1262.22V0z" fill="#fff"/></mask><g mask="url(#e)"><path d="M325.877 314.569c.855 1.907-.066 4.142-2.038 4.997-1.972.854-4.207 0-4.996-1.907-.855-1.906.065-4.141 2.038-4.996 1.906-.855 4.207 0 4.996 1.906z" fill="#fff"/></g><mask id="f" style="mask-type:luminance" maskUnits="userSpaceOnUse" x="0" y="0" width="1263" height="710"><path d="M1262.22 0H0v710h1262.22V0z" fill="#fff"/></mask><g opacity=".46" mask="url(#f)"><mask id="g" style="mask-type:luminance" maskUnits="userSpaceOnUse" x="305" y="322" width="29" height="26"><path d="M333.766 322.656h-28.137v24.389h28.137v-24.389z" fill="#fff"/></mask><g mask="url(#g)"><path d="M332.517 331.465c-3.287-7.56-12.228-10.913-19.986-7.495-2.958 1.315-5.325 3.419-6.902 5.983 3.089 9.927 12.293 17.158 23.272 17.158.46 0 .92 0 1.315-.066 3.55-4.273 4.667-10.255 2.301-15.58z" fill="#39E22B"/></g></g></svg>