<svg width="75%" height="99.5%" viewBox="0 0 929 768" fill="none" preserveAspectRatio="none" xmlns="http://www.w3.org/2000/svg"><path fill-rule="evenodd" clip-rule="evenodd" d="M889.649 733.648v32.381c0 .141 0 .422-.14.563-.281.563-.985.704-1.407.423l-57.803-33.367v32.381c0 .141 0 .422-.141.563-.281.563-.984.704-1.406.423l-57.804-33.367v32.381c0 .141 0 .422-.14.563-.282.563-.985.704-1.407.423l-57.803-33.367v32.381c0 .141 0 .422-.141.563-.281.563-.984.704-1.406.423l-57.804-33.367v32.381c0 .141 0 .422-.14.563-.282.563-.985.704-1.407.423l-57.803-33.367v32.381c0 .141 0 .422-.141.563-.281.563-.985.704-1.406.423l-57.804-33.367v32.381c0 .141 0 .422-.141.563-.281.563-.984.704-1.406.423l-57.804-33.367v32.381c0 .141 0 .422-.14.563-.281.563-.985.704-1.407.423l-57.803-33.367v32.381c0 .141 0 .422-.141.563-.281.563-.984.704-1.406.423l-57.804-33.367v32.381c0 .141 0 .422-.14.563-.282.563-.985.704-1.407.423l-57.803-33.367v32.381c0 .141 0 .422-.141.563-.281.563-.984.704-1.406.423l-57.804-33.367v32.381c0 .141 0 .422-.14.563-.282.563-.985.704-1.407.423l-57.803-33.367v32.381c0 .141 0 .422-.141.563-.281.563-.984.704-1.406.423l-57.804-33.367v32.381c0 .141 0 .422-.141.563-.281.563-.984.704-1.406.423l-57.803-33.367v32.381c0 .141 0 .422-.141.563-.281.563-.985.704-1.407.423l-59.631-34.493-.422-.422c-.282-.564-.14-1.127.422-1.408l28.41-16.331-28.41-16.472-.422-.423c-.282-.563-.14-1.126.422-1.407l28.41-16.472-28.41-16.472-.422-.423c-.282-.563-.14-1.126.422-1.408l28.55-16.471-28.55-16.472-.422-.423c-.282-.563-.14-1.126.422-1.408l28.55-16.472-28.55-16.471-.422-.423c-.282-.563-.14-1.126.422-1.408l28.268-16.331-28.268-16.331-.422-.422c-.282-.563-.14-1.127.422-1.408l28.128-16.191-27.988-16.19-.422-.422c-.281-.563-.14-1.127.422-1.408l28.27-16.613-28.41-16.472-.422-.422c-.282-.563-.14-1.126.422-1.408l28.41-16.472-28.41-16.472-.422-.422c-.282-.563-.14-1.126.422-1.408l28.55-16.331-28.55-16.472-.422-.422c-.282-.564-.14-1.127.422-1.408l28.55-16.472-28.55-16.472-.422-.423c-.282-.563-.14-1.126.422-1.407l28.268-16.332-28.268-16.331-.422-.422c-.282-.563-.14-1.126.422-1.408l28.128-16.19-27.988-16.191-.422-.422c-.281-.563-.14-1.126.422-1.408l28.27-16.753-28.41-16.472-.422-.423c-.282-.563-.14-1.126.422-1.407l28.41-16.332-28.41-16.472-.422-.422c-.282-.563-.14-1.126.422-1.408l28.55-16.472-28.55-16.472-.422-.422c-.282-.563-.14-1.126.422-1.408l28.55-16.472-28.55-16.472-.422-.422c-.282-.563-.14-1.126.422-1.408l28.268-16.331-28.268-16.331-.422-.423c-.282-.563-.14-1.126.422-1.407l28.128-16.191-27.988-16.19-.422-.422c-.281-.564-.14-1.127.422-1.408l28.27-16.754-28.41-16.472-.422-.422c-.282-.563-.14-1.126.422-1.408l28.41-16.331-28.41-16.472-.422-.422c-.282-.563-.14-1.127.422-1.408l28.55-16.472L-2.437 4.66l-.422-.422c-.282-.564-.14-1.127.422-1.408l28.55-16.472-28.55-16.472-.422-.422c-.282-.564-.14-1.127.422-1.408L26.816-48.84c.14-.281.281-.422.422-.563L57.194-66.86c.141-.141.282-.141.563-.141.563 0 1.125.422 1.125 1.126v32.663L86.167-48.98c.14-.282.28-.423.421-.564l29.957-17.316c.141-.141.281-.141.563-.141.562 0 1.125.422 1.125 1.126v32.663l27.284-15.768c.141-.282.281-.423.422-.564l29.957-17.316c.14-.141.281-.141.562-.141.563 0 1.125.422 1.125 1.126v32.663l27.285-15.768c.14-.282.281-.423.422-.564l29.956-17.316c.141-.141.281-.141.563-.141.562 0 1.125.422 1.125 1.126v32.663l27.284-15.768c.141-.282.282-.423.422-.564l29.816-17.316c.281-.141.422-.141.703-.141.563 0 1.125.422 1.125 1.126v32.663l27.285-15.768c.14-.282.281-.423.422-.564l29.816-17.316c.281-.141.422-.141.562-.141.563 0 1.125.422 1.125 1.126v32.663l27.285-15.768c.14-.282.281-.423.422-.564l29.956-17.316c.281-.141.422-.141.563-.141.562 0 1.125.422 1.125 1.126v32.663l27.284-15.768c.141-.282.282-.423.422-.564l29.957-17.316c.281-.141.422-.141.562-.141.563 0 1.125.422 1.125 1.126v32.663L501.48-48.98c.141-.282.281-.423.422-.564l29.956-17.316c.141-.141.422-.141.563-.141.562 0 1.125.422 1.125 1.126v32.663L560.83-48.98c.141-.282.282-.423.422-.564l29.957-17.316c.141-.141.422-.141.562-.141.563 0 1.126.422 1.126 1.126v32.663l27.284-15.768c.141-.282.281-.423.422-.564l29.956-17.316c.141-.141.422-.141.563-.141.563 0 1.125.422 1.125 1.126v32.663l27.285-15.768c.14-.282.281-.423.421-.564L709.91-66.86c.141-.141.422-.141.563-.141.562 0 1.125.422 1.125 1.126v32.663l27.284-15.768c.141-.282.281-.423.422-.564l29.957-17.316c.14-.141.422-.141.562-.141.563 0 1.125.422 1.125 1.126v32.663l27.285-15.768c.14-.282.281-.423.422-.564l29.956-17.316c.141-.141.422-.141.563-.141.562 0 1.125.422 1.125 1.126v32.663l27.144-15.768c.14-.282.281-.423.422-.564l30.097-17.316c.14-.141.422-.141.562-.141.563 0 1.125.422 1.125 1.126v32.663l27.144-15.768c.141-.282.281-.423.422-.564l30.097-17.316c.141-.141.282-.141.563-.141.562 0 1.125.422 1.125 1.126v832.748c0 .141 0 .422-.141.563-.281.563-.984.704-1.406.422l-57.804-34.211zm0-34.633v30.55l26.441-15.204-26.441-15.346zm0-34.633v30.55l26.441-15.345-26.441-15.205zm0-34.915v30.691l26.582-15.345-26.582-15.346zm0-34.774v30.691l26.582-15.346-26.582-15.345zm0-34.633v30.55l26.441-15.205-26.441-15.345zm0-34.211v30.269l26.16-15.065-26.16-15.204zm0-34.774v30.55l26.441-15.346-26.441-15.204zm0-34.634v30.551l26.441-15.346-26.441-15.205zm0-34.915v30.692l26.582-15.205-26.582-15.487zm0-34.774v30.692l26.582-15.346-26.582-15.346zm0-34.633v30.551l26.441-15.205-26.441-15.346zm-2.25-3.66v-30.973l-26.722 15.486 26.722 15.487zm2.25-30.551v30.128l26.16-15.064-26.16-15.064zm0-34.774v30.551l26.441-15.346-26.441-15.205zm0-34.633v30.55l26.441-15.205-26.441-15.345zm0-34.774v30.691l26.582-15.346-26.582-15.345zm0-34.915v30.691l26.582-15.346-26.582-15.345zm0-34.633v30.55l26.441-15.205-26.441-15.345zm0-34.211v30.269l26.16-15.065-26.16-15.204zm29.676 501.901v30.691l26.581-15.346-26.581-15.345zm-830.908 0v30.691l26.581-15.346-26.581-15.345zM889.649-29.129V1.563l26.582-15.346-26.582-15.346zm0 34.915v30.691l26.582-15.345-26.582-15.346zm0 34.774v30.55l26.441-15.204-26.441-15.346zm0 34.634v30.55l26.441-15.346-26.441-15.204zm29.676 47.867l26.44-15.346-26.44-15.346v30.692zm-2.251.281V92.369l-26.721 15.487 26.721 15.486zm2.954-32.944l26.722 15.487V74.912l-26.722 15.486zm-.703-2.111l26.44-15.205-26.44-15.346v30.55zm-2.251.422V57.736l-26.721 15.487 26.721 15.486zm2.251-35.056l26.581-15.345-26.581-15.346v30.691zm-2.251.423V23.103l-26.721 15.486 26.721 15.487zm2.251-35.337l26.581-15.346-26.581-15.346v30.691zm-2.251.422v-30.973L890.353 3.674l26.721 15.487zm2.251-35.197l26.3-15.204-26.3-15.205v30.41zm-2.251.423v-30.973L890.353-31.1l26.721 15.487zm2.251 172.885l26.159-15.064-26.159-15.065v30.129zm.703-32.24l26.722 15.486v-30.973l-26.722 15.487zm-2.954 32.662v-30.973l-26.721 15.487 26.721 15.486zm2.251 173.166l26.44-15.204-26.44-15.346v30.55zm-2.251.423V300.31l-26.721 15.486 26.721 15.487zm2.954-32.944l26.722 15.486v-30.973l-26.722 15.487zm-.703-2.112l26.44-15.345-26.44-15.346v30.691zm-2.251.422v-30.972l-26.721 15.486 26.721 15.486zm2.251-35.055l26.581-15.346-26.581-15.345v30.691zm-2.251.281v-30.972l-26.721 15.486 26.721 15.486zm2.251-35.196l26.581-15.346-26.581-15.345v30.691zm-2.251.422v-30.973l-26.721 15.487 26.721 15.486zm2.251-35.196l26.3-15.346-26.3-15.205v30.551zm-2.251.281v-30.972L890.353 176.7l26.721 15.486zm2.251 173.026l26.159-15.064-26.159-15.064v30.128zm.703-32.24l26.722 15.487v-30.973l-26.722 15.486zm-2.954 32.662v-30.972l-26.721 15.486 26.721 15.486zm2.251 173.167l26.44-15.205-26.44-15.346v30.551zm-2.251.422V508.25l-26.721 15.487 26.721 15.486zm2.954-33.084l26.722 15.486v-30.973l-26.722 15.487zm-.703-1.971l26.44-15.346-26.44-15.205v30.551zm-2.251.422v-30.973l-26.721 15.487 26.721 15.486zm2.251-35.056l26.581-15.345-26.581-15.346v30.691zm-2.251.282v-30.973l-26.721 15.486 26.721 15.487zm2.251-35.197l26.581-15.345-26.581-15.346v30.691zm-2.251.423v-30.973l-26.721 15.486 26.721 15.487zm2.251-35.197l26.44-15.204-26.3-15.205-.14 30.409zm-2.251.282v-30.973l-26.721 15.487 26.721 15.486zm2.251 173.026l26.018-15.064-26.159-15.065.141 30.129zm.703-32.24l26.722 15.486v-30.973l-26.722 15.487zm-2.954 32.662v-30.973l-26.721 15.487 26.721 15.486zm2.251 173.166l26.44-15.345-26.44-15.346v30.691zm-2.251.423v-30.973l-26.721 15.486 26.721 15.487zm2.954-33.085l26.722 15.486v-30.972l-26.722 15.486zm-.703-1.971l26.44-15.346-26.44-15.345v30.691zm-2.251.422v-30.972l-26.721 15.486 26.721 15.486zm2.251-35.196l26.581-15.346-26.581-15.345v30.691zm-2.251.422v-30.972l-26.721 15.486 26.721 15.486zm0-34.774v-30.973l-26.721 15.487 26.721 15.486zm2.251-65.747v30.551l26.44-15.205-26.44-15.346zm-2.251 30.832v-30.972l-26.721 15.486 26.721 15.486zM946.75-33.071v-30.972l-26.722 15.486 26.722 15.486zm0 104.182V40.138l-26.722 15.486 26.722 15.487zm0-34.774V5.364L920.028 20.85l26.722 15.487zm0-34.915v-30.973l-26.722 15.486L946.75 1.422zm0 173.448v-30.973l-26.722 15.486 26.722 15.487zm0 176.967l-26.722 15.487 26.722 15.486v-30.973zm0-72.786v-30.973l-26.722 15.487 26.722 15.486zm0-34.774v-30.973l-26.722 15.487 26.722 15.486zm0-34.915v-30.973l-26.722 15.487 26.722 15.486zm0 277.63v-30.973l-26.722 15.486 26.722 15.487zm0-34.774v-30.973l-26.722 15.486 26.722 15.487zm0-34.915V386.33l-26.722 15.486 26.722 15.487zm0 173.307v-30.973l-26.722 15.487 26.722 15.486zm0 173.73v-30.973l-26.722 15.486 26.722 15.487zm0-69.408v-30.973l-26.722 15.487 26.722 15.486zm0-34.915v-30.973l-26.722 15.487 26.722 15.486zm0-34.774v-30.972l-26.722 15.486 26.722 15.486zm-264.828-13.374v30.691l26.582-15.346-26.582-15.345zm148.377-501.901v30.269l26.159-15.065-26.159-15.204zm29.675 13.093l26.441-15.346-26.441-15.346v30.692zm-3.235-32.522l-26.44-15.345v30.55l26.44-15.205zm.985 32.803V92.369l-26.722 15.487 26.722 15.486zm2.953-32.944l26.722 15.487V74.912l-26.722 15.486zm-.703-2.111l26.441-15.205-26.441-15.346v30.55zm-3.235-32.381l-26.44-15.346v30.55l26.44-15.204zm.985 32.803V57.736l-26.722 15.487 26.722 15.486zm2.25-35.056l26.581-15.345-26.581-15.487v30.832zm-3.094-32.521L830.299 5.786v30.691l26.581-15.345zm.844 32.944V23.103l-26.722 15.486 26.722 15.487zm2.25-35.337l26.581-15.346-26.581-15.346v30.691zm-3.094-32.522l-26.581-15.346V1.563l26.581-15.346zm.844 32.944v-30.973L831.002 3.674l26.722 15.487zm2.25-35.197l26.3-15.204-26.3-15.346v30.55zm-237.402-30.55v30.55l26.44-15.204-26.44-15.346zm0 34.633v30.691l26.581-15.345-26.581-15.346zm0 34.774v30.692l26.581-15.346-26.581-15.346zm0 34.915v30.55l26.44-15.204-26.44-15.346zm0 34.633v30.551l26.44-15.205-26.44-15.346zm0 34.774v30.269l26.159-15.064-26.159-15.205zm0 34.211v30.551l26.3-15.346-26.3-15.205zm0 34.634v30.691l26.581-15.346-26.581-15.345zm0 34.774v30.691l26.581-15.346-26.581-15.345zm0 34.915v30.55l26.44-15.345-26.44-15.205zm0 34.633v30.55l26.44-15.204-26.44-15.346zm0 34.633v30.269l26.159-15.064-26.159-15.205zm0 34.352v30.55l26.44-15.204-26.44-15.346zm0 34.633v30.691l26.581-15.345-26.581-15.346zm0 34.774v30.692l26.581-15.346-26.581-15.346zm0 34.915v30.551l26.44-15.346-26.44-15.205zm0 34.633v30.551l26.44-15.205-26.44-15.346zm0 34.634v30.269l26.159-15.064-26.159-15.205zm0 34.351v30.551l26.44-15.205-26.44-15.346zm0 34.634v30.691l26.581-15.346-26.581-15.345zm0 34.774v30.691l26.581-15.346-26.581-15.345zm0 34.915v30.55l26.44-15.346-26.44-15.204zm0 34.633v30.55l26.44-15.345-26.44-15.205zM857.724-15.613v-30.973L831.002-31.1l26.722 15.487zm-27.425 159.792v30.55l26.44-15.205-26.44-15.345zm29.675 13.093l26.159-15.064-26.159-15.065v30.129zm.703-32.24l26.722 15.486v-30.973l-26.722 15.487zm-2.953 32.662v-30.973l-26.722 15.487 26.722 15.486zm-27.425 160.214v30.128l26.159-15.064-26.159-15.064zm29.675 12.952l26.441-15.345-26.441-15.205v30.55zm-3.235-32.38l-26.44-15.346v30.551l26.44-15.205zm.985 32.803V300.31l-26.722 15.486 26.722 15.487zm2.953-32.944l26.722 15.486v-30.973l-26.722 15.487zm-.703-2.112l26.441-15.345-26.441-15.205v30.55zm-3.235-32.381l-26.44-15.345v30.55l26.44-15.205zm.985 32.803v-30.972l-26.722 15.486 26.722 15.486zm2.25-35.055l26.581-15.346-26.581-15.486v30.832zm-3.094-32.522l-26.581-15.345v30.691l26.581-15.346zm.844 32.803v-30.972l-26.722 15.486 26.722 15.486zm2.25-35.196l26.581-15.346-26.581-15.345v30.691zm-3.094-32.522l-26.581-15.345v30.691l26.581-15.346zm.844 32.944v-30.973l-26.722 15.487 26.722 15.486zm2.25-35.196l26.3-15.346-26.3-15.205v30.551zm-2.25.281v-30.972L831.002 176.7l26.722 15.486zm-27.425 159.933v30.551l26.44-15.205-26.44-15.346zm29.675 13.093l26.159-15.064-26.159-15.205v30.269zm-31.925-16.753v-30.973l-26.722 15.486 26.722 15.487zm29.675 17.175v-30.972l-26.722 15.486 26.722 15.486zm-27.425 160.215v30.269l26.159-15.065-26.159-15.204zm29.675 12.952l26.441-15.346-26.441-15.205v30.551zm-3.235-32.381l-26.44-15.345v30.55l26.44-15.205zm.985 32.803V508.25l-26.722 15.487 26.722 15.486zm2.953-33.084l26.722 15.486v-30.973l-26.722 15.487zm-.703-1.971l26.441-15.346-26.441-15.205v30.551zm-3.235-32.522l-26.44-15.346v30.551l26.44-15.205zm.985 32.944v-30.973l-26.722 15.487 26.722 15.486zm2.25-35.056l26.581-15.345-26.581-15.487v30.832zm-3.094-32.521l-26.581-15.346v30.691l26.581-15.345zm.844 32.803v-30.973l-26.722 15.486 26.722 15.487zm2.25-35.197l26.581-15.345-26.581-15.346v30.691zm-3.094-32.521l-26.581-15.346v30.692l26.581-15.346zm.844 32.944v-30.973l-26.722 15.486 26.722 15.487zm2.25-35.197l26.441-15.204-26.441-15.346v30.55zm-2.25.282v-30.973l-26.722 15.487 26.722 15.486zM830.299 560.06v30.55l26.44-15.205-26.44-15.345zm29.675 13.093l26.019-15.064-26.019-15.205v30.269zm.703-32.24l26.722 15.486v-30.973l-26.722 15.487zm-2.953 32.662v-30.973l-26.722 15.487 26.722 15.486zm2.25 173.166l26.441-15.345-26.441-15.205v30.55zm-3.235-32.38l-26.44-15.346v30.55l26.44-15.204zm.985 32.803v-30.973l-26.722 15.486 26.722 15.487zm2.953-33.085l26.722 15.486v-30.972l-26.722 15.486zm-.703-1.971l26.441-15.346-26.441-15.204v30.55zm-3.235-32.521l-26.44-15.346v30.55l26.44-15.204zm.985 32.943v-30.972l-26.722 15.486 26.722 15.486zm2.25-35.196l26.581-15.346-26.581-15.345v30.691zm-3.094-32.521l-26.581-15.346v30.691l26.581-15.345zm.844 32.943v-30.972l-26.722 15.486 26.722 15.486zm2.25-35.196l26.581-15.346-26.581-15.345v30.691zm-3.094-32.522l-26.581-15.345v30.691l26.581-15.346zm.844 32.944v-30.973l-26.722 15.487 26.722 15.486zm2.25-35.337l26.441-15.205-26.441-15.205v30.41zm-2.25.422v-30.972l-26.722 15.486 26.722 15.486zm29.675-641.138v-30.972l-26.722 15.486 26.722 15.486zm0 104.182V40.138l-26.722 15.486 26.722 15.487zm0-34.774V5.364L860.677 20.85l26.722 15.487zm0-34.915v-30.973l-26.722 15.486 26.722 15.487zm0 173.448v-30.973l-26.722 15.486 26.722 15.487zm0 176.967l-26.722 15.487 26.722 15.486v-30.973zm0-72.786v-30.973l-26.722 15.487 26.722 15.486zm0-34.774v-30.973l-26.722 15.487 26.722 15.486zm0-34.915v-30.973l-26.722 15.487 26.722 15.486zm0 277.63v-30.973l-26.722 15.486 26.722 15.487zm0-34.774v-30.973l-26.722 15.486 26.722 15.487zm0-34.915V386.33l-26.722 15.486 26.722 15.487zm0 173.307v-30.973l-26.722 15.487 26.722 15.486zm0 173.73v-30.973l-26.722 15.486 26.722 15.487zm0-69.408v-30.973l-26.722 15.487 26.722 15.486zm0-34.915v-30.973l-26.722 15.487 26.722 15.486zm0-34.774v-30.972l-26.722 15.486 26.722 15.486zM711.598 109.968v30.269l26.159-15.065-26.159-15.204zm29.675 13.093l26.441-15.346-26.441-15.346v30.692zm-3.235-32.522l-26.44-15.345v30.55l26.44-15.205zm.985 32.803V92.369l-26.863 15.487 26.863 15.486zm2.953-32.944l26.722 15.487V74.912l-26.722 15.486zm-.703-2.111l26.441-15.346-26.441-15.346v30.692zm-3.235-32.381l-26.44-15.346v30.55l26.44-15.204zm.985 32.803V57.736l-26.722 15.487 26.722 15.486zm2.25-35.056l26.581-15.345-26.581-15.346v30.691zm-3.094-32.521L711.598 5.786v30.691l26.581-15.345zm.844 32.944V23.103l-26.722 15.486 26.722 15.487zm2.25-35.337l26.581-15.346-26.581-15.346v30.691zm-3.094-32.522l-26.581-15.346V1.563l26.581-15.346zm.844 32.944v-30.973L712.16 3.674l26.863 15.487zm2.25-35.197l26.441-15.204-26.441-15.205v30.41zm-2.25.423v-30.973L712.16-31.1l26.863 15.487zm-27.425 159.792v30.55l26.44-15.205-26.44-15.345zm29.675 13.093l26.159-15.064-26.159-15.065v30.129zm.703-32.24l26.722 15.486v-30.973l-26.722 15.487zm-2.953 32.662v-30.973l-26.863 15.487 26.863 15.486zm-27.425 160.214v30.128l26.018-15.064-26.018-15.064zm29.675 12.952l26.441-15.345-26.441-15.346v30.691zm-3.235-32.38l-26.44-15.346v30.551l26.44-15.205zm.985 32.803V300.31l-26.863 15.486 26.863 15.487zm2.953-32.944l26.722 15.486v-30.973l-26.722 15.487zm-.703-2.112l26.441-15.345-26.441-15.346v30.691zm-3.235-32.381l-26.44-15.345v30.55l26.44-15.205zm.985 32.803v-30.972l-26.722 15.486 26.722 15.486zm2.25-35.055l26.581-15.346-26.581-15.345v30.691zm-3.094-32.522l-26.581-15.345v30.691l26.581-15.346zm.844 32.803v-30.972l-26.863 15.486 26.863 15.486zm2.25-35.196l26.581-15.346-26.581-15.345v30.691zm-3.094-32.522l-26.581-15.345v30.691l26.581-15.346zm.844 32.944v-30.973l-26.863 15.487 26.863 15.486zm2.25-35.196l26.3-15.346-26.441-15.205.141 30.551zm-2.25.281v-30.972L712.16 176.7l26.863 15.486zm-27.425 159.933v30.551l26.44-15.205-26.44-15.346zm29.675 13.093l26.159-15.064-26.159-15.064v30.128zm.703-32.24l26.722 15.487v-30.973l-26.722 15.486zm-32.488 15.487v-30.973l-26.722 15.486 26.722 15.487zm29.535 17.175v-30.972l-26.722 15.486 26.722 15.486zm-27.425 160.215v30.269l26.159-15.065-26.159-15.204zm29.675 12.952l26.441-15.346-26.441-15.345v30.691zm-3.235-32.381l-26.44-15.345v30.55l26.44-15.205zm.985 32.803V508.25l-26.863 15.487 26.863 15.486zm2.953-33.084l26.722 15.486v-30.973l-26.722 15.487zm-.703-1.971l26.441-15.346-26.441-15.346v30.692zm-3.235-32.522l-26.44-15.346v30.551l26.44-15.205zm.985 32.944v-30.973l-26.722 15.487 26.722 15.486zm2.25-35.056l26.581-15.345-26.581-15.346v30.691zm-3.094-32.521l-26.581-15.346v30.691l26.581-15.345zm.844 32.803v-30.973l-26.863 15.486 26.863 15.487zm2.25-35.197l26.581-15.345-26.581-15.346v30.691zm-3.094-32.521l-26.581-15.346v30.692l26.581-15.346zm.844 32.944v-30.973l-26.863 15.486 26.863 15.487zm2.25-35.197l26.441-15.204-26.441-15.205v30.409zm-2.25.282v-30.973l-26.863 15.487 26.863 15.486zM711.598 560.06v30.55l26.44-15.205-26.44-15.345zm29.675 13.093l26.019-15.064-26.16-15.065.141 30.129zm.703-32.24l26.722 15.486v-30.973l-26.722 15.487zm-2.953 32.662v-30.973l-26.863 15.487 26.863 15.486zm2.25 173.166l26.441-15.345-26.441-15.346v30.691zm-3.235-32.38l-26.44-15.346v30.55l26.44-15.204zm.985 32.803v-30.973l-26.863 15.486 26.863 15.487zm2.953-33.085l26.722 15.486v-30.972l-26.722 15.486zm-.703-1.971l26.441-15.346-26.441-15.345v30.691zm-3.235-32.521l-26.44-15.346v30.55l26.44-15.204zm.985 32.943v-30.972l-26.722 15.486 26.722 15.486zm2.25-35.196l26.581-15.346-26.581-15.345v30.691zm-3.094-32.521l-26.581-15.346v30.691l26.581-15.345zm.844 32.943v-30.972L712.16 662.27l26.863 15.486zm2.25-35.196l26.581-15.346-26.581-15.345v30.691zm-3.094-32.522l-26.581-15.345v30.691l26.581-15.346zm.844 32.944v-30.973l-26.863 15.487 26.863 15.486zm2.25-35.337l26.441-15.205-26.441-15.205v30.41zm-2.25.422v-30.972l-26.863 15.486 26.863 15.486zm29.675-641.138v-30.972l-26.722 15.486 26.722 15.486zm2.25 173.167l26.16-15.064-26.16-15.064v30.128zm.704-32.24l26.721 15.486V92.369l-26.721 15.487zm-.704-1.971l26.441-15.346-26.441-15.345v30.691zm.704-32.662l26.721 15.486V57.736l-26.721 15.487zm-.704-2.112l26.441-15.346-26.441-15.346v30.692zm.704-32.522l26.721 15.487V23.103l-26.721 15.486zm-2.954 32.522V40.138l-26.862 15.486 26.862 15.487zm2.25-34.634l26.581-15.345-26.581-15.346v30.691zm.704-32.803l26.721 15.487v-30.973L771.652 3.674zm-2.954 32.663V5.364L741.836 20.85l26.862 15.487zm2.25-34.634l26.581-15.345-26.581-15.346V1.703zm.704-32.803l26.721 15.487v-30.973L771.652-31.1zm-2.954 32.522v-30.973l-26.722 15.486 26.722 15.487zm2.25 173.307l26.3-15.205-26.3-15.205v30.41zm.704-32.521l26.721 15.486v-30.973l-26.721 15.487zm-2.954 32.662v-30.973l-26.722 15.486 26.722 15.487zm0 176.967l-26.722 15.487 26.722 15.486v-30.973zm2.25-3.801l26.16-15.064-26.16-15.064v30.128zm.704-32.24l26.721 15.487V300.31l-26.721 15.486zm-.704-1.971l26.441-15.345-26.441-15.346v30.691zm.704-32.662l26.721 15.486v-30.972l-26.721 15.486zm-.704-2.112l26.441-15.205-26.441-15.345v30.55zm.704-32.662l26.721 15.486v-30.972l-26.721 15.486zm-2.954 32.662v-30.973l-26.862 15.487 26.862 15.486zm2.25-34.633l26.581-15.346-26.581-15.345v30.691zm.704-32.803l26.721 15.486v-30.973l-26.721 15.487zm-2.954 32.662v-30.973l-26.862 15.487 26.862 15.486zm2.25-34.774l26.581-15.346-26.581-15.345v30.691zm.704-32.803l26.721 15.486v-30.972L771.652 176.7zm-2.954 32.662v-30.973l-26.722 15.487 26.722 15.486zm2.25 173.308l26.3-15.205-26.3-15.205v30.41zm.704-32.522l26.721 15.486v-30.972l-26.721 15.486zm-.704 205.829l26.16-15.064-26.16-15.064v30.128zm.704-32.24l26.721 15.486V508.25l-26.721 15.487zm-.704-2.112l26.441-15.346-26.441-15.345v30.691zm.704-32.521l26.721 15.486v-30.973l-26.721 15.487zm-.704-2.112l26.441-15.346-26.441-15.346v30.692zm.704-32.663l26.721 15.487v-30.973l-26.721 15.486zm-2.954 32.663v-30.973l-26.862 15.486 26.862 15.487zm2.25-34.634l26.581-15.345-26.581-15.346v30.691zm.704-32.803l26.721 15.487v-30.973l-26.721 15.486zm-2.954 32.663v-30.973l-26.862 15.486 26.862 15.487zm2.25-34.774l26.581-15.346-26.581-15.346v30.692zm.704-32.803l26.721 15.486v-30.973l-26.721 15.487zm-2.954 32.662V386.33l-26.722 15.486 26.722 15.487zm2.25 173.307l26.3-15.205-26.3-15.205v30.41zm.704-32.521l26.721 15.486v-30.973l-26.721 15.487zm-2.954 32.521v-30.973l-26.722 15.487 26.722 15.486zm2.954 141.067l26.721 15.487v-30.973l-26.721 15.486zm-2.954 32.663v-30.973l-26.862 15.486 26.862 15.487zm2.25-34.775l26.441-15.204-26.441-15.346v30.55zm.704-32.521l26.721 15.486v-30.972l-26.721 15.486zm-.704-2.112l26.441-15.345-26.441-15.346v30.691zm.704-32.662l26.721 15.486v-30.972l-26.721 15.486zm-2.954 32.662v-30.973l-26.862 15.487 26.862 15.486zm2.25-34.633l26.581-15.346-26.581-15.345v30.691zm.704-32.803l26.721 15.486v-30.973l-26.721 15.487zm-2.954 32.521v-30.973l-26.862 15.487 26.862 15.486zm2.25-34.633l26.581-15.346-26.581-15.345v30.691zm.704-32.803l26.721 15.486v-30.972l-26.721 15.486zm-2.954 32.662v-30.972l-26.722 15.486 26.722 15.486zm31.926-502.182l26.44-15.346-26.44-15.346v30.692zm.703-32.663l26.722 15.487V74.912l-26.722 15.486zm-.703-2.111l26.44-15.346-26.44-15.346v30.692zm0-34.634l26.581-15.345-26.581-15.346v30.691zm0-34.914l26.581-15.346-26.581-15.346v30.691zm0-34.775l26.44-15.204-26.44-15.205v30.41zm0 173.308l26.159-15.064-26.159-15.065v30.129zm.703-32.24l26.722 15.486v-30.973l-26.722 15.487zm-.703 205.828l26.44-15.345-26.44-15.346v30.691zm.703-32.521l26.722 15.486v-30.973l-26.722 15.487zm-.703-2.112l26.44-15.345-26.44-15.346v30.691zm0-34.633l26.581-15.346-26.581-15.345v30.691zm0-34.915l26.581-15.346-26.581-15.345v30.691zm0-34.774l26.299-15.346-26.44-15.205.141 30.551zm0 173.307l26.159-15.064-26.159-15.064v30.128zm0 173.589l26.44-15.346-26.44-15.345v30.691zm.703-32.662l26.722 15.486v-30.973l-26.722 15.487zm-.703-1.971l26.44-15.346-26.44-15.346v30.692zm0-34.634l26.581-15.345-26.581-15.346v30.691zm0-34.915l26.581-15.345-26.581-15.346v30.691zm0-34.774l26.44-15.204-26.44-15.205v30.409zm0 173.308l26.018-15.064-26.159-15.065.141 30.129zm.703-32.24l26.722 15.486v-30.973l-26.722 15.487zm-.703 205.828l26.44-15.345-26.44-15.346v30.691zm.703-32.662l26.722 15.486v-30.972l-26.722 15.486zm-.703-1.971l26.44-15.346-26.44-15.345v30.691zm0-34.774l26.581-15.346-26.581-15.345v30.691zm0-34.774l26.581-15.346-26.581-15.345v30.691zm0-34.915l26.44-15.205-26.44-15.205v30.41zm27.425-640.716v-30.972l-26.722 15.486 26.722 15.486zm0 104.182V40.138l-26.722 15.486 26.722 15.487zm0-34.774V5.364L801.327 20.85l26.722 15.487zm0-34.915v-30.973l-26.722 15.486 26.722 15.487zm0 173.448v-30.973l-26.722 15.486 26.722 15.487zm0 176.967l-26.722 15.487 26.722 15.486v-30.973zm0-72.786v-30.973l-26.722 15.487 26.722 15.486zm0-34.774v-30.973l-26.722 15.487 26.722 15.486zm0-34.915v-30.973l-26.722 15.487 26.722 15.486zm0 277.63v-30.973l-26.722 15.486 26.722 15.487zm0-34.774v-30.973l-26.722 15.486 26.722 15.487zm0-34.915V386.33l-26.722 15.486 26.722 15.487zm0 173.307v-30.973l-26.722 15.487 26.722 15.486zm0 173.73v-30.973l-26.722 15.486 26.722 15.487zm0-69.408v-30.973l-26.722 15.487 26.722 15.486zm0-34.915v-30.973l-26.722 15.487 26.722 15.486zm0-34.774v-30.972l-26.722 15.486 26.722 15.486zM650.138-33.071v-30.972l-26.722 15.486 26.722 15.486zm2.109 173.167l26.159-15.064-26.159-15.064v30.128zm.703-32.24l26.722 15.486V92.369l-26.722 15.487zm-2.812 32.662v-30.973l-26.863 15.487 26.863 15.486zm2.109-34.633l26.441-15.346-26.441-15.345v30.691zm.703-32.662l26.722 15.486V57.736L652.95 73.223zm-2.812 32.662V74.912l-26.722 15.486 26.722 15.487zm2.109-34.774l26.441-15.346-26.441-15.346v30.692zm.703-32.522l26.722 15.487V23.103L652.95 38.589zm-2.812 32.522V40.138l-26.863 15.486 26.863 15.487zm2.109-34.634l26.581-15.345-26.581-15.346v30.691zm.703-32.803l26.722 15.487v-30.973L652.95 3.674zm-2.812 32.663V5.364L623.275 20.85l26.863 15.487zm2.109-34.634l26.581-15.345-26.581-15.346V1.703zm.703-32.803l26.722 15.487v-30.973L652.95-31.1zm-2.812 32.522v-30.973l-26.722 15.486 26.722 15.487zm2.109 173.307l26.3-15.205-26.44-15.205.14 30.41zm.703-32.521l26.722 15.486v-30.973l-26.722 15.487zm-2.812 32.662v-30.973l-26.722 15.486 26.722 15.487zm0 176.967l-26.722 15.487 26.722 15.486v-30.973zm2.109-3.801l26.159-15.064-26.159-15.064v30.128zm.703-32.24l26.722 15.487V300.31l-26.722 15.486zm-2.812 32.663v-30.973l-26.863 15.486 26.863 15.487zm2.109-34.634l26.441-15.345-26.441-15.346v30.691zm.703-32.662l26.722 15.486v-30.972l-26.722 15.486zm-2.812 32.662v-30.973l-26.722 15.487 26.722 15.486zm2.109-34.774l26.441-15.205-26.441-15.345v30.55zm.703-32.662l26.722 15.486v-30.972l-26.722 15.486zm-2.812 32.662v-30.973l-26.863 15.487 26.863 15.486zm2.109-34.633l26.581-15.346-26.581-15.345v30.691zm.703-32.803l26.722 15.486v-30.973l-26.722 15.487zm-2.812 32.662v-30.973l-26.863 15.487 26.863 15.486zm2.109-34.774l26.581-15.346-26.581-15.345v30.691zm.703-32.803l26.722 15.486v-30.972L652.95 176.7zm-2.812 32.662v-30.973l-26.722 15.487 26.722 15.486zm2.109 173.308l26.3-15.205-26.44-15.205.14 30.41zm.703-32.522l26.722 15.486v-30.972l-26.722 15.486zm-.703 205.829l26.159-15.064-26.159-15.064v30.128zm.703-32.24l26.722 15.486V508.25l-26.722 15.487zm-2.812 32.662v-30.973l-26.863 15.487 26.863 15.486zm2.109-34.774l26.441-15.346-26.441-15.345v30.691zm.703-32.521l26.722 15.486v-30.973l-26.722 15.487zm-2.812 32.521v-30.973l-26.722 15.487 26.722 15.486zm2.109-34.633l26.441-15.346-26.441-15.346v30.692zm.703-32.663l26.722 15.487v-30.973l-26.722 15.486zm-2.812 32.663v-30.973l-26.863 15.486 26.863 15.487zm2.109-34.634l26.581-15.345-26.581-15.346v30.691zm.703-32.803l26.722 15.487v-30.973l-26.722 15.486zm-2.812 32.663v-30.973l-26.863 15.486 26.863 15.487zm2.109-34.774l26.581-15.346-26.581-15.346v30.692zm.703-32.803l26.722 15.486v-30.973l-26.722 15.487zm-2.812 32.662V386.33l-26.722 15.486 26.722 15.487zm2.109 173.307l26.3-15.346-26.44-15.204.14 30.55zm.703-32.521l26.722 15.486v-30.973l-26.722 15.487zm-2.812 32.521v-30.973l-26.722 15.487 26.722 15.486zm2.812 141.067l26.722 15.487v-30.973l-26.722 15.486zm-2.812 32.663v-30.973l-26.863 15.486 26.863 15.487zm2.109-34.775l26.441-15.204-26.441-15.346v30.55zm.703-32.521l26.722 15.486v-30.972l-26.722 15.486zm-2.812 32.521v-30.972l-26.722 15.486 26.722 15.486zm2.109-34.633l26.441-15.345-26.441-15.346v30.691zm.703-32.662l26.722 15.486v-30.972L652.95 662.27zm-2.812 32.662v-30.973l-26.863 15.487 26.863 15.486zm2.109-34.633l26.581-15.346-26.581-15.345v30.691zm.703-32.803l26.722 15.486v-30.973l-26.722 15.487zm-2.812 32.521v-30.973l-26.863 15.487 26.863 15.486zm2.109-34.633l26.581-15.346-26.581-15.345v30.691zm.703-32.803l26.722 15.486v-30.972l-26.722 15.486zm-2.812 32.662v-30.972l-26.722 15.486 26.722 15.486zm31.784-502.182l26.441-15.346-26.441-15.346v30.692zm.704-32.663l26.721 15.487V74.912l-26.721 15.486zm-.704-2.111l26.441-15.346-26.441-15.346v30.692zm0-34.634l26.582-15.345-26.582-15.346v30.691zm0-34.914l26.582-15.346-26.582-15.346v30.691zm0-34.775l26.441-15.204-26.441-15.205v30.41zm0 173.308l26.16-15.064-26.16-15.065v30.129zm.704-32.24l26.721 15.486v-30.973l-26.721 15.487zm-.704 205.828l26.441-15.345-26.441-15.346v30.691zm.704-32.521l26.721 15.486v-30.973l-26.721 15.487zm-.704-2.112l26.441-15.345-26.441-15.346v30.691zm0-34.633l26.582-15.346-26.582-15.345v30.691zm0-34.915l26.582-15.346-26.582-15.345v30.691zm0-34.774l26.3-15.346-26.44-15.205.14 30.551zm0 173.307l26.16-15.064-26.16-15.064v30.128zm0 173.589l26.441-15.346-26.441-15.345v30.691zm.704-32.662l26.721 15.486v-30.973l-26.721 15.487zm-.704-1.971l26.441-15.346-26.441-15.346v30.692zm0-34.634l26.582-15.345-26.582-15.346v30.691zm0-34.915l26.582-15.345-26.582-15.346v30.691zm0-34.774l26.441-15.204-26.441-15.205v30.409zm0 173.308l26.16-15.064-26.16-15.065v30.129zm.704-32.24l26.721 15.486v-30.973l-26.721 15.487zm-.704 205.828l26.441-15.345-26.441-15.346v30.691zm.704-32.662l26.721 15.486v-30.972l-26.721 15.486zm-.704-1.971l26.441-15.346-26.441-15.345v30.691zm0-34.774l26.582-15.346-26.582-15.345v30.691zm0-100.099v30.551l26.441-15.205-26.441-15.346zm27.566-610.306v-30.972l-26.722 15.486 26.722 15.486zm0 104.182V40.138l-26.722 15.486 26.722 15.487zm0-34.774V5.364L682.766 20.85l26.722 15.487zm0-34.915v-30.973l-26.722 15.486 26.722 15.487zm0 173.448v-30.973l-26.722 15.486 26.722 15.487zm-.141 176.967l-26.721 15.487 26.721 15.486v-30.973zm.141-72.786v-30.973l-26.722 15.487 26.722 15.486zm0-34.774v-30.973l-26.722 15.487 26.722 15.486zm0-34.915v-30.973l-26.722 15.487 26.722 15.486zm0 277.63v-30.973l-26.722 15.486 26.722 15.487zm0-34.774v-30.973l-26.722 15.486 26.722 15.487zm0-34.915V386.33l-26.722 15.486 26.722 15.487zm0 173.307v-30.973l-26.722 15.487 26.722 15.486zm0 173.73v-30.973l-26.722 15.486 26.722 15.487zm0-69.408v-30.973l-26.722 15.487 26.722 15.486zm0-34.915v-30.973l-26.722 15.487 26.722 15.486zm0-34.774v-30.972l-26.722 15.486 26.722 15.486zm-146.267-13.374v30.691l26.581-15.346-26.581-15.345zm29.676-501.901v30.269l26.159-15.065-26.159-15.204zM474.195-29.129V1.563l26.582-15.346-26.582-15.346zm0 34.915v30.691l26.582-15.345-26.582-15.346zm0 34.774v30.55l26.441-15.345-26.441-15.205zm0 34.634v30.55l26.441-15.346-26.441-15.204zm0 34.774v30.269l26.16-15.065-26.16-15.204zm0 34.211v30.55l26.441-15.205-26.441-15.345zm0 34.633v30.691l26.582-15.346-26.582-15.345zm0 34.915v30.691l26.582-15.346-26.582-15.345zm0 34.774v30.55l26.441-15.205-26.441-15.345zm0 34.633v30.551l26.441-15.346-26.441-15.205zm0 34.774v30.128l26.16-15.064-26.16-15.064zm-2.109 30.551v-30.973l-26.722 15.486 26.722 15.487zm2.109 3.66v30.551l26.441-15.205-26.441-15.346zm0 34.633v30.692l26.582-15.346-26.582-15.346zm0 34.774v30.692l26.582-15.205-26.582-15.487zm0 34.915v30.551l26.441-15.346-26.441-15.205zm0 34.634v30.55l26.441-15.346-26.441-15.204zm0 34.774v30.269l26.16-15.065-26.16-15.204zm0 34.211v30.55l26.441-15.205-26.441-15.345zm0 34.633v30.691l26.582-15.346-26.582-15.345zm0 34.774v30.691l26.582-15.345-26.582-15.346zm0 34.915v30.55l26.441-15.345-26.441-15.205zm0 34.633v30.55l26.441-15.204-26.441-15.346zM619.337 90.539l-26.44-15.345v30.55l26.44-15.205zm1.125 32.803V92.369l-26.722 15.487 26.722 15.486zm-1.125-67.436l-26.44-15.346v30.55l26.44-15.204zm1.125 32.803V57.736L593.74 73.223l26.722 15.486zm-.984-67.577L592.897 5.786v30.691l26.581-15.345zm.984 32.944V23.103L593.74 38.589l26.722 15.487zm-.984-67.859l-26.581-15.346V1.563l26.581-15.346zm.984 32.944v-30.973L593.74 3.674l26.722 15.487zm0-34.774v-30.973L593.74-31.1l26.722 15.487zm-27.565 159.792v30.55l26.44-15.205-26.44-15.345zm27.565 13.515v-30.973l-26.722 15.487 26.722 15.486zm-27.565 160.214v30.128l26.159-15.064-26.159-15.064zm27.565 16.754l-26.722 15.486 26.722 15.486v-30.972zm-1.125-36.182l-26.44-15.346v30.551l26.44-15.205zm1.125 32.803V300.31l-26.722 15.486 26.722 15.487zm-1.125-67.437l-26.44-15.345v30.55l26.44-15.205zm1.125 32.803v-30.972l-26.722 15.486 26.722 15.486zm-.984-67.577l-26.581-15.345v30.691l26.581-15.346zm.984 32.803v-30.972l-26.722 15.486 26.722 15.486zm-.984-67.718l-26.581-15.345v30.691l26.581-15.346zm.984 32.944v-30.973l-26.722 15.487 26.722 15.486zm0-34.915v-30.972L593.74 176.7l26.722 15.486zm-27.565 159.933v30.551l26.44-15.205-26.44-15.346zm-2.11-3.66v-30.973l-26.722 15.486 26.722 15.487zm2.11 177.39v30.269l26.159-15.065-26.159-15.204zm26.44-19.429l-26.44-15.345v30.55l26.44-15.205zm1.125 32.803V508.25l-26.722 15.487 26.722 15.486zm-1.125-67.577l-26.44-15.346v30.551l26.44-15.205zm1.125 32.944v-30.973l-26.722 15.487 26.722 15.486zm-.984-67.577l-26.581-15.346v30.691l26.581-15.345zm.984 32.803v-30.973l-26.722 15.486 26.722 15.487zm-.984-67.718l-26.581-15.346v30.692l26.581-15.346zm.984 32.944v-30.973l-26.722 15.486 26.722 15.487zm0-34.915v-30.973l-26.722 15.487 26.722 15.486zM592.897 560.06v30.55l26.44-15.205-26.44-15.345zm27.565 13.515v-30.973l-26.722 15.487 26.722 15.486zm-1.125 140.786l-26.44-15.346v30.55l26.44-15.204zm1.125 32.803v-30.973l-26.722 15.486 26.722 15.487zm-1.125-67.577l-26.44-15.346v30.55l26.44-15.204zm1.125 32.943v-30.972l-26.722 15.486 26.722 15.486zm-.984-67.717l-26.581-15.346v30.691l26.581-15.345zm.984 32.943v-30.972L593.74 662.27l26.722 15.486zm-.984-67.718l-26.581-15.345v30.691l26.581-15.346zm.984 32.944v-30.973l-26.722 15.487 26.722 15.486zm0-34.915v-30.972l-26.722 15.486 26.722 15.486zM503.871 123.061l26.44-15.346-26.44-15.346v30.692zm-2.11.281V92.369l-26.722 15.487 26.722 15.486zm2.813-32.944l26.722 15.487V74.912l-26.722 15.486zm-.703-2.111l26.44-15.346-26.44-15.346v30.692zm-2.11.422V57.736l-26.722 15.487 26.722 15.486zm2.11-35.056l26.581-15.345-26.581-15.346v30.691zm-2.11.423V23.103l-26.722 15.486 26.722 15.487zm2.11-35.337l26.581-15.346-26.581-15.346v30.691zm-2.11.422v-30.973L475.039 3.674l26.722 15.487zm2.11-35.197l26.44-15.204-26.3-15.205-.14 30.41zm-2.11.423v-30.973L475.039-31.1l26.722 15.487zm2.11 172.885l26.159-15.064-26.159-15.065v30.129zm.703-32.24l26.722 15.486v-30.973l-26.722 15.487zm-2.813 32.662v-30.973l-26.722 15.487 26.722 15.486zm2.11 173.166l26.44-15.345-26.44-15.346v30.691zm-2.11.423V300.31l-26.722 15.486 26.722 15.487zm2.813-32.944l26.722 15.486v-30.973l-26.722 15.487zm-.703-2.112l26.44-15.345-26.44-15.346v30.691zm-2.11.422v-30.972l-26.722 15.486 26.722 15.486zm2.11-35.055l26.581-15.346-26.581-15.345v30.691zm-2.11.281v-30.972l-26.722 15.486 26.722 15.486zm2.11-35.196l26.581-15.346-26.581-15.345v30.691zm-2.11.422v-30.973l-26.722 15.487 26.722 15.486zm2.11-35.196l26.3-15.346-26.3-15.205v30.551zm-2.11.281v-30.972L475.039 176.7l26.722 15.486zm2.11 173.026l26.159-15.064-26.159-15.064v30.128zm.703-32.24l26.722 15.487v-30.973l-26.722 15.486zm-2.813 32.662v-30.972l-26.722 15.486 26.722 15.486zm2.11 173.167l26.44-15.346-26.44-15.345v30.691zm-2.11.422V508.25l-26.722 15.487 26.722 15.486zm2.813-33.084l26.722 15.486v-30.973l-26.722 15.487zm-.703-1.971l26.44-15.346-26.44-15.346v30.692zm-2.11.422v-30.973l-26.722 15.487 26.722 15.486zm2.11-35.056l26.581-15.345-26.581-15.346v30.691zm-2.11.282v-30.973l-26.722 15.486 26.722 15.487zm2.11-35.197l26.581-15.345-26.581-15.346v30.691zm-2.11.423v-30.973l-26.722 15.486 26.722 15.487zm2.11-35.197l26.44-15.204-26.3-15.205-.14 30.409zm-2.11.282v-30.973l-26.722 15.487 26.722 15.486zm2.11 173.026l26.159-15.064-26.159-15.065v30.129zm.703-32.24l26.722 15.486v-30.973l-26.722 15.487zm-2.813 32.662v-30.973l-26.722 15.487 26.722 15.486zm2.11 173.166l26.44-15.345-26.44-15.346v30.691zm-2.11.423v-30.973l-26.722 15.486 26.722 15.487zm2.813-33.085l26.722 15.486v-30.972l-26.722 15.486zm-.703-1.971l26.44-15.346-26.44-15.345v30.691zm-2.11.422v-30.972l-26.722 15.486 26.722 15.486zm2.11-35.196l26.581-15.346-26.581-15.345v30.691zm-2.11.422v-30.972l-26.722 15.486 26.722 15.486zm2.11-35.196l26.581-15.346-26.581-15.345v30.691zm-2.11.422v-30.973l-26.722 15.487 26.722 15.486zm2.11-35.337l26.44-15.205-26.3-15.205-.14 30.41zm-2.11.422v-30.972l-26.722 15.486 26.722 15.486zm29.675-641.138v-30.972l-26.721 15.486 26.721 15.486zm2.11 173.167l26.159-15.064-26.159-15.064v30.128zm.703-32.24l26.863 15.486V92.369l-26.863 15.487zm-.703-1.971l26.441-15.346-26.441-15.345v30.691zm.703-32.662l26.722 15.486V57.736l-26.722 15.487zm-.703-2.112l26.441-15.346-26.441-15.346v30.692zm.703-32.522l26.863 15.487V23.103l-26.863 15.486zm-2.813 32.522V40.138l-26.862 15.486 26.862 15.487zm2.11-34.634l26.581-15.345-26.581-15.346v30.691zm.703-32.803l26.722 15.487v-30.973L534.249 3.674zm-2.813 32.663V5.364L504.574 20.85l26.862 15.487zm2.11-34.634l26.581-15.345-26.581-15.346V1.703zm.703-32.803l26.722 15.487v-30.973L534.249-31.1zm-2.813 32.522v-30.973l-26.721 15.486 26.721 15.487zm2.11 173.307l26.441-15.205-26.3-15.205-.141 30.41zm.703-32.521l26.722 15.486v-30.973l-26.722 15.487zm-2.813 32.662v-30.973l-26.721 15.486 26.721 15.487zm0 176.967l-26.721 15.487 26.721 15.486v-30.973zm2.11-3.801l26.159-15.064-26.159-15.064v30.128zm.703-32.24l26.863 15.487V300.31l-26.863 15.486zm-.703-1.971l26.441-15.345-26.441-15.346v30.691zm.703-32.662l26.722 15.486v-30.972l-26.722 15.486zm-.703-2.112l26.441-15.205-26.441-15.345v30.55zm.703-32.662l26.863 15.486v-30.972l-26.863 15.486zm-2.813 32.662v-30.973l-26.862 15.487 26.862 15.486zm2.11-34.633l26.581-15.346-26.581-15.345v30.691zm.703-32.803l26.722 15.486v-30.973l-26.722 15.487zm-2.813 32.662v-30.973l-26.862 15.487 26.862 15.486zm2.11-34.774l26.581-15.346-26.581-15.345v30.691zm.703-32.803l26.722 15.486v-30.972L534.249 176.7zm-2.813 32.662v-30.973l-26.721 15.487 26.721 15.486zm2.11 173.308l26.441-15.205-26.3-15.205-.141 30.41zm.703-32.522l26.722 15.486v-30.972l-26.722 15.486zm-.703 205.829l26.159-15.064-26.159-15.064v30.128zm.703-32.24l26.863 15.486V508.25l-26.863 15.487zm-.703-2.112l26.441-15.346-26.441-15.345v30.691zm.703-32.521l26.722 15.486v-30.973l-26.722 15.487zm-.703-2.112l26.441-15.346-26.441-15.346v30.692zm.703-32.663l26.863 15.487v-30.973l-26.863 15.486zm-2.813 32.663v-30.973l-26.862 15.486 26.862 15.487zm2.11-34.634l26.581-15.345-26.581-15.346v30.691zm.703-32.803l26.722 15.487v-30.973l-26.722 15.486zm-2.813 32.663v-30.973l-26.862 15.486 26.862 15.487zm2.11-34.774l26.581-15.346-26.581-15.346v30.692zm.703-32.803l26.722 15.486v-30.973l-26.722 15.487zm-2.813 32.662V386.33l-26.721 15.486 26.721 15.487zm2.11 173.307l26.441-15.205-26.3-15.205-.141 30.41zm.703-32.521l26.722 15.486v-30.973l-26.722 15.487zm-2.813 32.521v-30.973l-26.721 15.487 26.721 15.486zm2.813 141.067l26.863 15.487v-30.973l-26.863 15.486zm-2.813 32.663v-30.973l-26.862 15.486 26.862 15.487zm2.11-34.775l26.441-15.204-26.441-15.346v30.55zm.703-32.521l26.722 15.486v-30.972l-26.722 15.486zm-.703-2.112l26.441-15.345-26.441-15.346v30.691zm.703-32.662l26.863 15.486v-30.972l-26.863 15.486zm-2.813 32.662v-30.973l-26.862 15.487 26.862 15.486zm2.11-34.633l26.581-15.346-26.581-15.345v30.691zm.703-32.803l26.722 15.486v-30.973l-26.722 15.487zm-2.813 32.521v-30.973l-26.862 15.487 26.862 15.486zm2.11-34.633l26.581-15.346-26.581-15.345v30.691zm.703-32.803l26.722 15.486v-30.972l-26.722 15.486zm-2.813 32.662v-30.972l-26.721 15.486 26.721 15.486zm31.785-502.182l26.441-15.346-26.441-15.346v30.692zm.704-32.663l26.721 15.487V74.912l-26.721 15.486zm-.704-2.111l26.441-15.346-26.441-15.205v30.55zm0-34.634l26.581-15.345-26.581-15.487v30.832zm0-34.914l26.581-15.346-26.581-15.346v30.691zm0-34.775l26.441-15.204-26.441-15.346v30.55zm0 173.308l26.16-15.064-26.16-15.065v30.129zm.704-32.24l26.721 15.486v-30.973l-26.721 15.487zm-.704 205.828l26.441-15.345-26.441-15.346v30.691zm.704-32.521l26.721 15.486v-30.973l-26.721 15.487zm-.704-2.112l26.441-15.345-26.441-15.346v30.691zm0-34.633l26.581-15.346-26.581-15.345v30.691zm0-34.915l26.581-15.346-26.581-15.345v30.691zm0-34.774l26.3-15.346-26.44-15.205.14 30.551zm0 173.307l26.16-15.064-26.16-15.064v30.128zm0 173.589l26.441-15.346-26.441-15.345v30.691zm.704-32.662l26.721 15.486v-30.973l-26.721 15.487zm-.704-1.971l26.441-15.346-26.441-15.205v30.551zm0-34.634l26.581-15.345-26.581-15.346v30.691zm0-34.915l26.581-15.345-26.581-15.346v30.691zm0-34.774l26.441-15.204-26.441-15.205v30.409zm0 173.308l26.16-15.064-26.16-15.065v30.129zm.704-32.24l26.721 15.486v-30.973l-26.721 15.487zm-.704 205.828l26.441-15.345-26.441-15.346v30.691zm.704-32.662l26.721 15.486v-30.972l-26.721 15.486zm-.704-1.971l26.441-15.346-26.441-15.345v30.691zm0-34.774l26.581-15.346-26.581-15.345v30.691zm0-100.099v30.551l26.441-15.205-26.441-15.346zm27.566-610.306v-30.972l-26.722 15.486 26.722 15.486zm0 104.182V40.138l-26.862 15.486 26.862 15.487zm0-34.774V5.364L563.925 20.85l26.862 15.487zm0-34.915v-30.973l-26.722 15.486 26.722 15.487zm0 173.448v-30.973l-26.722 15.486 26.722 15.487zm0 176.967l-26.722 15.487 26.722 15.486v-30.973zm0-72.786v-30.973l-26.862 15.487 26.862 15.486zm0-34.774v-30.973l-26.862 15.487 26.862 15.486zm0-34.915v-30.973l-26.722 15.487 26.722 15.486zm0 277.63v-30.973l-26.862 15.486 26.862 15.487zm0-34.774v-30.973l-26.862 15.486 26.862 15.487zm0-34.915V386.33l-26.722 15.486 26.722 15.487zm0 173.307v-30.973l-26.722 15.487 26.722 15.486zm0 173.73v-30.973l-26.862 15.486 26.862 15.487zm0-69.408v-30.973l-26.862 15.487 26.862 15.486zm0-34.915v-30.973l-26.862 15.487 26.862 15.486zm0-34.774v-30.972l-26.722 15.486 26.722 15.486zm-264.968-13.374v30.691l26.581-15.346-26.581-15.345zm29.675-501.901v30.269l26.16-15.065-26.16-15.204zm29.676 13.093l26.44-15.346-26.44-15.346v30.692zm-3.235-32.522l-26.441-15.345v30.55l26.441-15.205zm1.125 32.803V92.369l-26.722 15.487 26.722 15.486zm2.813-32.944l26.722 15.487V74.912l-26.722 15.486zm-.703-2.111l26.44-15.346-26.44-15.346v30.692zm-3.235-32.381L355.494 40.56v30.55l26.441-15.204zm1.125 32.803V57.736l-26.722 15.487 26.722 15.486zm2.11-35.056l26.581-15.345-26.581-15.346v30.691zm-3.094-32.521L355.494 5.786v30.691l26.582-15.345zm.984 32.944V23.103l-26.722 15.486 26.722 15.487zm2.11-35.337l26.581-15.346-26.581-15.346v30.691zm-3.094-32.522l-26.582-15.346V1.563l26.582-15.346zm.984 32.944v-30.973L356.338 3.674l26.722 15.487zm2.11-35.197l26.44-15.204-26.44-15.205v30.41zm-89.026-13.093V1.563l26.581-15.346-26.581-15.346zm0 34.915v30.691l26.581-15.345-26.581-15.346zm0 34.774v30.55l26.44-15.345-26.44-15.205zm0 34.634v30.55l26.44-15.346-26.44-15.204zm0 34.774v30.269l26.159-15.065-26.159-15.204zm0 34.211v30.55l26.44-15.205-26.44-15.345zm0 34.633v30.691l26.581-15.346-26.581-15.345zm0 34.915v30.691l26.581-15.346-26.581-15.345zm0 34.774v30.55l26.44-15.205-26.44-15.345zm0 34.633v30.551l26.44-15.346-26.44-15.205zm0 34.774v30.128l26.159-15.064-26.159-15.064zm-2.11 30.551v-30.973l-26.722 15.486 26.722 15.487zm2.11 3.66v30.551l26.44-15.205-26.44-15.346zm0 34.633v30.692l26.581-15.346-26.581-15.346zm0 34.774v30.692l26.581-15.205-26.581-15.487zm0 34.915v30.551l26.44-15.346-26.44-15.205zm0 34.634v30.55l26.44-15.346-26.44-15.204zm0 34.774v30.269l26.159-15.065-26.159-15.204zm0 34.211v30.55l26.44-15.205-26.44-15.345zm0 34.633v30.691l26.581-15.346-26.581-15.345zm0 34.774v30.691l26.581-15.345-26.581-15.346zm0 34.915v30.55l26.44-15.345-26.44-15.205zm0 34.633v30.55l26.44-15.204-26.44-15.346zM383.06-15.613v-30.973L356.198-31.1l26.862 15.487zm-27.566 159.792v30.55l26.441-15.205-26.441-15.345zm29.676 13.093l26.159-15.064-26.159-15.065v30.129zm.703-32.24l26.722 15.486v-30.973l-26.722 15.487zm-2.813 32.662v-30.973l-26.862 15.487 26.862 15.486zm-27.566 160.214v30.128l26.16-15.064-26.16-15.064zm29.676 12.952l26.44-15.345-26.44-15.346v30.691zm-3.235-32.38l-26.441-15.346v30.551l26.441-15.205zm1.125 32.803V300.31l-26.722 15.486 26.722 15.487zm2.813-32.944l26.722 15.486v-30.973l-26.722 15.487zm-.703-2.112l26.44-15.345-26.44-15.346v30.691zm-3.235-32.381l-26.441-15.345v30.55l26.441-15.205zm1.125 32.803v-30.972l-26.722 15.486 26.722 15.486zm2.11-35.055l26.581-15.346-26.581-15.345v30.691zm-3.094-32.522l-26.582-15.345v30.691l26.582-15.346zm.984 32.803v-30.972l-26.722 15.486 26.722 15.486zm2.11-35.196l26.581-15.346-26.581-15.345v30.691zm-3.094-32.522l-26.582-15.345v30.691l26.582-15.346zm.984 32.944v-30.973l-26.722 15.487 26.722 15.486zm2.11-35.196l26.44-15.346-26.44-15.205v30.551zm-2.11.281v-30.972L356.198 176.7l26.862 15.486zm-27.566 159.933v30.551l26.441-15.205-26.441-15.346zm29.676 13.093l26.159-15.064-26.159-15.064v30.128zm.703-32.24l26.722 15.487v-30.973l-26.722 15.486zm-32.488 15.487v-30.973l-26.722 15.486 26.722 15.487zm29.675 17.175v-30.972l-26.722 15.486 26.722 15.486zm-27.566 160.215v30.269l26.16-15.065-26.16-15.204zm29.676 12.952l26.44-15.346-26.44-15.345v30.691zm-3.235-32.381l-26.441-15.345v30.55l26.441-15.205zm1.125 32.803V508.25l-26.722 15.487 26.722 15.486zm2.813-33.084l26.722 15.486v-30.973l-26.722 15.487zm-.703-1.971l26.44-15.346-26.44-15.346v30.692zm-3.235-32.522L355.494 456.3v30.551l26.441-15.205zm1.125 32.944v-30.973l-26.722 15.487 26.722 15.486zm2.11-35.056l26.581-15.345-26.581-15.346v30.691zm-3.094-32.521l-26.582-15.346v30.691l26.582-15.345zm.984 32.803v-30.973l-26.722 15.486 26.722 15.487zm2.11-35.197l26.581-15.345-26.581-15.346v30.691zm-3.094-32.521l-26.582-15.346v30.692l26.582-15.346zm.984 32.944v-30.973l-26.722 15.486 26.722 15.487zm2.11-35.197l26.44-15.204-26.44-15.205v30.409zm-2.11.282v-30.973l-26.862 15.487 26.862 15.486zM355.494 560.06v30.55l26.441-15.205-26.441-15.345zm29.676 13.093l26.159-15.064-26.159-15.065v30.129zm.703-32.24l26.722 15.486v-30.973l-26.722 15.487zm-2.813 32.662v-30.973l-26.862 15.487 26.862 15.486zm2.11 173.166l26.44-15.345-26.44-15.346v30.691zm-3.235-32.38l-26.441-15.346v30.55l26.441-15.204zm1.125 32.803v-30.973l-26.722 15.486 26.722 15.487zm2.813-33.085l26.722 15.486v-30.972l-26.722 15.486zm-.703-1.971l26.44-15.346-26.44-15.345v30.691zm-3.235-32.521l-26.441-15.346v30.55l26.441-15.204zm1.125 32.943v-30.972l-26.722 15.486 26.722 15.486zm2.11-35.196l26.581-15.346-26.581-15.345v30.691zm-3.094-32.521l-26.582-15.346v30.691l26.582-15.345zm.984 32.943v-30.972l-26.722 15.486 26.722 15.486zm2.11-35.196l26.581-15.346-26.581-15.345v30.691zm-3.094-32.522l-26.582-15.345v30.691l26.582-15.346zm.984 32.944v-30.973l-26.722 15.487 26.722 15.486zm2.11-35.337l26.44-15.205-26.44-15.205v30.41zm-2.11.422v-30.972l-26.862 15.486 26.862 15.486zm29.675-641.138v-30.972l-26.722 15.486 26.722 15.486zm2.11 173.167l26.159-15.064-26.159-15.064v30.128zm.703-32.24l26.722 15.486V92.369l-26.722 15.487zm-.703-1.971l26.44-15.346-26.44-15.345v30.691zm.703-32.662l26.722 15.486V57.736l-26.722 15.487zm-.703-2.112l26.44-15.346-26.44-15.346v30.692zm.703-32.522l26.722 15.487V23.103l-26.722 15.486zm-2.813 32.522V40.138l-26.862 15.486 26.862 15.487zm2.11-34.634l26.581-15.345-26.581-15.346v30.691zm.703-32.803l26.722 15.487v-30.973L415.548 3.674zm-2.813 32.663V5.364L385.873 20.85l26.862 15.487zm2.11-34.634l26.581-15.345-26.581-15.346V1.703zm.703-32.803l26.722 15.487v-30.973L415.548-31.1zm-2.813 32.522v-30.973l-26.722 15.486 26.722 15.487zm2.11 173.307l26.44-15.205-26.299-15.205-.141 30.41zm.703-32.521l26.722 15.486v-30.973l-26.722 15.487zm-2.813 32.662v-30.973l-26.722 15.486 26.722 15.487zm0 176.967l-26.722 15.487 26.722 15.486v-30.973zm2.11-3.801l26.159-15.064-26.159-15.064v30.128zm.703-32.24l26.722 15.487V300.31l-26.722 15.486zm-.703-1.971l26.44-15.345-26.44-15.346v30.691zm.703-32.662l26.722 15.486v-30.972l-26.722 15.486zm-.703-2.112l26.44-15.205-26.44-15.345v30.55zm.703-32.662l26.722 15.486v-30.972l-26.722 15.486zm-2.813 32.662v-30.973l-26.862 15.487 26.862 15.486zm2.11-34.633l26.581-15.346-26.581-15.345v30.691zm.703-32.803l26.722 15.486v-30.973l-26.722 15.487zm-2.813 32.662v-30.973l-26.862 15.487 26.862 15.486zm2.11-34.774l26.581-15.346-26.581-15.345v30.691zm.703-32.803l26.722 15.486v-30.972L415.548 176.7zm-2.813 32.662v-30.973l-26.722 15.487 26.722 15.486zm2.11 173.308l26.44-15.205-26.299-15.205-.141 30.41zm.703-32.522l26.722 15.486v-30.972l-26.722 15.486zm-.703 205.829l26.159-15.064-26.159-15.064v30.128zm.703-32.24l26.722 15.486V508.25l-26.722 15.487zm-.703-2.112l26.44-15.346-26.44-15.345v30.691zm.703-32.521l26.722 15.486v-30.973l-26.722 15.487zm-.703-2.112l26.44-15.346-26.44-15.346v30.692zm.703-32.663l26.722 15.487v-30.973l-26.722 15.486zm-2.813 32.663v-30.973l-26.862 15.486 26.862 15.487zm2.11-34.634l26.581-15.345-26.581-15.346v30.691zm.703-32.803l26.722 15.487v-30.973l-26.722 15.486zm-2.813 32.663v-30.973l-26.862 15.486 26.862 15.487zm2.11-34.774l26.581-15.346-26.581-15.346v30.692zm.703-32.803l26.722 15.486v-30.973l-26.722 15.487zm-2.813 32.662V386.33l-26.722 15.486 26.722 15.487zm2.11 173.307l26.44-15.205-26.299-15.205-.141 30.41zm.703-32.521l26.722 15.486v-30.973l-26.722 15.487zm-2.813 32.521v-30.973l-26.722 15.487 26.722 15.486zm2.813 141.067l26.722 15.487v-30.973l-26.722 15.486zm-2.813 32.663v-30.973l-26.862 15.486 26.862 15.487zm2.11-34.775l26.44-15.204-26.44-15.346v30.55zm.703-32.521l26.722 15.486v-30.972l-26.722 15.486zm-.703-2.112l26.44-15.345-26.44-15.346v30.691zm.703-32.662l26.722 15.486v-30.972l-26.722 15.486zm-2.813 32.662v-30.973l-26.862 15.487 26.862 15.486zm2.11-34.633l26.581-15.346-26.581-15.345v30.691zm.703-32.803l26.722 15.486v-30.973l-26.722 15.487zm-2.813 32.521v-30.973l-26.862 15.487 26.862 15.486zm2.11-34.633l26.581-15.346-26.581-15.345v30.691zm.703-32.803l26.722 15.486v-30.972l-26.722 15.486zm-2.813 32.662v-30.972l-26.722 15.486 26.722 15.486zm31.785-502.182l26.441-15.346-26.441-15.346v30.692zm.703-32.663l26.722 15.487V74.912l-26.722 15.486zm-.703-2.111l26.441-15.346-26.441-15.346v30.692zm0-34.634l26.581-15.345-26.581-15.346v30.691zm0-34.914l26.581-15.346-26.581-15.346v30.691zm0-34.775l26.441-15.204-26.441-15.205v30.41zm0 173.308l26.159-15.064-26.159-15.065v30.129zm.703-32.24l26.722 15.486v-30.973l-26.722 15.487zm-.703 205.828l26.441-15.345-26.441-15.346v30.691zm.703-32.521l26.722 15.486v-30.973l-26.722 15.487zm-.703-2.112l26.441-15.345-26.441-15.346v30.691zm0-34.633l26.581-15.346-26.581-15.345v30.691zm0-34.915l26.581-15.346-26.581-15.345v30.691zm0-34.774l26.441-15.346-26.441-15.205v30.551zm0 173.307l26.159-15.064-26.159-15.064v30.128zm0 173.589l26.441-15.346-26.441-15.345v30.691zm.703-32.662l26.722 15.486v-30.973l-26.722 15.487zm-.703-1.971l26.441-15.346-26.441-15.346v30.692zm0-34.634l26.581-15.345-26.581-15.346v30.691zm0-34.915l26.581-15.345-26.581-15.346v30.691zm0-34.774l26.441-15.204-26.441-15.205v30.409zm0 173.308l26.159-15.064-26.159-15.065v30.129zm.703-32.24l26.722 15.486v-30.973l-26.722 15.487zm-.703 205.828l26.441-15.345-26.441-15.346v30.691zm.703-32.662l26.722 15.486v-30.972l-26.722 15.486zm-.703-1.971l26.441-15.346-26.441-15.345v30.691zm0-34.774l26.581-15.346-26.581-15.345v30.691zm0-34.774l26.581-15.346-26.581-15.345v30.691zm0-34.915l26.441-15.205-26.441-15.205v30.41zm27.566-640.716v-30.972l-26.863 15.486 26.863 15.486zm0 104.182V40.138l-26.863 15.486 26.863 15.487zm0-34.774V5.364L445.223 20.85l26.863 15.487zm0-34.915v-30.973l-26.863 15.486 26.863 15.487zm0 173.448v-30.973l-26.863 15.486 26.863 15.487zm0 176.967l-26.722 15.487 26.863 15.486-.141-30.973zm0-72.786v-30.973l-26.863 15.487 26.863 15.486zm0-34.774v-30.973l-26.863 15.487 26.863 15.486zm0-34.915v-30.973l-26.863 15.487 26.863 15.486zm0 277.63v-30.973l-26.863 15.486 26.863 15.487zm0-34.774v-30.973l-26.863 15.486 26.863 15.487zm0-34.915V386.33l-26.863 15.486 26.863 15.487zm0 173.307v-30.973l-26.863 15.487 26.863 15.486zm0 173.73v-30.973l-26.863 15.486 26.863 15.487zm0-69.408v-30.973l-26.863 15.487 26.863 15.486zm0-34.915v-30.973l-26.863 15.487 26.863 15.486zm0-34.774v-30.972l-26.863 15.486 26.863 15.486zM325.819 123.061l26.441-15.346-26.441-15.346v30.692zm-2.11.281V92.369l-26.721 15.487 26.721 15.486zm2.813-32.944l26.722 15.487V74.912l-26.722 15.486zm-.703-2.111l26.441-15.205-26.441-15.346v30.55zm-2.11.422V57.736l-26.721 15.487 26.721 15.486zm2.11-35.056L352.4 38.308l-26.581-15.346v30.691zm-2.11.423V23.103l-26.721 15.486 26.721 15.487zm2.11-35.337L352.4 3.393l-26.581-15.346v30.691zm-2.11.422v-30.973L296.988 3.674l26.721 15.487zm2.11-35.197L352.26-31.24l-26.441-15.205v30.41zm-2.11.423v-30.973L296.988-31.1l26.721 15.487zm2.11 172.885l26.159-15.064-26.159-15.065v30.129zm.703-32.24l26.722 15.486v-30.973l-26.722 15.487zm-2.813 32.662v-30.973l-26.721 15.487 26.721 15.486zm2.11 173.166l26.441-15.204-26.441-15.346v30.55zm-2.11.423V300.31l-26.721 15.486 26.721 15.487zm2.813-32.944l26.722 15.486v-30.973l-26.722 15.487zm-.703-2.112l26.441-15.345-26.441-15.346v30.691zm-2.11.422v-30.972l-26.721 15.486 26.721 15.486zm2.11-35.055l26.581-15.346-26.581-15.345v30.691zm-2.11.281v-30.972l-26.721 15.486 26.721 15.486zm2.11-35.196l26.581-15.346-26.581-15.345v30.691zm-2.11.422v-30.973l-26.721 15.487 26.721 15.486zm2.11-35.196l26.441-15.346-26.441-15.205v30.551zm-2.11.281v-30.972L296.988 176.7l26.721 15.486zm2.11 173.026l26.159-15.064-26.159-15.064v30.128zm-2.11.422v-30.972l-26.721 15.486 26.721 15.486zm2.11 173.167l26.441-15.205-26.441-15.346v30.551zm-2.11.422V508.25l-26.721 15.487 26.721 15.486zm2.813-33.084l26.722 15.486v-30.973l-26.722 15.487zm-.703-1.971l26.441-15.346-26.441-15.346v30.692zm-2.11.422v-30.973l-26.721 15.487 26.721 15.486zm2.11-35.056l26.581-15.345-26.581-15.346v30.691zm-2.11.282v-30.973l-26.721 15.486 26.721 15.487zm2.11-35.197l26.581-15.345-26.581-15.346v30.691zm-2.11.423v-30.973l-26.721 15.486 26.721 15.487zm2.11-35.197L352.26 384.5l-26.441-15.205v30.55zm-2.11.282v-30.973l-26.721 15.487 26.721 15.486zm2.11 173.026l26.159-15.064-26.159-15.065v30.129zm.703-32.24l26.722 15.486v-30.973l-26.722 15.487zm-2.813 32.662v-30.973l-26.721 15.487 26.721 15.486zm2.11 173.166l26.441-15.345-26.441-15.346v30.691zm-2.11.423v-30.973l-26.721 15.486 26.721 15.487zm2.813-33.085l26.722 15.486v-30.972l-26.722 15.486zm-.703-1.971l26.441-15.346-26.441-15.345v30.691zm-2.11.422v-30.972l-26.721 15.486 26.721 15.486zm2.11-35.196l26.581-15.346-26.581-15.345v30.691zm-2.11.422v-30.972l-26.721 15.486 26.721 15.486zm0-34.774v-30.973l-26.721 15.487 26.721 15.486zm2.11-65.747v30.551l26.441-15.346-26.441-15.205zm-2.11 30.832v-30.972l-26.721 15.486 26.721 15.486zm29.676-641.138v-30.972l-26.722 15.486 26.722 15.486zm0 104.182V40.138l-26.863 15.486 26.863 15.487zm0-34.774V5.364L326.522 20.85l26.863 15.487zm0-34.915v-30.973l-26.722 15.486 26.722 15.487zm0 173.448v-30.973l-26.722 15.486 26.722 15.487zm0 176.967l-26.722 15.487 26.722 15.486v-30.973zm0-72.786v-30.973l-26.863 15.487 26.863 15.486zm0-34.774v-30.973l-26.863 15.487 26.863 15.486zm0-34.915v-30.973l-26.722 15.487 26.722 15.486zm0 277.63v-30.973l-26.863 15.486 26.863 15.487zm0-34.774v-30.973l-26.863 15.486 26.863 15.487zm0-34.915V386.33l-26.722 15.486 26.722 15.487zm0 173.307v-30.973l-26.722 15.487 26.722 15.486zm0 173.73v-30.973l-26.863 15.486 26.863 15.487zm0-69.408v-30.973l-26.863 15.487 26.863 15.486zm0-34.915v-30.973l-26.863 15.487 26.863 15.486zm0-34.774v-30.972l-26.722 15.486 26.722 15.486zm-146.267-13.374v30.691l26.581-15.346-26.581-15.345zm29.675-501.901v30.269l26.159-15.065-26.159-15.204zm29.676 13.093l26.44-15.346-26.44-15.346v30.692zm-3.235-32.522l-26.441-15.345v30.55l26.441-15.205zm1.125 32.803V92.369l-26.722 15.487 26.722 15.486zm2.813-32.944l26.722 15.487V74.912l-26.722 15.486zm-.703-2.111l26.44-15.346-26.44-15.205v30.55zm-3.235-32.381L236.793 40.56v30.55l26.441-15.204zm1.125 32.803V57.736l-26.722 15.487 26.722 15.486zm2.11-35.056l26.581-15.345-26.581-15.487v30.832zm-3.095-32.521L236.793 5.786v30.691l26.581-15.345zm.985 32.944V23.103l-26.722 15.486 26.722 15.487zm2.11-35.337L293.05 3.393l-26.581-15.346v30.691zm-3.095-32.522l-26.581-15.346V1.563l26.581-15.346zm.985 32.944v-30.973L237.637 3.674l26.722 15.487zm2.11-35.197l26.44-15.204-26.44-15.346v30.55zm-89.026-13.093V1.563l26.581-15.346-26.581-15.346zm0 34.915v30.691l26.581-15.345-26.581-15.346zm0 34.774v30.55l26.44-15.345-26.44-15.205zm0 34.634v30.55l26.44-15.346-26.44-15.204zm0 34.774v30.269l26.159-15.065-26.159-15.204zm0 34.211v30.55l26.44-15.205-26.44-15.345zm0 34.633v30.691l26.581-15.346-26.581-15.345zm0 34.915v30.691l26.581-15.346-26.581-15.345zm0 34.774v30.55l26.44-15.205-26.44-15.345zm0 34.633v30.551l26.44-15.346-26.44-15.205zm0 34.774v30.128l26.159-15.064-26.159-15.064zm-2.11 30.551v-30.973l-26.722 15.486 26.722 15.487zm2.11 3.66v30.551l26.44-15.205-26.44-15.346zm0 34.633v30.692l26.581-15.346-26.581-15.346zm0 34.774v30.692l26.581-15.205-26.581-15.487zm0 34.915v30.551l26.44-15.346-26.44-15.205zm0 34.634v30.55l26.44-15.346-26.44-15.204zm0 34.774v30.269l26.159-15.065-26.159-15.204zm0 34.211v30.55l26.44-15.205-26.44-15.345zm0 34.633v30.691l26.581-15.346-26.581-15.345zm0 34.774v30.691l26.581-15.345-26.581-15.346zm0 34.915v30.55l26.44-15.345-26.44-15.205zm0 34.633v30.55l26.44-15.204-26.44-15.346zm86.916-714.628v-30.973L237.637-31.1l26.722 15.487zm-27.566 159.792v30.55l26.441-15.205-26.441-15.345zm29.676 13.093l26.159-15.064-26.159-15.065v30.129zm.703-32.24l26.722 15.486v-30.973l-26.722 15.487zm-2.813 32.662v-30.973l-26.722 15.487 26.722 15.486zm-27.566 160.214v30.128l26.159-15.064-26.159-15.064zm29.676 12.952l26.44-15.345-26.44-15.346v30.691zm-3.235-32.38l-26.441-15.346v30.551l26.441-15.205zm1.125 32.803V300.31l-26.722 15.486 26.722 15.487zm2.813-32.944l26.722 15.486v-30.973l-26.722 15.487zm-.703-2.112l26.44-15.345-26.44-15.346v30.691zm-3.235-32.381l-26.441-15.345v30.55l26.441-15.205zm1.125 32.803v-30.972l-26.722 15.486 26.722 15.486zm2.11-35.055l26.581-15.346-26.581-15.345v30.691zm-3.095-32.522l-26.581-15.345v30.691l26.581-15.346zm.985 32.803v-30.972l-26.722 15.486 26.722 15.486zm2.11-35.196l26.581-15.346-26.581-15.345v30.691zm-3.095-32.522l-26.581-15.345v30.691l26.581-15.346zm.985 32.944v-30.973l-26.722 15.487 26.722 15.486zm2.11-35.196l26.44-15.346-26.44-15.205v30.551zm-2.11.281v-30.972L237.637 176.7l26.722 15.486zm-27.566 159.933v30.551l26.441-15.205-26.441-15.346zm29.676 13.093l26.159-15.064-26.159-15.064v30.128zm-31.785-16.753v-30.973l-26.722 15.486 26.722 15.487zm29.675 17.175v-30.972l-26.722 15.486 26.722 15.486zm-27.566 160.215v30.269l26.159-15.065-26.159-15.204zm29.676 12.952l26.44-15.346-26.44-15.345v30.691zm-3.235-32.381l-26.441-15.345v30.55l26.441-15.205zm1.125 32.803V508.25l-26.722 15.487 26.722 15.486zm2.813-33.084l26.722 15.486v-30.973l-26.722 15.487zm-.703-1.971l26.44-15.346-26.44-15.205v30.551zm-3.235-32.522L236.793 456.3v30.551l26.441-15.205zm1.125 32.944v-30.973l-26.722 15.487 26.722 15.486zm2.11-35.056l26.581-15.345-26.581-15.346v30.691zm-3.095-32.521l-26.581-15.346v30.691l26.581-15.345zm.985 32.803v-30.973l-26.722 15.486 26.722 15.487zm2.11-35.197l26.581-15.345-26.581-15.346v30.691zm-3.095-32.521l-26.581-15.346v30.692l26.581-15.346zm.985 32.944v-30.973l-26.722 15.486 26.722 15.487zm2.11-35.197l26.44-15.204-26.44-15.205v30.409zm-2.11.282v-30.973l-26.722 15.487 26.722 15.486zM236.793 560.06v30.55l26.441-15.205-26.441-15.345zm29.676 13.093l26.159-15.064-26.159-15.065v30.129zm.703-32.24l26.722 15.486v-30.973l-26.722 15.487zm-2.813 32.662v-30.973l-26.722 15.487 26.722 15.486zm2.11 173.166l26.44-15.345-26.44-15.346v30.691zm-3.235-32.38l-26.441-15.346v30.55l26.441-15.204zm1.125 32.803v-30.973l-26.722 15.486 26.722 15.487zm2.813-33.085l26.722 15.486v-30.972l-26.722 15.486zm-.703-1.971l26.44-15.346-26.44-15.345v30.691zm-3.235-32.521l-26.441-15.346v30.55l26.441-15.204zm1.125 32.943v-30.972l-26.722 15.486 26.722 15.486zm2.11-35.196l26.581-15.346-26.581-15.345v30.691zm-3.095-32.521l-26.581-15.346v30.691l26.581-15.345zm.985 32.943v-30.972l-26.722 15.486 26.722 15.486zm2.11-35.196l26.581-15.346-26.581-15.345v30.691zm-3.095-32.522l-26.581-15.345v30.691l26.581-15.346zm.985 32.944v-30.973l-26.722 15.487 26.722 15.486zm2.11-35.337l26.44-15.205-26.44-15.205v30.41zm-2.11.422v-30.972l-26.722 15.486 26.722 15.486zm29.675-641.138v-30.972l-26.862 15.486 26.862 15.486zm0 104.182V40.138l-26.862 15.486 26.862 15.487zm0-34.774V5.364L267.172 20.85l26.862 15.487zm0-34.915v-30.973l-26.862 15.486 26.862 15.487zm0 173.448v-30.973l-26.862 15.486 26.862 15.487zm0 176.967l-26.722 15.487 26.863 15.486-.141-30.973zm0-72.786v-30.973l-26.862 15.487 26.862 15.486zm0-34.774v-30.973l-26.862 15.487 26.862 15.486zm0-34.915v-30.973l-26.862 15.487 26.862 15.486zm0 277.63v-30.973l-26.862 15.486 26.862 15.487zm0-34.774v-30.973l-26.862 15.486 26.862 15.487zm0-34.915V386.33l-26.862 15.486 26.862 15.487zm0 173.307v-30.973l-26.862 15.487 26.862 15.486zm0 173.73v-30.973l-26.862 15.486 26.862 15.487zm0-69.408v-30.973l-26.862 15.487 26.862 15.486zm0-34.915v-30.973l-26.862 15.487 26.862 15.486zm0-34.774v-30.972l-26.862 15.486 26.862 15.486zm-86.916-502.182l26.44-15.346-26.44-15.346v30.692zm-2.11.281V92.369l-26.862 15.487 26.862 15.486zm2.954-32.944l26.722 15.487V74.912l-26.722 15.486zm-.844-2.111l26.44-15.346-26.44-15.346v30.692zm-2.11.422V57.736l-26.722 15.487 26.722 15.486zm2.11-35.056l26.581-15.345-26.581-15.346v30.691zm-2.11.423V23.103l-26.862 15.486 26.862 15.487zm2.11-35.337l26.581-15.346-26.581-15.346v30.691zm-2.11.422v-30.973L178.146 3.674l26.862 15.487zm2.11-35.197l26.44-15.204-26.44-15.205v30.41zm-2.11.423v-30.973L178.146-31.1l26.862 15.487zm2.11 172.885l26.159-15.064-26.159-15.065v30.129zm.844-32.24l26.722 15.486v-30.973l-26.722 15.487zm-2.954 32.662v-30.973l-26.862 15.487 26.862 15.486zm2.11 173.166l26.44-15.345-26.44-15.346v30.691zm-2.11.423V300.31l-26.862 15.486 26.862 15.487zm2.954-32.944l26.722 15.486v-30.973l-26.722 15.487zm-.844-2.112l26.44-15.345-26.44-15.346v30.691zm-2.11.422v-30.972l-26.722 15.486 26.722 15.486zm2.11-35.055l26.581-15.346-26.581-15.345v30.691zm-2.11.281v-30.972l-26.862 15.486 26.862 15.486zm2.11-35.196l26.581-15.346-26.581-15.345v30.691zm-2.11.422v-30.973l-26.862 15.487 26.862 15.486zm2.11-35.196l26.44-15.346-26.44-15.205v30.551zm-2.11.281v-30.972L178.146 176.7l26.862 15.486zm2.11 173.026l26.159-15.064-26.159-15.064v30.128zm-2.11.422v-30.972l-26.722 15.486 26.722 15.486zm2.11 173.167l26.44-15.346-26.44-15.345v30.691zm-2.11.422V508.25l-26.862 15.487 26.862 15.486zm2.954-33.084l26.722 15.486v-30.973l-26.722 15.487zm-.844-1.971l26.44-15.346-26.44-15.346v30.692zm-2.11.422v-30.973l-26.722 15.487 26.722 15.486zm2.11-35.056l26.581-15.345-26.581-15.346v30.691zm-2.11.282v-30.973l-26.862 15.486 26.862 15.487zm2.11-35.197l26.581-15.345-26.581-15.346v30.691zm-2.11.423v-30.973l-26.862 15.486 26.862 15.487zm2.11-35.197l26.44-15.204-26.44-15.205v30.409zm-2.11.282v-30.973l-26.862 15.487 26.862 15.486zm2.11 173.026l26.159-15.064-26.159-15.065v30.129zm.844-32.24l26.722 15.486v-30.973l-26.722 15.487zm-2.954 32.662v-30.973l-26.862 15.487 26.862 15.486zm2.11 173.166l26.44-15.345-26.44-15.346v30.691zm-2.11.423v-30.973l-26.862 15.486 26.862 15.487zm2.954-33.085l26.722 15.486v-30.972l-26.722 15.486zm-.844-1.971l26.44-15.346-26.44-15.345v30.691zm-2.11.422v-30.972l-26.722 15.486 26.722 15.486zm2.11-35.196l26.581-15.346-26.581-15.345v30.691zm-2.11.422v-30.972l-26.862 15.486 26.862 15.486zm0-34.774v-30.973l-26.862 15.487 26.862 15.486zm2.11-65.747v30.551l26.44-15.205-26.44-15.346zm-2.11 30.832v-30.972l-26.862 15.486 26.862 15.486zm29.676-641.138v-30.972l-26.722 15.486 26.722 15.486zm0 104.182V40.138l-26.863 15.486 26.863 15.487zm0-34.774V5.364L207.821 20.85l26.863 15.487zm0-34.915v-30.973l-26.722 15.486 26.722 15.487zm0 173.448v-30.973l-26.722 15.486 26.722 15.487zm0 176.967l-26.722 15.487 26.722 15.486v-30.973zm0-72.786v-30.973l-26.863 15.487 26.863 15.486zm0-34.774v-30.973l-26.863 15.487 26.863 15.486zm0-34.915v-30.973l-26.722 15.487 26.722 15.486zm0 277.63v-30.973l-26.863 15.486 26.863 15.487zm0-34.774v-30.973l-26.863 15.486 26.863 15.487zm0-34.915V386.33l-26.722 15.486 26.722 15.487zm0 173.307v-30.973l-26.722 15.487 26.722 15.486zm0 173.73v-30.973l-26.863 15.486 26.863 15.487zm0-69.408v-30.973l-26.863 15.487 26.863 15.486zm0-34.915v-30.973l-26.863 15.487 26.863 15.486zm0-34.774v-30.972l-26.722 15.486 26.722 15.486zM118.092 109.968v30.269l26.159-15.065-26.159-15.204zm29.675 13.093l26.441-15.346-26.441-15.346v30.692zm-3.234-32.522l-26.441-15.345v30.55l26.441-15.205zm1.125 32.803V92.369l-26.722 15.487 26.722 15.486zm2.953-32.944l26.722 15.487V74.912l-26.722 15.486zm-.844-2.111l26.441-15.346-26.441-15.346v30.692zm-3.094-32.381l-26.44-15.346v30.55l26.44-15.204zm.985 32.803V57.736l-26.722 15.487 26.722 15.486zm2.109-35.056l26.582-15.345-26.582-15.346v30.691zm-2.953-32.521L118.233 5.786v30.691l26.581-15.345zm.844 32.944V23.103l-26.722 15.486 26.722 15.487zm2.109-35.337l26.582-15.346-26.582-15.346v30.691zm-2.953-32.522l-26.581-15.346V1.563l26.581-15.346zm.844 32.944v-30.973L118.936 3.674l26.722 15.487zm2.109-35.197l26.441-15.204-26.441-15.205v30.41zm-2.109.423v-30.973L118.936-31.1l26.722 15.487zm-27.566 159.792v30.55l26.441-15.205-26.441-15.345zm29.675 13.093l26.16-15.064-26.16-15.065v30.129zm.844-32.24l26.722 15.486v-30.973l-26.722 15.487zm-2.953 32.662v-30.973l-26.722 15.487 26.722 15.486zm-27.566 160.214v30.128l26.159-15.064-26.159-15.064zm29.675 12.952l26.441-15.345-26.441-15.346v30.691zm-3.234-32.38l-26.441-15.346v30.551l26.441-15.205zm1.125 32.803V300.31l-26.722 15.486 26.722 15.487zm2.953-32.944l26.722 15.486v-30.973l-26.722 15.487zm-.844-2.112l26.441-15.345-26.441-15.346v30.691zm-3.094-32.381l-26.44-15.345v30.55l26.44-15.205zm.985 32.803v-30.972l-26.722 15.486 26.722 15.486zm2.109-35.055l26.582-15.346-26.582-15.345v30.691zm-2.953-32.522l-26.581-15.345v30.691l26.581-15.346zm.844 32.803v-30.972l-26.722 15.486 26.722 15.486zm2.109-35.196l26.582-15.346-26.582-15.345v30.691zm-2.953-32.522l-26.581-15.345v30.691l26.581-15.346zm.844 32.944v-30.973l-26.722 15.487 26.722 15.486zm2.109-35.196l26.441-15.346-26.441-15.205v30.551zm-2.109.281v-30.972L118.936 176.7l26.722 15.486zm-27.566 159.933v30.551l26.441-15.205-26.441-15.346zm29.675 13.093l26.16-15.064-26.16-15.064v30.128zm-31.785-16.753v-30.973L89.12 332.972l26.862 15.487zm29.676 17.175v-30.972l-26.722 15.486 26.722 15.486zm-27.566 160.215v30.269l26.159-15.065-26.159-15.204zm29.675 12.952l26.441-15.346-26.441-15.345v30.691zm-3.234-32.381l-26.441-15.345v30.55l26.441-15.205zm1.125 32.803V508.25l-26.722 15.487 26.722 15.486zm2.953-33.084l26.722 15.486v-30.973l-26.722 15.487zm-.844-1.971l26.441-15.346-26.441-15.346v30.692zm-3.094-32.522l-26.44-15.346v30.551l26.44-15.205zm.985 32.944v-30.973l-26.722 15.487 26.722 15.486zm2.109-35.056l26.582-15.345-26.582-15.346v30.691zm-2.953-32.521l-26.581-15.346v30.691l26.581-15.345zm.844 32.803v-30.973l-26.722 15.486 26.722 15.487zm2.109-35.197l26.582-15.345-26.582-15.346v30.691zm-2.953-32.521l-26.581-15.346v30.692l26.581-15.346zm.844 32.944v-30.973l-26.722 15.486 26.722 15.487zm2.109-35.197l26.441-15.204-26.441-15.205v30.409zm-2.109.282v-30.973l-26.722 15.487 26.722 15.486zM118.092 560.06v30.55l26.441-15.205-26.441-15.345zm29.675 13.093l26.16-15.064-26.16-15.065v30.129zm.844-32.24l26.722 15.486v-30.973l-26.722 15.487zm-2.953 32.662v-30.973l-26.722 15.487 26.722 15.486zm2.109 173.166l26.441-15.345-26.441-15.346v30.691zm-3.234-32.38l-26.441-15.346v30.55l26.441-15.204zm1.125 32.803v-30.973l-26.722 15.486 26.722 15.487zm2.953-33.085l26.722 15.486v-30.972l-26.722 15.486zm-.844-1.971l26.441-15.346-26.441-15.345v30.691zm-3.094-32.521l-26.44-15.346v30.55l26.44-15.204zm.985 32.943v-30.972l-26.722 15.486 26.722 15.486zm2.109-35.196l26.582-15.346-26.582-15.345v30.691zm-2.953-32.521l-26.581-15.346v30.691l26.581-15.345zm.844 32.943v-30.972l-26.722 15.486 26.722 15.486zm2.109-35.196l26.582-15.346-26.582-15.345v30.691zm-2.953-32.522l-26.581-15.345v30.691l26.581-15.346zm.844 32.944v-30.973l-26.722 15.487 26.722 15.486zm2.109-35.337l26.441-15.205-26.441-15.205v30.41zm-2.109.422v-30.972l-26.722 15.486 26.722 15.486zm29.675-641.138v-30.972l-26.722 15.486 26.722 15.486zm0 104.182V40.138l-26.722 15.486 26.722 15.487zm0-34.774V5.364L148.611 20.85l26.722 15.487zm0-34.915v-30.973l-26.722 15.486 26.722 15.487zm0 173.448v-30.973l-26.722 15.486 26.722 15.487zm0 176.967l-26.722 15.487 26.722 15.486v-30.973zm0-72.786v-30.973l-26.722 15.487 26.722 15.486zm0-34.774v-30.973l-26.722 15.487 26.722 15.486zm0-34.915v-30.973l-26.722 15.487 26.722 15.486zm0 277.63v-30.973l-26.722 15.486 26.722 15.487zm0-34.774v-30.973l-26.722 15.486 26.722 15.487zm0-34.915V386.33l-26.722 15.486 26.722 15.487zm0 173.307v-30.973l-26.722 15.487 26.722 15.486zm0 173.73v-30.973l-26.722 15.486 26.722 15.487zm0-69.408v-30.973l-26.722 15.487 26.722 15.486zm0-34.915v-30.973l-26.722 15.487 26.722 15.486zm0-34.774v-30.972l-26.722 15.486 26.722 15.486zM29.066 746.741l26.44-15.345-26.44-15.346v30.691zm.844-32.662l26.722 15.486v-30.972L29.91 714.079zm-.844-1.971l26.44-15.346-26.44-15.345v30.691zm0-34.774l26.581-15.346-26.58-15.345v30.691zm0-34.774l26.581-15.346-26.58-15.345v30.691zm0-34.915l26.44-15.205-26.44-15.205v30.41zm0-34.492l26.16-15.064-26.16-15.065v30.129zm0-34.352l26.44-15.346-26.44-15.345v30.691zm.844-32.662l26.722 15.486v-30.973L29.91 506.139zm-.844-1.971l26.44-15.346-26.44-15.346v30.692zm0-34.634l26.581-15.345-26.58-15.346v30.691zm0-34.915l26.581-15.345-26.58-15.346v30.691zm0-34.774l26.44-15.345-26.44-15.205v30.55zm0-34.633l26.16-15.064-26.16-15.064v30.128zm0-34.352l26.44-15.345-26.44-15.346v30.691zm.844-32.521l26.722 15.486v-30.973L29.91 298.339zm-.844-2.112l26.44-15.345-26.44-15.346v30.691zm0-34.633l26.581-15.346-26.58-15.345v30.691zm0-34.915l26.581-15.346-26.58-15.345v30.691zm0-34.774l26.44-15.346-26.44-15.205v30.551zm0-34.633l26.16-15.064-26.16-15.065v30.129zm0-34.211l26.44-15.346-26.44-15.346v30.692zm.844-32.663l26.722 15.487V74.912L29.91 90.398zm-.844-2.111l26.44-15.346-26.44-15.346v30.692zm0-34.634l26.581-15.345-26.58-15.346v30.691zm0-34.914L55.788 3.393 29.207-11.953l-.14 30.691zm0-34.775l26.44-15.204-26.44-15.205v30.41zm-2.11 139.378V92.369L.095 107.856l26.863 15.486zm0-34.633V57.736L.236 73.223l26.722 15.486zm0-34.633V23.103L.095 38.589l26.863 15.487zm0-34.915v-30.973L.095 3.674l26.863 15.487zm0-34.774v-30.973L.236-31.1l26.722 15.487zm0 173.307v-30.973L.236 142.208l26.722 15.486zm0 173.589V300.31L.095 315.796l26.863 15.487zm0 3.379L.236 350.148l26.722 15.486v-30.972zm0-38.013v-30.972L.236 281.163l26.722 15.486zm0-34.774v-30.972L.095 246.389l26.863 15.486zm0-34.774v-30.973L.095 211.615l26.863 15.486zm0-34.915v-30.972L.236 176.7l26.722 15.486zm0 347.037V508.25L.095 523.737l26.863 15.486zm0-34.633v-30.973L.236 489.104l26.722 15.486zm0-34.774v-30.973L.095 454.329l26.863 15.487zm0-34.774v-30.973L.095 419.555l26.863 15.487zm0-34.915v-30.973L.236 384.641l26.722 15.486zm0 173.448v-30.973L.236 558.089l26.722 15.486zm0 173.589v-30.973L.095 731.677l26.863 15.487zm0-34.634v-30.972L.236 697.044l26.722 15.486zm0-34.774v-30.972L.095 662.27l26.863 15.486zm0-34.774v-30.973L.095 627.496l26.863 15.486zm0-34.915v-30.972L.236 592.581l26.722 15.486zM56.633-33.071v-30.972L31.738-48.557l24.894 15.486zm2.11 173.167L84.9 125.032l-26.16-15.064v30.128zm.843-32.24l26.722 15.486V92.369l-26.722 15.487zm-2.953 32.662v-30.973L29.77 125.032l26.862 15.486zm2.11-34.633l26.44-15.346-26.44-15.345v30.691zm.843-32.662l26.722 15.486V57.736L59.585 73.223zm-.843-2.112l26.44-15.346-26.44-15.346v30.692zm.843-32.522l26.722 15.487V23.103L59.585 38.589zm-2.953 32.522V40.138L29.77 55.624l26.862 15.487zm2.11-34.634l26.58-15.345-26.58-15.346v30.691zm.843-32.803l26.722 15.487v-30.973L59.585 3.674zm-2.953 32.663V5.364L29.77 20.85l26.862 15.487zm2.11-34.634l26.58-15.345-26.58-15.346V1.703zm.843-32.803l26.722 15.487v-30.973L59.585-31.1zM56.632 1.422v-30.973L29.91-14.065 56.632 1.422zm2.11 173.307l26.3-15.205-26.3-15.205v30.41zm.843-32.521l26.722 15.486v-30.973l-26.722 15.487zm-2.953 32.662v-30.973L29.91 159.383l26.722 15.487zm0 176.967L29.91 367.324l26.722 15.486v-30.973zm2.11-3.801L84.9 332.972l-26.16-15.064v30.128zm.843-32.24l26.722 15.487V300.31l-26.722 15.486zm-2.953 32.663v-30.973L29.77 332.972l26.862 15.487zm2.11-34.634l26.44-15.345-26.44-15.346v30.691zm.843-32.662l26.722 15.486v-30.972l-26.722 15.486zm-.843-2.112l26.58-15.205-26.44-15.345-.14 30.55zm.843-32.662l26.722 15.486v-30.972l-26.722 15.486zm-2.953 32.662v-30.973L29.77 263.565l26.862 15.486zm2.11-34.633l26.58-15.346-26.58-15.345v30.691zm.843-32.803l26.722 15.486v-30.973l-26.722 15.487zm-2.953 32.662v-30.973L29.77 228.791l26.862 15.486zm2.11-34.774l26.58-15.346-26.58-15.345v30.691zm.843-32.803l26.722 15.486v-30.972L59.585 176.7zm-2.953 32.662v-30.973L29.91 193.876l26.722 15.486zm2.11 173.308l26.3-15.205-26.3-15.205v30.41zm.843-32.522l26.722 15.486v-30.972l-26.722 15.486zm-.843 205.829L84.9 540.913l-26.16-15.064v30.128zm.843-32.24l26.722 15.486V508.25l-26.722 15.487zm-2.953 32.662v-30.973L29.77 540.913l26.862 15.486zm2.11-34.774l26.44-15.346-26.44-15.345v30.691zm.843-32.521l26.722 15.486v-30.973l-26.722 15.487zm-.843-2.112l26.44-15.346-26.44-15.346v30.692zm.843-32.663l26.722 15.487v-30.973l-26.722 15.486zm-2.953 32.663v-30.973L29.77 471.505l26.862 15.487zm2.11-34.634l26.721-15.345-26.58-15.346-.142 30.691zm.843-32.803l26.722 15.487v-30.973l-26.722 15.486zm-2.953 32.663v-30.973L29.77 436.731l26.862 15.487zm2.11-34.774l26.58-15.346-26.58-15.346v30.692zm.843-32.803l26.722 15.486v-30.973l-26.722 15.487zm-2.953 32.662V386.33L29.91 401.816l26.722 15.487zm2.11 173.307l26.3-15.205-26.3-15.205v30.41zm.843-32.521l26.722 15.486v-30.973l-26.722 15.487zm-2.953 32.521v-30.973L29.91 575.124l26.722 15.486zm2.953 141.067l26.722 15.487v-30.973l-26.722 15.486zm-2.953 32.663v-30.973L29.77 748.853l26.862 15.487zm2.11-34.775l26.58-15.204-26.44-15.346v30.55h-.14zm.843-32.521l26.722 15.486v-30.972l-26.722 15.486zm-.843-2.112l26.44-15.345-26.44-15.346v30.691zm.843-32.662l26.722 15.486v-30.972L59.585 662.27zm-2.953 32.662v-30.973L29.77 679.446l26.862 15.486zm2.11-34.633l26.58-15.346-26.58-15.345v30.691zm.843-32.803l26.722 15.486v-30.973l-26.722 15.487zm-2.953 32.521v-30.973L29.77 644.531l26.862 15.486zm2.11-34.633l26.58-15.346-26.58-15.345v30.691zm.843-32.803l26.722 15.486v-30.972l-26.722 15.486zm-2.953 32.662v-30.972L29.91 609.757l26.722 15.486zm31.785-502.182l26.44-15.346-26.44-15.346v30.692zm.844-32.663l26.721 15.487V74.912L89.261 90.398zm-.844-2.111l26.44-15.346-26.44-15.346v30.692zm0-34.634l26.581-15.345-26.581-15.346v30.691zm0-34.914l26.722-15.346-26.582-15.346v30.691h-.14zm0-34.775l26.44-15.204-26.44-15.205v30.41zm0 173.308l26.159-15.064-26.16-15.065v30.129zm.844-32.24l26.862 15.486v-30.973l-26.862 15.487zm-.844 205.828l26.44-15.345-26.44-15.346v30.691zm.844-32.521l26.721 15.486v-30.973l-26.721 15.487zm-.844-2.112l26.44-15.345-26.44-15.346v30.691zm0-34.633l26.581-15.346-26.581-15.345v30.691zm0-34.915l26.581-15.346-26.581-15.345v30.691zm0-34.774l26.44-15.346-26.44-15.205v30.551zm0 173.307l26.159-15.064-26.16-15.064v30.128zm0 173.589l26.44-15.346-26.44-15.345v30.691zm.844-32.662l26.721 15.486v-30.973l-26.721 15.487zm-.844-1.971l26.44-15.346-26.44-15.346v30.692zm0-34.634l26.581-15.345-26.581-15.346v30.691zm0-34.915l26.581-15.345-26.581-15.346v30.691zm0-34.774l26.44-15.204-26.44-15.205v30.409zm0 173.308l26.159-15.064-26.16-15.065v30.129zm.844-32.24l26.862 15.486v-30.973l-26.862 15.487zm-.844 205.828l26.44-15.345-26.44-15.346v30.691zm.844-32.662l26.721 15.486v-30.972l-26.721 15.486zm-.844-1.971l26.44-15.346-26.44-15.345v30.691zm0-34.774l26.581-15.346-26.581-15.345v30.691zm0-100.099v30.551l26.44-15.205-26.44-15.346zm27.565-610.306v-30.972L89.261-48.557l26.721 15.486zm0 104.182V40.138L89.12 55.624l26.862 15.487zm0-34.774V5.364L89.12 20.85l26.862 15.487zm0-34.915v-30.973L89.261-14.065l26.721 15.487zm0 173.448v-30.973l-26.721 15.486 26.721 15.487zm0 176.967l-26.721 15.487 26.721 15.486v-30.973zm0-72.786v-30.973L89.12 263.565l26.862 15.486zm0-34.774v-30.973L89.12 228.791l26.862 15.486zm0-34.915v-30.973l-26.721 15.487 26.721 15.486zm0 277.63v-30.973L89.12 471.505l26.862 15.487zm0-34.774v-30.973L89.12 436.731l26.862 15.487zm0-34.915V386.33l-26.721 15.486 26.721 15.487zm0 173.307v-30.973l-26.721 15.487 26.721 15.486zm0 173.73v-30.973L89.12 748.853l26.862 15.487zm0-69.408v-30.973L89.12 679.446l26.862 15.486zm0-34.915v-30.973L89.12 644.531l26.862 15.486zm0-34.774v-30.972l-26.721 15.486 26.721 15.486z" fill="url(#paint0_linear_4_44)"/><defs><linearGradient id="paint0_linear_4_44" x1="55.286" y1="676.84" x2="560.832" y2="277.112" gradientUnits="userSpaceOnUse"><stop stop-color="#fff"/><stop offset="1" stop-color="#fff" stop-opacity="0"/></linearGradient></defs></svg>