<svg width="625" height="177" fill="none" xmlns="http://www.w3.org/2000/svg"><path d="M356.574 175.553l-.005-.001c-2.64-.629-5.713-1.57-9.214-2.82l-.425-.152.107-.438 4.862-19.819.145-.591.552.257c1.844.861 3.554 1.47 5.132 1.835 1.719.368 3.24.549 4.566.549 2.982 0 5.603-1.068 7.884-3.229l.009-.008c2.405-2.164 4.362-5.503 5.842-10.066l.004-.01.003-.01 2.924-7.857-39.566-97.229-.281-.688h27.084l.12.328 25.864 70.984 22.74-70.965.111-.347h25.008l-.238.668-40.014 111.991-43.214 27.618zm0 0c2.776.631 5.494.947 8.151.947m-8.151-.947l8.151.947m0 0c5.065 0 9.878-1.14 14.434-3.418 4.555-2.277 8.597-5.563 12.127-9.849M364.725 176.5l26.561-13.267m0 0c3.535-4.166 6.366-9.268 8.502-15.297l-8.502 15.297zM29.173 134.681v.5h14.71c6.915 0 12.503-1.32 16.724-4.005 4.22-2.686 7.95-7.387 11.212-14.037h0l.006-.013L124.741 1.208l.323-.708H96.846l-.13.3-30.613 70.07L30.868.776 30.73.5H1.16l.4.738 52.61 97.003-2.888 6.317-.003.008-.003.008c-1.231 2.953-2.626 5.054-4.162 6.354-1.494 1.264-3.787 1.938-6.97 1.938h-10.97v21.815zm128.51-2.533l.008.003c6.427 2.646 13.66 3.964 21.693 3.964 7.279 0 13.821-1.066 19.62-3.209l.005-.002c5.911-2.264 11.013-5.348 15.301-9.257 4.409-3.905 7.755-8.321 10.03-13.249l.24-.521-.548-.167-24.495-7.479-.423-.129-.18.404c-.962 2.165-2.469 4.099-4.535 5.8-2.073 1.707-4.453 3.051-7.146 4.03l-.007.002c-2.557.974-5.301 1.463-8.236 1.463-4.642 0-8.846-1.219-12.626-3.656-3.789-2.568-6.85-5.993-9.181-10.284-2.202-4.407-3.309-9.437-3.309-15.1 0-5.794 1.109-10.823 3.31-15.103l.003-.005c2.206-4.413 5.2-7.766 8.976-10.08l.003-.003c3.909-2.443 8.18-3.663 12.824-3.663 4.156 0 7.934.977 11.345 2.926h0l.012.006c3.404 1.824 6.143 4.499 8.219 8.039l.2.34.377-.115 24.495-7.478.566-.173-.265-.53c-3.785-7.568-9.524-13.681-17.203-18.339-7.696-4.667-16.889-6.99-27.559-6.99-10.67 0-19.924 2.323-27.742 6.988-7.804 4.657-13.851 10.891-18.133 18.699l-.001.002c-4.156 7.682-6.231 16.178-6.231 25.479 0 6.79 1.195 13.271 3.587 19.438l.003.008a54.852 54.852 0 0010.566 16.603l.005.005c4.537 4.789 10.017 8.566 16.432 11.333zm74.015 2.906v.509l.508-.009c7.152-.125 13.386-1.254 18.69-3.401 5.329-2.157 9.766-5.709 13.308-10.642 3.665-5.057 6.491-11.855 8.494-20.37 2.005-8.518 3.254-19.21 3.753-32.066v-.003l.358-10.921h25.381v76.095h26.055v-98.97h-74.463l-.02.478-1.309 30.85v.001c-.373 9.335-1.12 16.975-2.236 22.925l-.001.01c-.993 5.955-2.414 10.566-4.245 13.861l-.003.006c-1.716 3.187-3.715 5.411-5.981 6.722-2.292 1.327-4.892 2.055-7.81 2.177l-.479.02v22.728zm220.746-1.308v.5H478.5V58.151h39.827V35.276h-65.883v98.47zm79.248 0v.5h24.135l.149-.216 42.468-61.5v61.716H624.5v-98.97h-23.576l-.149.218-43.027 63.163V35.463h-26.056v98.283z" stroke="#272827"/></svg>