<svg width="1000" height="171" viewBox="0 0 1228 171" fill="none" xmlns="http://www.w3.org/2000/svg"><mask id="a" maskUnits="userSpaceOnUse" x="0" y="0" width="1228" height="171" fill="#000"><path fill="#fff" d="M0 0h1228v171H0z"/><path d="M53.498 133.623c-7.967 0-15.232-1.171-21.794-3.514-6.562-2.46-12.303-5.858-17.225-10.193C9.558 115.582 5.4 110.485 2 104.628l20.037-11.423c2.11 3.866 4.746 7.264 7.91 10.192a34.6 34.6 0 0010.72 6.503c4.102 1.523 8.438 2.284 13.007 2.284 5.625 0 10.722-1.054 15.292-3.163 4.57-2.226 8.436-5.213 11.6-8.962 3.28-3.867 5.742-8.26 7.382-13.18 1.758-5.038 2.637-10.31 2.637-15.816l9.842 6.678H42.953V59.816H99.9l-9.491 6.502a48.745 48.745 0 00-2.813-14.234c-1.64-4.57-4.042-8.611-7.206-12.126-3.163-3.514-6.972-6.268-11.424-8.26-4.453-2.108-9.55-3.162-15.292-3.162-4.452 0-8.67.761-12.655 2.284-3.984 1.406-7.499 3.515-10.545 6.326-3.047 2.812-5.625 6.268-7.734 10.369L3.582 34.335c5.038-7.967 11.542-14.469 19.51-19.507 8.085-5.154 18.337-7.732 30.758-7.732 9.726 0 18.397 1.758 26.013 5.272 7.616 3.515 14.061 8.26 19.334 14.234a61.929 61.929 0 0111.952 20.21c2.812 7.498 4.218 15.288 4.218 23.372 0 8.435-1.465 16.46-4.394 24.075a60.952 60.952 0 01-12.48 20.385c-5.39 5.858-11.892 10.486-19.509 13.883-7.616 3.398-16.111 5.096-25.485 5.096zm99.463-1.054V61.046h-29.177v-20.56h82.082v20.56h-29.353v71.523h-23.552zm59.429-27.238c0-5.975 1.64-11.189 4.921-15.64 3.398-4.57 8.085-8.084 14.061-10.545 5.976-2.46 12.831-3.69 20.564-3.69 3.867 0 7.792.293 11.776.879 3.984.586 7.441 1.523 10.37 2.811v-4.92c0-5.858-1.757-10.368-5.273-13.531-3.398-3.164-8.495-4.745-15.291-4.745-5.038 0-9.843.878-14.413 2.636-4.569 1.757-9.374 4.334-14.412 7.732l-7.558-15.464c6.093-3.984 12.304-6.971 18.631-8.963 6.445-1.991 13.182-2.987 20.213-2.987 13.123 0 23.318 3.28 30.582 9.84 7.383 6.561 11.074 15.934 11.074 28.118v29.347c0 2.46.41 4.218 1.23 5.272.937 1.055 2.402 1.699 4.394 1.933v19.155c-2.109.352-4.043.644-5.8.879-1.641.234-3.047.351-4.219.351-4.687 0-8.26-1.054-10.721-3.163-2.344-2.109-3.808-4.686-4.394-7.732l-.527-4.745c-3.984 5.155-8.964 9.138-14.94 11.95-5.976 2.812-12.069 4.217-18.28 4.217-6.093 0-11.6-1.23-16.521-3.69-4.805-2.577-8.613-6.033-11.425-10.368-2.695-4.452-4.042-9.431-4.042-14.937zm57.298 4.744c1.289-1.406 2.344-2.811 3.164-4.217.82-1.406 1.23-2.695 1.23-3.866v-9.314c-2.812-1.172-5.858-2.05-9.139-2.636-3.281-.703-6.386-1.055-9.316-1.055-6.093 0-11.131 1.348-15.115 4.042-3.867 2.578-5.801 6.034-5.801 10.368 0 2.344.645 4.57 1.934 6.678 1.289 2.109 3.164 3.808 5.624 5.097 2.461 1.288 5.39 1.933 8.788 1.933 3.516 0 6.972-.645 10.37-1.933 3.398-1.406 6.152-3.105 8.261-5.097zm49.955 22.494V40.485h82.609v92.084H378.7V61.046h-35.504v71.523h-23.553zm104.016 0V40.485h23.553v28.996h16.17c11.131 0 19.627 2.812 25.485 8.435 5.859 5.624 8.788 13.063 8.788 22.318 0 6.21-1.288 11.774-3.866 16.695-2.461 4.92-6.093 8.786-10.898 11.598-4.804 2.695-10.78 4.042-17.927 4.042h-41.305zm23.553-17.925h14.061c3.28 0 5.917-.644 7.909-1.933 1.992-1.288 3.457-2.987 4.394-5.096 1.055-2.109 1.582-4.51 1.582-7.205 0-2.577-.469-4.862-1.406-6.853-.938-2.11-2.461-3.75-4.57-4.921-1.992-1.289-4.687-1.933-8.085-1.933h-13.885v27.941zm64.856 17.925V40.661h23.552v91.908h-23.552zm142.544 1.757c-7.148 0-13.475-1.581-18.983-4.744-5.39-3.281-9.608-7.674-12.655-13.18V170h-23.552V40.485h20.564v15.816c3.516-5.389 7.968-9.606 13.358-12.653 5.39-3.163 11.542-4.744 18.455-4.744 6.211 0 11.894 1.23 17.05 3.69 5.272 2.46 9.842 5.916 13.709 10.368 3.867 4.335 6.855 9.373 8.964 15.113 2.226 5.624 3.339 11.716 3.339 18.276 0 8.904-1.757 16.988-5.272 24.252-3.399 7.263-8.144 13.062-14.237 17.397-5.976 4.218-12.89 6.326-20.74 6.326zm-7.91-20.033c3.633 0 6.914-.762 9.843-2.285a23.955 23.955 0 007.558-6.15 26.864 26.864 0 004.921-8.963 32.108 32.108 0 001.758-10.543c0-3.867-.645-7.44-1.933-10.72-1.172-3.28-2.93-6.15-5.273-8.611a24.5 24.5 0 00-8.261-5.975c-3.047-1.406-6.386-2.109-10.019-2.109-2.226 0-4.511.41-6.854 1.23-2.227.703-4.395 1.758-6.504 3.163a28.265 28.265 0 00-5.624 4.921c-1.523 1.874-2.637 3.925-3.34 6.15v21.616a35.903 35.903 0 005.625 9.314c2.46 2.811 5.273 5.037 8.436 6.677 3.164 1.523 6.386 2.285 9.667 2.285zm57.789-8.962c0-5.975 1.641-11.189 4.922-15.64 3.398-4.57 8.085-8.084 14.061-10.545 5.976-2.46 12.83-3.69 20.564-3.69 3.867 0 7.792.293 11.776.879 3.984.586 7.441 1.523 10.37 2.811v-4.92c0-5.858-1.758-10.368-5.273-13.531-3.398-3.164-8.495-4.745-15.291-4.745-5.039 0-9.843.878-14.413 2.636-4.57 1.757-9.374 4.334-14.412 7.732l-7.558-15.464c6.093-3.984 12.303-6.971 18.631-8.963 6.444-1.991 13.182-2.987 20.213-2.987 13.123 0 23.317 3.28 30.582 9.84 7.382 6.561 11.073 15.934 11.073 28.118v29.347c0 2.46.41 4.218 1.231 5.272.937 1.055 2.402 1.699 4.394 1.933v19.155c-2.109.352-4.043.644-5.801.879-1.64.234-3.046.351-4.218.351-4.687 0-8.261-1.054-10.721-3.163-2.344-2.109-3.809-4.686-4.394-7.732l-.528-4.745c-3.984 5.155-8.964 9.138-14.94 11.95-5.975 2.812-12.069 4.217-18.279 4.217-6.093 0-11.6-1.23-16.522-3.69-4.804-2.577-8.612-6.033-11.424-10.368-2.695-4.452-4.043-9.431-4.043-14.937zm57.299 4.744c1.289-1.406 2.343-2.811 3.164-4.217.82-1.406 1.23-2.695 1.23-3.866v-9.314c-2.812-1.172-5.859-2.05-9.14-2.636-3.281-.703-6.386-1.055-9.315-1.055-6.093 0-11.132 1.348-15.116 4.042-3.866 2.578-5.8 6.034-5.8 10.368 0 2.344.645 4.57 1.934 6.678 1.288 2.109 3.163 3.808 5.624 5.097 2.461 1.288 5.39 1.933 8.788 1.933 3.515 0 6.972-.645 10.37-1.933 3.398-1.406 6.152-3.105 8.261-5.097zm95.829 24.251c-15.818 0-27.829-4.627-36.031-13.882-8.085-9.373-12.128-23.021-12.128-40.946 0-11.247.996-20.737 2.988-28.469 1.992-7.732 4.922-14.117 8.788-19.155 3.867-5.037 8.73-9.138 14.589-12.3 5.976-3.164 12.83-5.683 20.564-7.557L895.936 2l.351 19.155-39.019 10.192c-5.625 1.64-10.546 3.925-14.764 6.854-4.219 2.812-7.617 6.502-10.195 11.071-2.46 4.452-4.042 10.075-4.745 16.87 3.515-5.74 8.319-10.25 14.412-13.531 6.093-3.398 13.475-5.096 22.146-5.096 8.203 0 15.409 1.757 21.619 5.272 6.211 3.514 11.015 8.376 14.413 14.585 3.515 6.21 5.273 13.415 5.273 21.615 0 8.787-1.875 16.636-5.625 23.549-3.632 6.795-9.022 12.125-16.17 15.991-7.03 3.866-15.701 5.799-26.013 5.799zm0-20.033c7.265 0 13.007-2.167 17.225-6.502 4.336-4.452 6.503-10.31 6.503-17.573 0-7.03-2.109-12.77-6.327-17.222-4.219-4.452-10.019-6.678-17.401-6.678-4.57 0-8.671.937-12.303 2.812-3.515 1.874-6.328 4.627-8.437 8.26-2.109 3.514-3.164 7.79-3.164 12.828 0 4.686.938 8.845 2.813 12.477 1.874 3.631 4.569 6.502 8.085 8.61 3.632 1.992 7.968 2.988 13.006 2.988zm105.998 20.033c-7.5 0-14.237-1.23-20.213-3.69-5.976-2.577-11.073-6.092-15.292-10.544-4.101-4.452-7.264-9.548-9.491-15.289-2.226-5.74-3.339-11.774-3.339-18.1 0-6.444 1.113-12.536 3.339-18.276 2.227-5.74 5.39-10.837 9.491-15.289 4.219-4.452 9.316-7.908 15.292-10.368 5.976-2.578 12.713-3.866 20.213-3.866 7.499 0 14.178 1.288 20.037 3.866 5.975 2.46 11.073 5.916 15.291 10.368 4.215 4.452 7.385 9.548 9.495 15.289 2.22 5.74 3.34 11.832 3.34 18.276 0 6.326-1.12 12.36-3.34 18.1-2.11 5.741-5.28 10.837-9.495 15.289-4.101 4.452-9.14 7.967-15.116 10.544-5.976 2.46-12.713 3.69-20.212 3.69zm-24.08-47.623c0 5.39 1.055 10.192 3.164 14.41 2.109 4.1 4.98 7.322 8.612 9.665 3.633 2.343 7.734 3.515 12.304 3.515 4.452 0 8.495-1.172 12.127-3.515 3.633-2.46 6.503-5.74 8.613-9.841 2.226-4.217 3.339-9.02 3.339-14.41 0-5.272-1.113-10.017-3.339-14.234-2.11-4.218-4.98-7.498-8.613-9.841-3.632-2.343-7.675-3.515-12.127-3.515-4.57 0-8.671 1.23-12.304 3.69-3.632 2.344-6.503 5.624-8.612 9.842-2.109 4.1-3.164 8.845-3.164 14.234zm109.403 45.866V61.046h-29.18v-20.56h82.08v20.56h-29.35v71.523h-23.55zm66.1 0V40.485h23.55v28.996h16.17c11.13 0 19.63 2.812 25.49 8.435 5.86 5.624 8.79 13.063 8.79 22.318 0 6.21-1.29 11.774-3.87 16.695-2.46 4.92-6.09 8.786-10.9 11.598-4.8 2.695-10.78 4.042-17.93 4.042h-41.3zm23.55-17.925h14.06c3.28 0 5.92-.644 7.91-1.933 1.99-1.288 3.46-2.987 4.4-5.096 1.05-2.109 1.58-4.51 1.58-7.205 0-2.577-.47-4.862-1.41-6.853-.94-2.11-2.46-3.75-4.57-4.921-1.99-1.289-4.69-1.933-8.08-1.933h-13.89v27.941zm64.86 17.925V40.661H1227v91.908h-23.55z"/></mask><path d="M53.498 133.623c-7.967 0-15.232-1.171-21.794-3.514-6.562-2.46-12.303-5.858-17.225-10.193C9.558 115.582 5.4 110.485 2 104.628l20.037-11.423c2.11 3.866 4.746 7.264 7.91 10.192a34.6 34.6 0 0010.72 6.503c4.102 1.523 8.438 2.284 13.007 2.284 5.625 0 10.722-1.054 15.292-3.163 4.57-2.226 8.436-5.213 11.6-8.962 3.28-3.867 5.742-8.26 7.382-13.18 1.758-5.038 2.637-10.31 2.637-15.816l9.842 6.678H42.953V59.816H99.9l-9.491 6.502a48.745 48.745 0 00-2.813-14.234c-1.64-4.57-4.042-8.611-7.206-12.126-3.163-3.514-6.972-6.268-11.424-8.26-4.453-2.108-9.55-3.162-15.292-3.162-4.452 0-8.67.761-12.655 2.284-3.984 1.406-7.499 3.515-10.545 6.326-3.047 2.812-5.625 6.268-7.734 10.369L3.582 34.335c5.038-7.967 11.542-14.469 19.51-19.507 8.085-5.154 18.337-7.732 30.758-7.732 9.726 0 18.397 1.758 26.013 5.272 7.616 3.515 14.061 8.26 19.334 14.234a61.929 61.929 0 0111.952 20.21c2.812 7.498 4.218 15.288 4.218 23.372 0 8.435-1.465 16.46-4.394 24.075a60.952 60.952 0 01-12.48 20.385c-5.39 5.858-11.892 10.486-19.509 13.883-7.616 3.398-16.111 5.096-25.485 5.096zm99.463-1.054V61.046h-29.177v-20.56h82.082v20.56h-29.353v71.523h-23.552zm59.429-27.238c0-5.975 1.64-11.189 4.921-15.64 3.398-4.57 8.085-8.084 14.061-10.545 5.976-2.46 12.831-3.69 20.564-3.69 3.867 0 7.792.293 11.776.879 3.984.586 7.441 1.523 10.37 2.811v-4.92c0-5.858-1.757-10.368-5.273-13.531-3.398-3.164-8.495-4.745-15.291-4.745-5.038 0-9.843.878-14.413 2.636-4.569 1.757-9.374 4.334-14.412 7.732l-7.558-15.464c6.093-3.984 12.304-6.971 18.631-8.963 6.445-1.991 13.182-2.987 20.213-2.987 13.123 0 23.318 3.28 30.582 9.84 7.383 6.561 11.074 15.934 11.074 28.118v29.347c0 2.46.41 4.218 1.23 5.272.937 1.055 2.402 1.699 4.394 1.933v19.155c-2.109.352-4.043.644-5.8.879-1.641.234-3.047.351-4.219.351-4.687 0-8.26-1.054-10.721-3.163-2.344-2.109-3.808-4.686-4.394-7.732l-.527-4.745c-3.984 5.155-8.964 9.138-14.94 11.95-5.976 2.812-12.069 4.217-18.28 4.217-6.093 0-11.6-1.23-16.521-3.69-4.805-2.577-8.613-6.033-11.425-10.368-2.695-4.452-4.042-9.431-4.042-14.937zm57.298 4.744c1.289-1.406 2.344-2.811 3.164-4.217.82-1.406 1.23-2.695 1.23-3.866v-9.314c-2.812-1.172-5.858-2.05-9.139-2.636-3.281-.703-6.386-1.055-9.316-1.055-6.093 0-11.131 1.348-15.115 4.042-3.867 2.578-5.801 6.034-5.801 10.368 0 2.344.645 4.57 1.934 6.678 1.289 2.109 3.164 3.808 5.624 5.097 2.461 1.288 5.39 1.933 8.788 1.933 3.516 0 6.972-.645 10.37-1.933 3.398-1.406 6.152-3.105 8.261-5.097zm49.955 22.494V40.485h82.609v92.084H378.7V61.046h-35.504v71.523h-23.553zm104.016 0V40.485h23.553v28.996h16.17c11.131 0 19.627 2.812 25.485 8.435 5.859 5.624 8.788 13.063 8.788 22.318 0 6.21-1.288 11.774-3.866 16.695-2.461 4.92-6.093 8.786-10.898 11.598-4.804 2.695-10.78 4.042-17.927 4.042h-41.305zm23.553-17.925h14.061c3.28 0 5.917-.644 7.909-1.933 1.992-1.288 3.457-2.987 4.394-5.096 1.055-2.109 1.582-4.51 1.582-7.205 0-2.577-.469-4.862-1.406-6.853-.938-2.11-2.461-3.75-4.57-4.921-1.992-1.289-4.687-1.933-8.085-1.933h-13.885v27.941zm64.856 17.925V40.661h23.552v91.908h-23.552zm142.544 1.757c-7.148 0-13.475-1.581-18.983-4.744-5.39-3.281-9.608-7.674-12.655-13.18V170h-23.552V40.485h20.564v15.816c3.516-5.389 7.968-9.606 13.358-12.653 5.39-3.163 11.542-4.744 18.455-4.744 6.211 0 11.894 1.23 17.05 3.69 5.272 2.46 9.842 5.916 13.709 10.368 3.867 4.335 6.855 9.373 8.964 15.113 2.226 5.624 3.339 11.716 3.339 18.276 0 8.904-1.757 16.988-5.272 24.252-3.399 7.263-8.144 13.062-14.237 17.397-5.976 4.218-12.89 6.326-20.74 6.326zm-7.91-20.033c3.633 0 6.914-.762 9.843-2.285a23.955 23.955 0 007.558-6.15 26.864 26.864 0 004.921-8.963 32.108 32.108 0 001.758-10.543c0-3.867-.645-7.44-1.933-10.72-1.172-3.28-2.93-6.15-5.273-8.611a24.5 24.5 0 00-8.261-5.975c-3.047-1.406-6.386-2.109-10.019-2.109-2.226 0-4.511.41-6.854 1.23-2.227.703-4.395 1.758-6.504 3.163a28.265 28.265 0 00-5.624 4.921c-1.523 1.874-2.637 3.925-3.34 6.15v21.616a35.903 35.903 0 005.625 9.314c2.46 2.811 5.273 5.037 8.436 6.677 3.164 1.523 6.386 2.285 9.667 2.285zm57.789-8.962c0-5.975 1.641-11.189 4.922-15.64 3.398-4.57 8.085-8.084 14.061-10.545 5.976-2.46 12.83-3.69 20.564-3.69 3.867 0 7.792.293 11.776.879 3.984.586 7.441 1.523 10.37 2.811v-4.92c0-5.858-1.758-10.368-5.273-13.531-3.398-3.164-8.495-4.745-15.291-4.745-5.039 0-9.843.878-14.413 2.636-4.57 1.757-9.374 4.334-14.412 7.732l-7.558-15.464c6.093-3.984 12.303-6.971 18.631-8.963 6.444-1.991 13.182-2.987 20.213-2.987 13.123 0 23.317 3.28 30.582 9.84 7.382 6.561 11.073 15.934 11.073 28.118v29.347c0 2.46.41 4.218 1.231 5.272.937 1.055 2.402 1.699 4.394 1.933v19.155c-2.109.352-4.043.644-5.801.879-1.64.234-3.046.351-4.218.351-4.687 0-8.261-1.054-10.721-3.163-2.344-2.109-3.809-4.686-4.394-7.732l-.528-4.745c-3.984 5.155-8.964 9.138-14.94 11.95-5.975 2.812-12.069 4.217-18.279 4.217-6.093 0-11.6-1.23-16.522-3.69-4.804-2.577-8.612-6.033-11.424-10.368-2.695-4.452-4.043-9.431-4.043-14.937zm57.299 4.744c1.289-1.406 2.343-2.811 3.164-4.217.82-1.406 1.23-2.695 1.23-3.866v-9.314c-2.812-1.172-5.859-2.05-9.14-2.636-3.281-.703-6.386-1.055-9.315-1.055-6.093 0-11.132 1.348-15.116 4.042-3.866 2.578-5.8 6.034-5.8 10.368 0 2.344.645 4.57 1.934 6.678 1.288 2.109 3.163 3.808 5.624 5.097 2.461 1.288 5.39 1.933 8.788 1.933 3.515 0 6.972-.645 10.37-1.933 3.398-1.406 6.152-3.105 8.261-5.097zm95.829 24.251c-15.818 0-27.829-4.627-36.031-13.882-8.085-9.373-12.128-23.021-12.128-40.946 0-11.247.996-20.737 2.988-28.469 1.992-7.732 4.922-14.117 8.788-19.155 3.867-5.037 8.73-9.138 14.589-12.3 5.976-3.164 12.83-5.683 20.564-7.557L895.936 2l.351 19.155-39.019 10.192c-5.625 1.64-10.546 3.925-14.764 6.854-4.219 2.812-7.617 6.502-10.195 11.071-2.46 4.452-4.042 10.075-4.745 16.87 3.515-5.74 8.319-10.25 14.412-13.531 6.093-3.398 13.475-5.096 22.146-5.096 8.203 0 15.409 1.757 21.619 5.272 6.211 3.514 11.015 8.376 14.413 14.585 3.515 6.21 5.273 13.415 5.273 21.615 0 8.787-1.875 16.636-5.625 23.549-3.632 6.795-9.022 12.125-16.17 15.991-7.03 3.866-15.701 5.799-26.013 5.799zm0-20.033c7.265 0 13.007-2.167 17.225-6.502 4.336-4.452 6.503-10.31 6.503-17.573 0-7.03-2.109-12.77-6.327-17.222-4.219-4.452-10.019-6.678-17.401-6.678-4.57 0-8.671.937-12.303 2.812-3.515 1.874-6.328 4.627-8.437 8.26-2.109 3.514-3.164 7.79-3.164 12.828 0 4.686.938 8.845 2.813 12.477 1.874 3.631 4.569 6.502 8.085 8.61 3.632 1.992 7.968 2.988 13.006 2.988zm105.998 20.033c-7.5 0-14.237-1.23-20.213-3.69-5.976-2.577-11.073-6.092-15.292-10.544-4.101-4.452-7.264-9.548-9.491-15.289-2.226-5.74-3.339-11.774-3.339-18.1 0-6.444 1.113-12.536 3.339-18.276 2.227-5.74 5.39-10.837 9.491-15.289 4.219-4.452 9.316-7.908 15.292-10.368 5.976-2.578 12.713-3.866 20.213-3.866 7.499 0 14.178 1.288 20.037 3.866 5.975 2.46 11.073 5.916 15.291 10.368 4.215 4.452 7.385 9.548 9.495 15.289 2.22 5.74 3.34 11.832 3.34 18.276 0 6.326-1.12 12.36-3.34 18.1-2.11 5.741-5.28 10.837-9.495 15.289-4.101 4.452-9.14 7.967-15.116 10.544-5.976 2.46-12.713 3.69-20.212 3.69zm-24.08-47.623c0 5.39 1.055 10.192 3.164 14.41 2.109 4.1 4.98 7.322 8.612 9.665 3.633 2.343 7.734 3.515 12.304 3.515 4.452 0 8.495-1.172 12.127-3.515 3.633-2.46 6.503-5.74 8.613-9.841 2.226-4.217 3.339-9.02 3.339-14.41 0-5.272-1.113-10.017-3.339-14.234-2.11-4.218-4.98-7.498-8.613-9.841-3.632-2.343-7.675-3.515-12.127-3.515-4.57 0-8.671 1.23-12.304 3.69-3.632 2.344-6.503 5.624-8.612 9.842-2.109 4.1-3.164 8.845-3.164 14.234zm109.403 45.866V61.046h-29.18v-20.56h82.08v20.56h-29.35v71.523h-23.55zm66.1 0V40.485h23.55v28.996h16.17c11.13 0 19.63 2.812 25.49 8.435 5.86 5.624 8.79 13.063 8.79 22.318 0 6.21-1.29 11.774-3.87 16.695-2.46 4.92-6.09 8.786-10.9 11.598-4.8 2.695-10.78 4.042-17.93 4.042h-41.3zm23.55-17.925h14.06c3.28 0 5.92-.644 7.91-1.933 1.99-1.288 3.46-2.987 4.4-5.096 1.05-2.109 1.58-4.51 1.58-7.205 0-2.577-.47-4.862-1.41-6.853-.94-2.11-2.46-3.75-4.57-4.921-1.99-1.289-4.69-1.933-8.08-1.933h-13.89v27.941zm64.86 17.925V40.661H1227v91.908h-23.55z" stroke="#272827" stroke-width="2" mask="url(#a)"/></svg>