<svg viewBox="0 0 830 728" fill="none" xmlns="http://www.w3.org/2000/svg" preserveAspectRatio="none"><path fill-rule="evenodd" clip-rule="evenodd" d="M51.745 698.05v28.232c0 .122 0 .368.122.491.246.491.859.613 1.227.368l50.395-29.091v28.232c0 .122 0 .368.123.491.245.491.858.613 1.226.368l50.396-29.091v28.232c0 .122 0 .368.123.491.245.491.858.613 1.226.368l50.396-29.091v28.232c0 .122 0 .368.123.491.245.491.858.613 1.226.368l50.396-29.091v28.232c0 .122 0 .368.122.491.245.491.859.613 1.226.368l50.396-29.091v28.232c0 .122 0 .368.123.491.245.491.858.613 1.226.368l50.396-29.091v28.232c0 .122 0 .368.123.491.245.491.858.613 1.226.368l50.396-29.091v28.232c0 .122 0 .368.122.491.246.491.859.613 1.227.368l50.395-29.091v28.232c0 .122 0 .368.123.491.245.491.858.613 1.226.368l50.396-29.091v28.232c0 .122 0 .368.123.491.245.491.858.613 1.226.368l50.396-29.091v28.232c0 .122 0 .368.123.491.245.491.858.613 1.226.368l50.396-29.091v28.232c0 .122 0 .368.122.491.246.491.859.613 1.226.368l50.396-29.091v28.232c0 .122 0 .368.123.491.245.491.858.613 1.226.368l50.396-29.091v28.232c0 .122 0 .368.123.491.245.491.858.613 1.226.368l50.396-29.091v28.232c0 .122 0 .368.122.491.246.491.859.613 1.227.368l51.99-30.073.367-.368c.246-.491.123-.982-.367-1.227l-24.769-14.239 24.769-14.361.367-.368c.246-.491.123-.982-.367-1.228l-24.769-14.361 24.769-14.361.367-.368c.246-.491.123-.982-.367-1.228l-24.892-14.361 24.892-14.361.367-.368c.246-.491.123-.982-.367-1.228l-24.892-14.361 24.892-14.361.367-.368c.246-.491.123-.982-.367-1.228l-24.647-14.238 24.647-14.238.367-.369c.246-.491.123-.982-.367-1.227l-24.524-14.116 24.401-14.115.368-.369c.245-.491.122-.982-.368-1.227l-24.646-14.484 24.769-14.361.367-.368c.246-.491.123-.982-.367-1.228l-24.769-14.361 24.769-14.361.367-.368c.246-.491.123-.982-.367-1.228l-24.892-14.238 24.891-14.361.368-.369c.246-.491.123-.982-.368-1.227l-24.891-14.361 24.891-14.361.368-.369c.246-.491.123-.982-.368-1.227l-24.646-14.238 24.646-14.239.368-.368c.246-.491.123-.982-.368-1.228l-24.523-14.115 24.401-14.116.368-.368c.245-.491.122-.982-.368-1.228l-24.646-14.606 24.768-14.361.368-.369c.246-.491.123-.982-.368-1.227l-24.768-14.239 24.768-14.361.368-.368c.246-.491.123-.982-.368-1.227l-24.891-14.362 24.891-14.361.368-.368c.246-.491.123-.982-.368-1.227l-24.891-14.361 24.891-14.362.368-.368c.246-.491.123-.982-.368-1.227l-24.646-14.239 24.646-14.238.368-.368c.246-.491.123-.982-.368-1.228l-24.523-14.115 24.401-14.116.368-.368c.245-.491.122-.982-.368-1.228l-24.646-14.607 24.768-14.361.368-.368c.246-.491.123-.982-.368-1.227l-24.768-14.239 24.768-14.36.368-.37c.246-.49.123-.981-.368-1.227l-24.891-14.36 24.891-14.362.368-.368c.246-.491.123-.982-.368-1.228l-24.891-14.36 24.891-14.362.368-.368c.246-.491.123-.982-.368-1.228l-25.504-14.729a1.695 1.695 0 00-.368-.491L777.519.123c-.122-.123-.245-.123-.49-.123-.49 0-.981.368-.981.982v28.477L752.26 15.71a1.676 1.676 0 00-.368-.49L725.775.122C725.652 0 725.53 0 725.284 0c-.49 0-.981.368-.981.982v28.477L700.516 15.71c-.123-.245-.246-.368-.368-.49L674.03.122C673.907 0 673.785 0 673.54 0c-.491 0-.981.368-.981.982v28.477L648.771 15.71a1.695 1.695 0 00-.368-.49L622.285.122C622.163 0 622.04 0 621.795 0c-.491 0-.981.368-.981.982v28.477L597.026 15.71a1.695 1.695 0 00-.368-.49L570.663.122C570.418 0 570.295 0 570.05 0c-.49 0-.981.368-.981.982v28.477L545.281 15.71c-.122-.245-.245-.368-.367-.49L518.919.122C518.673 0 518.551 0 518.428 0c-.49 0-.981.368-.981.982v28.477L493.659 15.71a1.667 1.667 0 00-.368-.49L467.174.122C466.929 0 466.806 0 466.683 0c-.49 0-.981.368-.981.982v28.477L441.915 15.71c-.123-.245-.246-.368-.368-.49L415.429.122c-.245-.123-.368-.123-.49-.123-.491 0-.981.368-.981.982v28.477L390.17 15.71a1.695 1.695 0 00-.368-.49L363.684.122c-.122-.123-.367-.123-.49-.123-.491 0-.981.368-.981.982v28.477L338.425 15.71a1.667 1.667 0 00-.368-.49L311.94.122C311.817 0 311.572 0 311.449 0c-.49 0-.981.368-.981.982v28.477L286.68 15.71c-.122-.245-.245-.368-.367-.49L260.195.122c-.123-.123-.368-.123-.49-.123-.491 0-.981.368-.981.982v28.477L234.936 15.71c-.123-.245-.246-.368-.368-.49L208.45.122C208.328 0 208.082 0 207.96 0c-.491 0-.981.368-.981.982v28.477L183.191 15.71a1.693 1.693 0 00-.368-.49L156.706.122C156.583 0 156.338 0 156.215 0c-.49 0-.981.368-.981.982v28.477L131.446 15.71a1.667 1.667 0 00-.368-.49L104.961.122C104.838 0 104.593 0 104.47 0c-.49 0-.981.368-.981.982v28.477L79.824 15.71a1.693 1.693 0 00-.368-.49L53.216.122C53.093 0 52.848 0 52.726 0c-.49 0-.981.368-.981.982v28.477L28.08 15.71c-.123-.245-.246-.368-.368-.49L1.472.122C1.348 0 1.225 0 .98 0 .49 0 0 .368 0 .982v726.036c0 .123 0 .368.123.491.245.491.858.614 1.226.368l50.396-29.827zm0-30.195v26.636l-23.052-13.257 23.052-13.379zm0-30.195v26.636l-23.052-13.38 23.052-13.256zm0-30.441v26.758L28.57 620.598l23.175-13.379zm0-30.318v26.758L28.57 590.28l23.175-13.379zm0-30.195v26.635l-23.052-13.256 23.052-13.379zm0-29.827v26.39l-22.807-13.134 22.807-13.256zm0-30.318v26.636l-23.052-13.38 23.052-13.256zm0-30.195v26.635l-23.052-13.379 23.052-13.256zm0-30.441v26.758L28.57 439.427l23.175-13.502zm0-30.318v26.758L28.57 408.986l23.175-13.379zm0-30.195v26.635l-23.052-13.256 23.052-13.379zm1.962-3.192v-27.004l23.297 13.502-23.297 13.502zm-1.962-26.635v26.267l-22.807-13.134 22.807-13.133zm0-30.318v26.635l-23.052-13.379 23.052-13.256zm0-30.196v26.636l-23.052-13.256 23.052-13.38zm0-30.318v26.759L28.57 258.133l23.175-13.38zm0-30.44v26.758L28.57 227.692l23.175-13.379zm0-30.196v26.636l-23.052-13.256 23.052-13.38zm0-29.827v26.391l-22.807-13.134 22.807-13.257zM25.872 591.876v26.758L2.698 605.255l23.174-13.379zm724.426 0v26.758l-23.174-13.379 23.174-13.379zM51.745 33.018v26.759L28.57 46.397l23.175-13.379zm0 30.441v26.758L28.57 76.838 51.745 63.46zm0 30.318v26.636l-23.052-13.257 23.052-13.379zm0 30.195v26.636l-23.052-13.379 23.052-13.257zm-25.873 41.734L2.82 152.326l23.052-13.379v26.759zm1.962.245v-27.004l23.298 13.502-23.298 13.502zm-2.575-28.722L1.962 150.731v-27.004l23.297 13.502zm.613-1.841L2.82 122.131l23.052-13.379v26.636zm1.962.368v-27.004l23.298 13.502-23.298 13.502zm-1.962-30.564L2.698 91.813l23.174-13.379v26.758zm1.962.369V78.557l23.298 13.502-23.298 13.502zm-1.962-30.81L2.698 61.373l23.174-13.379v26.759zm1.962.369V48.116l23.298 13.502L27.834 75.12zm-1.962-30.686L2.942 31.177l22.93-13.256v26.513zm1.962.368V17.798L51.132 31.3 27.834 44.802zm-1.962 150.731L3.065 182.399l22.807-13.134v26.268zm-.613-28.109L1.962 180.926v-27.004l23.297 13.502zm2.575 28.477v-27.004l23.298 13.502-23.298 13.502zm-1.962 150.976L2.82 333.621l23.052-13.38v26.636zm1.962.368v-27.004l23.298 13.502-23.298 13.502zm-2.575-28.722L1.962 332.025v-27.004l23.297 13.502zm.613-1.841L2.82 303.303l23.052-13.38v26.759zm1.962.368v-27.004l23.298 13.502-23.298 13.502zm-1.962-30.563l-23.174-13.38 23.174-13.379v26.759zm1.962.245v-27.004l23.298 13.502-23.298 13.502zm-1.962-30.686L2.698 242.667l23.174-13.379v26.758zm1.962.368V229.41l23.298 13.502-23.298 13.502zm-1.962-30.686l-22.93-13.379 22.93-13.257v26.636zm1.962.245V198.97l23.298 13.501-23.298 13.502zm-1.962 150.854L3.065 363.693l22.807-13.134v26.268zm-.613-28.109L1.962 362.22v-27.004l23.297 13.502zm2.575 28.477v-27.004l23.298 13.502-23.298 13.502zm-1.962 150.976L2.82 514.915l23.052-13.379v26.635zm1.962.369v-27.004l23.298 13.502-23.298 13.502zm-2.575-28.845L1.962 513.197v-27.004l23.297 13.502zm.613-1.719L2.82 484.597l23.052-13.257v26.636zm1.962.368V471.34l23.298 13.502-23.298 13.502zm-1.962-30.563L2.698 454.402l23.174-13.38v26.759zm1.962.245v-27.004l23.298 13.502-23.298 13.502zm-1.962-30.686L2.698 423.961l23.174-13.379v26.758zm1.962.368v-27.004l23.298 13.502-23.298 13.502zm-1.962-30.686L2.82 393.766l22.93-13.257.122 26.513zm1.962.246v-27.004l23.298 13.502-23.298 13.502zm-1.962 150.853L3.188 544.987l22.807-13.133-.123 26.267zm-.613-28.108L1.962 543.514v-27.003l23.297 13.502zm2.575 28.476v-27.004l23.298 13.502-23.298 13.502zm-1.962 150.977L2.82 696.086l23.052-13.379v26.759zm1.962.368V682.83l23.298 13.502-23.298 13.502zm-2.575-28.845L1.962 694.491v-27.004l23.297 13.502zm.613-1.719L2.82 665.891l23.052-13.379v26.758zm1.962.369v-27.004l23.298 13.502-23.298 13.502zm-1.962-30.687L2.698 635.573l23.174-13.379v26.758zm1.962.369v-27.004l23.298 13.502-23.298 13.502zm0-30.318v-27.004l23.298 13.502-23.298 13.502zm-1.962-57.322v26.635L2.82 575.06l23.052-13.379zm1.962 26.881v-27.004l23.298 13.502-23.298 13.502zM1.962 29.582V2.578L25.259 16.08 1.962 29.582zm0 90.831V93.409l23.297 13.502-23.297 13.502zm0-30.318V63.09l23.297 13.502L1.962 90.095zm0-30.441V32.65l23.297 13.502L1.962 59.654zm0 151.222v-27.004l23.297 13.502-23.297 13.502zm0 154.29l23.297 13.502L1.962 392.17v-27.004zm0-63.459v-27.004l23.297 13.502-23.297 13.502zm0-30.318v-27.004l23.297 13.502-23.297 13.502zm0-30.441v-27.004l23.297 13.502-23.297 13.502zm0 242.053v-27.004l23.297 13.502-23.297 13.502zm0-30.318v-27.004l23.297 13.502-23.297 13.502zm0-30.44v-27.004l23.297 13.502-23.297 13.502zm0 151.098v-27.003l23.297 13.502-23.297 13.501zm0 151.468v-27.004l23.297 13.502-23.297 13.502zm0-60.513v-27.004l23.297 13.502-23.297 13.502zm0-30.441v-27.004l23.297 13.502-23.297 13.502zm0-30.318v-27.004l23.297 13.502-23.297 13.502zm230.889-11.661v26.758l-23.174-13.379 23.174-13.379zM103.489 154.29v26.391l-22.806-13.134 22.806-13.257zm-25.872 11.416l-23.052-13.38 23.052-13.379v26.759zm2.82-28.354l23.052-13.38v26.636l-23.052-13.256zm-.858 28.599v-27.004l23.297 13.502-23.297 13.502zm-2.575-28.722l-23.297 13.502v-27.004l23.297 13.502zm.613-1.841l-23.052-13.257 23.052-13.379v26.636zm2.82-28.232l23.052-13.379v26.636l-23.052-13.257zm-.858 28.6v-27.004l23.297 13.502-23.297 13.502zm-1.962-30.564L54.442 91.813l23.175-13.502v26.881zm2.698-28.354l23.174-13.379v26.758L80.315 76.838zm-.736 28.723V78.557l23.297 13.502-23.297 13.502zm-1.962-30.81L54.442 61.373l23.175-13.379v26.759zm2.698-28.353l23.174-13.38v26.759l-23.174-13.38zm-.736 28.722V48.116l23.297 13.502L79.579 75.12zm-1.962-30.686l-22.93-13.257 22.93-13.379v26.636zm206.979-26.636v26.636l-23.052-13.257 23.052-13.379zm0 30.195v26.759l-23.175-13.38 23.175-13.379zm0 30.318v26.759l-23.175-13.38 23.175-13.379zm0 30.441v26.636l-23.052-13.257 23.052-13.379zm0 30.195v26.636l-23.052-13.257 23.052-13.379zm0 30.318v26.39l-22.807-13.133 22.807-13.257zm0 29.827v26.636l-22.93-13.379 22.93-13.257zm0 30.195v26.759l-23.175-13.379 23.175-13.38zm0 30.318v26.759l-23.175-13.379 23.175-13.38zm0 30.441v26.636l-23.052-13.379 23.052-13.257zm0 30.195v26.636l-23.052-13.256 23.052-13.38zm0 30.196v26.39l-22.807-13.134 22.807-13.256zm0 29.949v26.636l-23.052-13.256 23.052-13.38zm0 30.196v26.758l-23.175-13.379 23.175-13.379zm0 30.318v26.758l-23.175-13.379 23.175-13.379zm0 30.44v26.636l-23.052-13.379 23.052-13.257zm0 30.196v26.635l-23.052-13.256 23.052-13.379zm0 30.195v26.39l-22.807-13.134 22.807-13.256zm0 29.95v26.635l-23.052-13.256 23.052-13.379zm0 30.195v26.758l-23.175-13.379 23.175-13.379zm0 30.318v26.758l-23.175-13.379 23.175-13.379zm0 30.441v26.635l-23.052-13.379 23.052-13.256zm0 30.195v26.636l-23.052-13.38 23.052-13.256zM79.579 44.802V17.798L102.876 31.3 79.579 44.802zm23.91 139.315v26.636l-23.052-13.256 23.052-13.38zm-25.872 11.416L54.81 182.399l22.807-13.134v26.268zm-.613-28.109l-23.297 13.502v-27.004l23.297 13.502zm2.575 28.477v-27.004l23.297 13.502-23.297 13.502zm23.91 139.684v26.267l-22.806-13.134 22.806-13.133zm-25.872 11.292l-23.052-13.379 23.052-13.257v26.636zm2.82-28.231l23.052-13.379v26.635l-23.052-13.256zm-.858 28.599v-27.004l23.297 13.502-23.297 13.502zm-2.575-28.722l-23.297 13.502v-27.004l23.297 13.502zm.613-1.841l-23.052-13.379 23.052-13.257v26.636zm2.82-28.231l23.052-13.38v26.636l-23.052-13.256zm-.858 28.599v-27.004l23.297 13.502-23.297 13.502zm-1.962-30.563l-23.175-13.38 23.175-13.502v26.882zm2.698-28.354l23.174-13.38v26.759l-23.174-13.379zm-.736 28.599v-27.004l23.297 13.502-23.297 13.502zm-1.962-30.686l-23.175-13.379 23.175-13.38v26.759zm2.698-28.354l23.174-13.379v26.758l-23.174-13.379zm-.736 28.722V229.41l23.297 13.502-23.297 13.502zm-1.962-30.686l-22.93-13.379 22.93-13.257v26.636zm1.962.245V198.97l23.297 13.501-23.297 13.502zm23.91 139.439v26.635l-23.052-13.256 23.052-13.379zm-25.872 11.415L54.81 363.693l22.807-13.256v26.39zm27.834-14.607v-27.004l23.298 13.502-23.298 13.502zm-25.872 14.975v-27.004l23.297 13.502-23.297 13.502zm23.91 139.684v26.39l-22.806-13.134 22.806-13.256zm-25.872 11.292l-23.052-13.379 23.052-13.256v26.635zm2.82-28.231l23.052-13.379v26.636L80.437 499.94zm-.858 28.6v-27.004l23.297 13.502-23.297 13.502zm-2.575-28.845l-23.297 13.502v-27.004l23.297 13.502zm.613-1.719l-23.052-13.379 23.052-13.257v26.636zm2.82-28.354l23.052-13.379v26.636l-23.052-13.257zm-.858 28.722V471.34l23.297 13.502-23.297 13.502zm-1.962-30.563l-23.175-13.379L77.617 440.9v26.881zm2.698-28.354l23.174-13.379v26.758l-23.174-13.379zm-.736 28.599v-27.004l23.297 13.502-23.297 13.502zm-1.962-30.686l-23.175-13.379 23.175-13.379v26.758zm2.698-28.354l23.174-13.379v26.758l-23.174-13.379zm-.736 28.722v-27.004l23.297 13.502-23.297 13.502zm-1.962-30.686l-23.052-13.256 23.052-13.38v26.636zm1.962.246v-27.004l23.297 13.502-23.297 13.502zm23.91 139.438v26.635l-23.052-13.256 23.052-13.379zm-25.872 11.415l-22.684-13.134 22.684-13.256v26.39zm-.613-28.108l-23.297 13.501v-27.003l23.297 13.502zm2.575 28.476v-27.004l23.297 13.502-23.297 13.502zm-1.962 150.977l-23.052-13.38 23.052-13.256v26.636zm2.82-28.232l23.052-13.379v26.636l-23.052-13.257zm-.858 28.6V682.83l23.297 13.502-23.297 13.502zm-2.575-28.845l-23.297 13.502v-27.004l23.297 13.502zm.613-1.719l-23.052-13.379 23.052-13.256v26.635zm2.82-28.354l23.052-13.379v26.636l-23.052-13.257zm-.858 28.723v-27.004l23.297 13.502-23.297 13.502zm-1.962-30.687l-23.175-13.379 23.175-13.379v26.758zm2.698-28.354l23.174-13.379v26.758l-23.174-13.379zm-.736 28.723v-27.004l23.297 13.502-23.297 13.502zm-1.962-30.687l-23.175-13.379 23.175-13.379v26.758zm2.698-28.354l23.174-13.379v26.758L80.315 590.28zm-.736 28.723v-27.004l23.297 13.502-23.297 13.502zm-1.962-30.809l-23.052-13.257 23.052-13.256v26.513zm1.962.368v-27.004l23.297 13.502-23.297 13.502zM53.707 29.582V2.578L77.004 16.08 53.707 29.582zm0 90.831V93.409l23.297 13.502-23.297 13.502zm0-30.318V63.09l23.297 13.502-23.297 13.502zm0-30.441V32.65l23.297 13.502-23.297 13.502zm0 151.222v-27.004l23.297 13.502-23.297 13.502zm0 154.29l23.297 13.502-23.297 13.502v-27.004zm0-63.459v-27.004l23.297 13.502-23.297 13.502zm0-30.318v-27.004l23.297 13.502-23.297 13.502zm0-30.441v-27.004l23.297 13.502-23.297 13.502zm0 242.053v-27.004l23.297 13.502-23.297 13.502zm0-30.318v-27.004l23.297 13.502-23.297 13.502zm0-30.44v-27.004l23.297 13.502-23.297 13.502zm0 151.098v-27.003l23.297 13.502-23.297 13.501zm0 151.468v-27.004l23.297 13.502-23.297 13.502zm0-60.513v-27.004l23.297 13.502-23.297 13.502zm0-30.441v-27.004l23.297 13.502-23.297 13.502zm0-30.318v-27.004l23.297 13.502-23.297 13.502zM206.979 154.29v26.39l-22.807-13.133 22.807-13.257zm-25.872 11.416l-23.053-13.38 23.053-13.379v26.759zm2.82-28.354l23.052-13.38v26.636l-23.052-13.256zm-.859 28.599v-27.004l23.42 13.502-23.42 13.502zm-2.575-28.722l-23.297 13.502v-27.004l23.297 13.502zm.614-1.841l-23.053-13.38 23.053-13.379v26.759zm2.82-28.232l23.052-13.379v26.636l-23.052-13.257zm-.859 28.6v-27.004l23.298 13.502-23.298 13.502zm-1.961-30.564l-23.175-13.379 23.174-13.379.001 26.758zm2.697-28.354l23.175-13.379v26.758l-23.175-13.379zm-.736 28.723V78.557l23.298 13.502-23.298 13.502zm-1.962-30.81l-23.174-13.379 23.174-13.379v26.759zm2.698-28.353l23.175-13.38v26.759l-23.175-13.38zm-.736 28.722V48.116l23.42 13.502-23.42 13.502zm-1.962-30.686l-23.052-13.257 23.052-13.256v26.513zm1.962.368V17.798l23.42 13.502-23.42 13.502zm23.911 139.315v26.636l-23.052-13.256 23.052-13.38zm-25.872 11.416L158.3 182.399l22.807-13.134v26.268zm-.614-28.109l-23.297 13.502v-27.004l23.297 13.502zm2.575 28.477v-27.004l23.42 13.502-23.42 13.502zm23.911 139.684v26.267l-22.684-13.134 22.684-13.133zm-25.872 11.292l-23.053-13.379 23.053-13.379v26.758zm2.82-28.231l23.052-13.379v26.635l-23.052-13.256zm-.859 28.599v-27.004l23.42 13.502-23.42 13.502zm-2.575-28.722l-23.297 13.502v-27.004l23.297 13.502zm.614-1.841l-23.053-13.379 23.053-13.38v26.759zm2.82-28.231l23.052-13.38v26.636l-23.052-13.256zm-.859 28.599v-27.004l23.298 13.502-23.298 13.502zm-1.961-30.563l-23.175-13.38 23.175-13.379v26.759zm2.697-28.354l23.175-13.38v26.759l-23.175-13.379zm-.736 28.599v-27.004l23.42 13.502-23.42 13.502zm-1.961-30.686l-23.175-13.379 23.175-13.38v26.759zm2.697-28.354l23.175-13.379v26.758l-23.175-13.379zm-.736 28.722V229.41l23.42 13.502-23.42 13.502zm-1.961-30.686l-22.93-13.379 23.052-13.257-.122 26.636zm1.961.245v-27.004l23.42 13.502-23.42 13.502zm23.911 139.439v26.635l-23.052-13.256 23.052-13.379zm-25.872 11.415L158.3 363.693l22.807-13.134v26.268zm-.614-28.109l-23.297 13.502v-27.004l23.297 13.502zm28.325 13.502v-27.004l23.298 13.502-23.298 13.502zm-25.75 14.975v-27.004l23.298 13.502-23.298 13.502zm23.911 139.684v26.39l-22.807-13.134 22.807-13.256zm-25.872 11.292l-23.053-13.379 23.053-13.379v26.758zm2.82-28.231l23.052-13.379v26.636l-23.052-13.257zm-.859 28.6v-27.004l23.42 13.502-23.42 13.502zm-2.575-28.845l-23.297 13.502v-27.004l23.297 13.502zm.614-1.719l-23.053-13.379 23.053-13.379v26.758zm2.82-28.354l23.052-13.379v26.635l-23.052-13.256zm-.859 28.722V471.34l23.298 13.502-23.298 13.502zm-1.961-30.563l-23.175-13.379 23.175-13.38v26.759zm2.697-28.354l23.175-13.379v26.758l-23.175-13.379zm-.736 28.599v-27.004l23.42 13.502-23.42 13.502zm-1.961-30.686l-23.175-13.379 23.175-13.379v26.758zm2.697-28.354l23.175-13.379v26.758l-23.175-13.379zm-.736 28.722v-27.004l23.42 13.502-23.42 13.502zm-1.961-30.686l-23.053-13.256 23.053-13.257v26.513zm1.961.246v-27.004l23.42 13.502-23.42 13.502zm23.911 139.438v26.635l-23.052-13.256 23.052-13.379zm-25.872 11.415l-22.685-13.134 22.807-13.133-.122 26.267zm-.614-28.109l-23.297 13.502v-27.003l23.297 13.501zm2.575 28.477v-27.004l23.42 13.502-23.42 13.502zm-1.961 150.977l-23.053-13.38 23.053-13.379v26.759zm2.82-28.232l23.052-13.379v26.636l-23.052-13.257zm-.859 28.6V682.83l23.42 13.502-23.42 13.502zm-2.575-28.845l-23.297 13.502v-27.004l23.297 13.502zm.614-1.719l-23.053-13.379 23.053-13.379v26.758zm2.82-28.354l23.052-13.379v26.636l-23.052-13.257zm-.859 28.723v-27.004l23.298 13.502-23.298 13.502zm-1.961-30.687l-23.175-13.379 23.175-13.379v26.758zm2.697-28.354l23.175-13.379v26.758l-23.175-13.379zm-.736 28.723v-27.004l23.42 13.502-23.42 13.502zm-1.961-30.687l-23.175-13.379 23.175-13.379v26.758zm2.697-28.354l23.175-13.379v26.758l-23.175-13.379zm-.736 28.723v-27.004l23.42 13.502-23.42 13.502zm-1.961-30.809l-23.053-13.257 23.053-13.256v26.513zm1.961.368v-27.004l23.42 13.502-23.42 13.502zm-25.872-558.98V2.578l23.297 13.502-23.297 13.502zm-1.962 150.976l-22.807-13.134 22.807-13.134v26.268zm-.613-28.109l-23.297 13.502v-27.004l23.297 13.502zm.613-1.718l-23.052-13.379 23.052-13.38v26.759zm-.613-28.477l-23.297 13.502v-27.004l23.297 13.502zm.613-1.841l-23.052-13.379 23.052-13.38v26.759zm-.613-28.354l-23.297 13.502V78.557l23.297 13.502zm2.575 28.354V93.409l23.42 13.502-23.42 13.502zm-1.962-30.195l-23.175-13.38 23.175-13.379v26.758zm-.613-28.6L131.324 75.12V48.116l23.297 13.502zm2.575 28.477V63.09l23.42 13.502-23.42 13.502zM155.234 59.9l-23.175-13.38 23.175-13.379V59.9zm-.613-28.6l-23.297 13.502V17.798L154.621 31.3zm2.575 28.354V32.65l23.297 13.502-23.297 13.502zm-1.962 151.099l-22.929-13.256 22.929-13.257v26.513zm-.613-28.354l-23.297 13.502v-27.004l23.297 13.502zm2.575 28.477v-27.004l23.297 13.502-23.297 13.502zm0 154.29l23.297 13.502-23.297 13.502v-27.004zm-1.962-3.314l-22.807-13.134 22.807-13.133v26.267zm-.613-28.109l-23.297 13.502v-27.004l23.297 13.502zm.613-1.718l-23.052-13.379 23.052-13.379v26.758zm-.613-28.477l-23.297 13.502v-27.004l23.297 13.502zm.613-1.841l-23.052-13.256 23.052-13.38v26.636zm-.613-28.477l-23.297 13.502v-27.004l23.297 13.502zm2.575 28.477v-27.004l23.42 13.502-23.42 13.502zm-1.962-30.195l-23.175-13.379 23.175-13.38v26.759zm-.613-28.6l-23.297 13.502V229.41l23.297 13.502zm2.575 28.477v-27.004l23.42 13.502-23.42 13.502zm-1.962-30.318l-23.175-13.379 23.175-13.379v26.758zm-.613-28.6l-23.297 13.502V198.97l23.297 13.501zm2.575 28.477v-27.004l23.297 13.502-23.297 13.502zm-1.962 151.099l-22.929-13.256 22.929-13.257v26.513zm-.613-28.354l-23.297 13.502v-27.004l23.297 13.502zm.613 179.453l-22.807-13.133 22.807-13.134v26.267zm-.613-28.108l-23.297 13.502v-27.004l23.297 13.502zm.613-1.841l-23.052-13.38 23.052-13.379v26.759zm-.613-28.355l-23.297 13.502V471.34l23.297 13.502zm.613-1.841l-23.052-13.379 23.052-13.379v26.758zm-.613-28.477l-23.297 13.502v-27.004l23.297 13.502zm2.575 28.477v-27.004l23.42 13.502-23.42 13.502zm-1.962-30.195l-23.175-13.379 23.175-13.379v26.758zm-.613-28.6l-23.297 13.502v-27.004l23.297 13.502zm2.575 28.477v-27.004l23.42 13.502-23.42 13.502zm-1.962-30.318l-23.175-13.379 23.175-13.379v26.758zm-.613-28.599l-23.297 13.502v-27.004l23.297 13.502zm2.575 28.477v-27.004l23.297 13.502-23.297 13.502zm-1.962 151.098l-22.929-13.256 22.929-13.256v26.512zm-.613-28.354l-23.297 13.502v-27.004l23.297 13.502zm2.575 28.354v-27.003l23.297 13.502-23.297 13.501zm-2.575 122.991l-23.297 13.502V682.83l23.297 13.502zm2.575 28.477v-27.004l23.42 13.502-23.42 13.502zm-1.962-30.318l-23.052-13.257 23.052-13.379v26.636zm-.613-28.354l-23.297 13.502v-27.004l23.297 13.502zm.613-1.841l-23.052-13.38 23.052-13.379v26.759zm-.613-28.477l-23.297 13.502v-27.004l23.297 13.502zm2.575 28.477v-27.004l23.42 13.502-23.42 13.502zm-1.962-30.196l-23.175-13.379 23.175-13.379V634.1zm-.613-28.599l-23.297 13.502v-27.004l23.297 13.502zm2.575 28.354v-27.004l23.42 13.502-23.42 13.502zm-1.962-30.196l-23.175-13.379 23.175-13.379v26.758zm-.613-28.599l-23.297 13.502v-27.004l23.297 13.502zm2.575 28.477v-27.004l23.297 13.502-23.297 13.502zm-27.834-437.831l-23.052-13.38 23.052-13.379v26.759zm-.613-28.477l-23.298 13.502v-27.004l23.298 13.502zm.613-1.841l-23.052-13.38 23.052-13.379v26.759zm0-30.196l-23.175-13.379 23.175-13.379v26.758zm0-30.44l-23.175-13.38 23.175-13.379v26.759zm0-30.318L106.31 31.177l23.052-13.256v26.513zm0 151.099l-22.807-13.134 22.807-13.134v26.268zm-.613-28.109l-23.298 13.502v-27.004l23.298 13.502zm.613 179.453l-23.052-13.379 23.052-13.379v26.758zm-.613-28.354l-23.298 13.502v-27.004l23.298 13.502zm.613-1.841l-23.052-13.379 23.052-13.38v26.759zm0-30.195l-23.175-13.38 23.175-13.379v26.759zm0-30.441l-23.175-13.379 23.175-13.38v26.759zm0-30.318l-22.93-13.379 23.052-13.257-.122 26.636zm0 151.099l-22.807-13.134 22.807-13.134v26.268zm0 151.344l-23.052-13.379 23.052-13.379v26.758zm-.613-28.476l-23.298 13.502v-27.004l23.298 13.502zm.613-1.719l-23.052-13.379 23.052-13.379v26.758zm0-30.195l-23.175-13.379 23.175-13.38v26.759zm0-30.441l-23.175-13.379 23.175-13.379v26.758zm0-30.318l-23.052-13.256 23.052-13.257v26.513zm0 151.099l-22.684-13.134 22.806-13.133-.122 26.267zm-.613-28.108l-23.298 13.501v-27.003l23.298 13.502zm.613 179.453l-23.052-13.38 23.052-13.379v26.759zm-.613-28.477l-23.298 13.502v-27.004l23.298 13.502zm.613-1.719l-23.052-13.379 23.052-13.379v26.758zm0-30.318l-23.175-13.379 23.175-13.379v26.758zm0-30.318l-23.175-13.379 23.175-13.379v26.758zm0-30.44l-23.052-13.257 23.052-13.256v26.513zM105.451 29.582V2.578l23.298 13.502-23.298 13.502zm0 90.831V93.409l23.298 13.502-23.298 13.502zm0-30.318V63.09l23.298 13.502-23.298 13.502zm0-30.441V32.65l23.298 13.502-23.298 13.502zm0 151.222v-27.004l23.298 13.502-23.298 13.502zm0 154.29l23.298 13.502-23.298 13.502v-27.004zm0-63.459v-27.004l23.298 13.502-23.298 13.502zm0-30.318v-27.004l23.298 13.502-23.298 13.502zm0-30.441v-27.004l23.298 13.502-23.298 13.502zm0 242.053v-27.004l23.298 13.502-23.298 13.502zm0-30.318v-27.004l23.298 13.502-23.298 13.502zm0-30.44v-27.004l23.298 13.502-23.298 13.502zm0 151.098v-27.003l23.298 13.502-23.298 13.501zm0 151.468v-27.004l23.298 13.502-23.298 13.502zm0-60.513v-27.004l23.298 13.502-23.298 13.502zm0-30.441v-27.004l23.298 13.502-23.298 13.502zm0-30.318v-27.004l23.298 13.502-23.298 13.502zM260.563 29.581V2.579L283.86 16.08l-23.297 13.502zm-1.839 150.977l-22.807-13.134 22.807-13.134v26.268zm-.614-28.109l-23.297 13.502v-27.004l23.297 13.502zm2.453 28.477v-27.004l23.42 13.502-23.42 13.502zm-1.839-30.195l-23.053-13.379 23.053-13.38v26.759zm-.614-28.477l-23.297 13.502v-27.004l23.297 13.502zm2.453 28.477v-27.004l23.297 13.502-23.297 13.502zm-1.839-30.318l-23.053-13.379 23.053-13.38v26.759zm-.614-28.354l-23.297 13.502V78.557l23.297 13.502zm2.453 28.354V93.409l23.42 13.502-23.42 13.502zm-1.839-30.195l-23.175-13.38 23.175-13.379v26.758zm-.614-28.6L234.813 75.12V48.116l23.297 13.502zm2.453 28.477V63.09l23.42 13.502-23.42 13.502zM258.724 59.9l-23.175-13.38 23.175-13.379V59.9zm-.614-28.6l-23.297 13.502V17.798L258.11 31.3zm2.453 28.354V32.65l23.297 13.502-23.297 13.502zm-1.839 151.099l-22.93-13.256 23.052-13.257-.122 26.513zm-.614-28.354l-23.297 13.502v-27.004l23.297 13.502zm2.453 28.477v-27.004l23.297 13.502-23.297 13.502zm0 154.29l23.297 13.502-23.297 13.502v-27.004zm-1.839-3.314l-22.807-13.134 22.807-13.133v26.267zm-.613-28.109l-23.298 13.502v-27.004l23.298 13.502zm2.452 28.477v-27.004l23.42 13.502-23.42 13.502zm-1.839-30.195l-23.053-13.379 23.053-13.379v26.758zm-.613-28.477l-23.298 13.502v-27.004l23.298 13.502zm2.452 28.477v-27.004l23.297 13.502-23.297 13.502zm-1.839-30.318l-23.053-13.256 23.053-13.38v26.636zm-.614-28.477l-23.297 13.502v-27.004l23.297 13.502zm2.453 28.477v-27.004l23.42 13.502-23.42 13.502zm-1.839-30.195l-23.175-13.379 23.175-13.38v26.759zm-.614-28.6l-23.297 13.502V229.41l23.297 13.502zm2.453 28.477v-27.004l23.42 13.502-23.42 13.502zm-1.839-30.318l-23.175-13.379 23.175-13.379v26.758zm-.614-28.6l-23.297 13.502v-27.004l23.297 13.502zm2.453 28.477v-27.004l23.297 13.502-23.297 13.502zm-1.839 151.099l-22.93-13.256 23.052-13.257-.122 26.513zm-.613-28.354l-23.298 13.502v-27.004l23.298 13.502zm.613 179.453l-22.807-13.134 22.807-13.133v26.267zm-.613-28.108l-23.298 13.502v-27.004l23.298 13.502zm2.452 28.476v-27.003l23.42 13.501-23.42 13.502zm-1.839-30.317l-23.053-13.38 23.053-13.379v26.759zm-.613-28.355l-23.298 13.502V471.34l23.298 13.502zm2.452 28.355v-27.004l23.297 13.502-23.297 13.502zm-1.839-30.196l-23.053-13.379 23.053-13.379v26.758zm-.613-28.477l-23.298 13.502v-27.004l23.298 13.502zm2.452 28.477v-27.004l23.42 13.502-23.42 13.502zm-1.839-30.195l-23.175-13.379 23.175-13.379v26.758zm-.613-28.6l-23.298 13.502v-27.004l23.298 13.502zm2.452 28.477v-27.004l23.42 13.502-23.42 13.502zm-1.839-30.318l-23.175-13.379 23.175-13.379v26.758zm-.613-28.599l-23.298 13.502v-27.004l23.298 13.502zm2.452 28.477v-27.004l23.297 13.502-23.297 13.502zm-1.839 151.098l-22.93-13.379 23.052-13.256-.122 26.635zm-.613-28.354l-23.298 13.502v-27.004l23.298 13.502zm2.452 28.354v-27.003l23.297 13.502-23.297 13.501zm-2.452 122.991l-23.298 13.502V682.83l23.298 13.502zm2.452 28.477v-27.004l23.42 13.502-23.42 13.502zm-1.839-30.318l-23.053-13.257 23.053-13.379v26.636zm-.613-28.354l-23.298 13.502v-27.004l23.298 13.502zm2.452 28.354v-27.004l23.297 13.502-23.297 13.502zm-1.839-30.195l-23.053-13.38 23.053-13.379v26.759zm-.613-28.477l-23.298 13.502v-27.004l23.298 13.502zm2.452 28.477v-27.004l23.42 13.502-23.42 13.502zm-1.839-30.196l-23.175-13.379 23.175-13.379V634.1zm-.613-28.599l-23.298 13.502v-27.004l23.298 13.502zm2.452 28.354v-27.004l23.42 13.502-23.42 13.502zm-1.839-30.196l-23.175-13.379 23.175-13.379v26.758zm-.613-28.599l-23.298 13.502v-27.004l23.298 13.502zm2.452 28.477v-27.004l23.297 13.502-23.297 13.502zm-27.712-437.831l-23.052-13.38 23.052-13.379v26.759zm-.613-28.477l-23.297 13.502v-27.004l23.297 13.502zm.613-1.841l-23.052-13.38 23.052-13.379v26.759zm0-30.196l-23.175-13.379 23.175-13.379v26.758zm0-30.44l-23.175-13.38 23.175-13.379v26.759zm0-30.318l-23.052-13.257 23.052-13.256v26.513zm0 151.099l-22.807-13.134 22.807-13.134v26.268zm-.613-28.109l-23.297 13.502v-27.004l23.297 13.502zm.613 179.453l-23.052-13.379 23.052-13.379v26.758zm-.613-28.354l-23.297 13.502v-27.004l23.297 13.502zm.613-1.841l-23.052-13.379 23.052-13.38v26.759zm0-30.195l-23.175-13.38 23.175-13.379v26.759zm0-30.441l-23.175-13.379 23.175-13.38v26.759zm0-30.318l-22.929-13.379 23.052-13.257-.123 26.636zm0 151.099l-22.807-13.134 22.807-13.134v26.268zm0 151.344l-23.052-13.379 23.052-13.379v26.758zm-.613-28.476l-23.297 13.502v-27.004l23.297 13.502zm.613-1.719l-23.052-13.379 23.052-13.379v26.758zm0-30.195l-23.175-13.379 23.175-13.38v26.759zm0-30.441l-23.175-13.379 23.175-13.379v26.758zm0-30.318l-23.052-13.256 23.052-13.257v26.513zm0 151.099l-22.807-13.134 22.807-13.133v26.267zm-.613-28.109l-23.297 13.502v-27.003l23.297 13.501zm.613 179.454l-23.052-13.38 23.052-13.379v26.759zm-.613-28.477l-23.297 13.502v-27.004l23.297 13.502zm.613-1.719l-23.052-13.379 23.052-13.379v26.758zm0-30.318l-23.174-13.379 23.174-13.379v26.758zm0-87.271v26.635l-23.052-13.256 23.052-13.379zm-24.033-532.1V2.579l23.298 13.502-23.298 13.502zm0 90.832V93.409l23.298 13.502-23.298 13.502zm0-30.318V63.09l23.298 13.502-23.298 13.502zm0-30.441V32.65l23.298 13.502-23.298 13.502zm0 151.222v-27.004l23.298 13.502-23.298 13.502zm.123 154.29l23.297 13.502-23.297 13.502v-27.004zm-.123-63.459v-27.004l23.298 13.502-23.298 13.502zm0-30.318v-27.004l23.298 13.502-23.298 13.502zm0-30.441v-27.004l23.298 13.502-23.298 13.502zm0 242.053v-27.004l23.298 13.502-23.298 13.502zm0-30.318v-27.004l23.298 13.502-23.298 13.502zm0-30.44v-27.004l23.298 13.502-23.298 13.502zm0 151.098v-27.003l23.298 13.502-23.298 13.501zm0 151.468v-27.004l23.298 13.502-23.298 13.502zm0-60.513v-27.004l23.298 13.502-23.298 13.502zm0-30.441v-27.004l23.298 13.502-23.298 13.502zm0-30.318v-27.004l23.298 13.502-23.298 13.502zm127.523-11.661v26.758l-23.175-13.379 23.175-13.379zM310.468 154.29v26.39l-22.807-13.133 22.807-13.257zm103.49-121.272v26.759l-23.175-13.38 23.175-13.379zm0 30.441v26.758l-23.175-13.379 23.175-13.379zm0 30.318v26.636l-23.052-13.379 23.052-13.257zm0 30.195v26.636l-23.052-13.379 23.052-13.257zm0 30.318v26.39l-22.807-13.133 22.807-13.257zm0 29.827v26.636l-23.052-13.256 23.052-13.38zm0 30.196v26.758l-23.175-13.379 23.175-13.379zm0 30.44v26.759l-23.175-13.379 23.175-13.38zm0 30.318v26.636l-23.052-13.256 23.052-13.38zm0 30.196v26.635l-23.052-13.379 23.052-13.256zm0 30.318v26.267l-22.807-13.134 22.807-13.133zm1.839 26.635v-27.004l23.297 13.502-23.297 13.502zm-1.839 3.192v26.635l-23.052-13.256 23.052-13.379zm0 30.195v26.758l-23.175-13.379 23.175-13.379zm0 30.318v26.758l-23.175-13.256 23.175-13.502zm0 30.441v26.635l-23.052-13.379 23.052-13.256zm0 30.195v26.635l-23.052-13.379 23.052-13.256zm0 30.318v26.39l-22.807-13.134 22.807-13.256zm0 29.827v26.635l-23.052-13.256 23.052-13.379zm0 30.195v26.758l-23.175-13.379 23.175-13.379zm0 30.318v26.758l-23.175-13.379 23.175-13.379zm0 30.441v26.635l-23.052-13.379 23.052-13.256zm0 30.195v26.636l-23.052-13.257 23.052-13.379zM287.416 137.352l23.052-13.38v26.636l-23.052-13.256zm-.981 28.599v-27.004l23.298 13.502-23.298 13.502zm.981-58.795l23.052-13.379v26.636l-23.052-13.257zm-.981 28.6v-27.004l23.298 13.502-23.298 13.502zm.859-58.918l23.174-13.379v26.758l-23.174-13.379zm-.859 28.723V78.557l23.298 13.502-23.298 13.502zm.859-59.163l23.174-13.38v26.759l-23.174-13.38zm-.859 28.722V48.116l23.298 13.502-23.298 13.502zm0-30.318V17.798L309.733 31.3l-23.298 13.502zm24.033 139.315v26.636l-23.052-13.256 23.052-13.38zm-24.033 11.784v-27.004l23.298 13.502-23.298 13.502zm24.033 139.684v26.267l-22.807-13.134 22.807-13.133zm-24.033 14.606l23.298 13.502-23.298 13.502v-27.004zm.981-31.545l23.052-13.379v26.635l-23.052-13.256zm-.981 28.599v-27.004l23.298 13.502-23.298 13.502zm.981-58.794l23.052-13.38v26.636l-23.052-13.256zm-.981 28.599v-27.004l23.298 13.502-23.298 13.502zm.859-58.917l23.174-13.38v26.759l-23.174-13.379zm-.859 28.599v-27.004l23.298 13.502-23.298 13.502zm.859-59.04l23.174-13.379v26.758l-23.174-13.379zm-.859 28.722V229.41l23.298 13.502-23.298 13.502zm0-30.441v-27.004l23.298 13.502-23.298 13.502zm24.033 139.439v26.635l-23.052-13.256 23.052-13.379zm1.84-3.192v-27.004l23.297 13.502-23.297 13.502zm-1.84 154.659v26.39l-22.807-13.134 22.807-13.256zm-23.052-16.939l23.052-13.379v26.636l-23.052-13.257zm-.981 28.6v-27.004l23.298 13.502-23.298 13.502zm.981-58.918l23.052-13.379v26.635l-23.052-13.256zm-.981 28.722V471.34l23.298 13.502-23.298 13.502zm.859-58.917l23.174-13.379v26.758l-23.174-13.379zm-.859 28.599v-27.004l23.298 13.502-23.298 13.502zm.859-59.04l23.174-13.379v26.758l-23.174-13.379zm-.859 28.722v-27.004l23.298 13.502-23.298 13.502zm0-30.44v-27.004l23.298 13.502-23.298 13.502zm24.033 139.438v26.635l-23.052-13.256 23.052-13.379zm-24.033 11.783v-27.004l23.298 13.502-23.298 13.502zm.981 122.745l23.052-13.379v26.636l-23.052-13.257zm-.981 28.6V682.83l23.298 13.502-23.298 13.502zm.981-58.918l23.052-13.379v26.636l-23.052-13.257zm-.981 28.723v-27.004l23.298 13.502-23.298 13.502zm.859-59.041l23.174-13.379v26.758l-23.174-13.379zm-.859 28.723v-27.004l23.298 13.502-23.298 13.502zm.859-59.041l23.174-13.379v26.758l-23.174-13.379zm-.859 28.723v-27.004l23.298 13.502-23.298 13.502zm0-30.441v-27.004l23.298 13.502-23.298 13.502zm101.65-422.856l-23.052-13.38 23.052-13.379v26.759zm1.84.245v-27.004l23.297 13.502-23.297 13.502zm-2.453-28.722l-23.297 13.502v-27.004l23.297 13.502zm.613-1.841l-23.052-13.38 23.052-13.379v26.759zm1.84.368v-27.004l23.297 13.502-23.297 13.502zm-1.84-30.564l-23.174-13.379 23.174-13.379v26.758zm1.84.369V78.557l23.297 13.502-23.297 13.502zm-1.84-30.81l-23.174-13.379 23.174-13.379v26.759zm1.84.369V48.116l23.297 13.502-23.297 13.502zm-1.84-30.686l-23.052-13.257 22.93-13.256.122 26.513zm1.84.368V17.798L413.222 31.3l-23.297 13.502zm-1.84 150.731l-22.807-13.134 22.807-13.134v26.268zm-.613-28.109l-23.297 13.502v-27.004l23.297 13.502zm2.453 28.477v-27.004l23.297 13.502-23.297 13.502zm-1.84 150.976l-23.052-13.379 23.052-13.379v26.758zm1.84.368v-27.004l23.297 13.502-23.297 13.502zm-2.453-28.722l-23.297 13.502v-27.004l23.297 13.502zm.613-1.841l-23.052-13.379 23.052-13.38v26.759zm1.84.368v-27.004l23.297 13.502-23.297 13.502zm-1.84-30.563l-23.174-13.38 23.174-13.379v26.759zm1.84.245v-27.004l23.297 13.502-23.297 13.502zm-1.84-30.686l-23.174-13.379 23.174-13.38v26.759zm1.84.368V229.41l23.297 13.502-23.297 13.502zm-1.84-30.686l-22.929-13.379 22.929-13.257v26.636zm1.84.245v-27.004l23.297 13.502-23.297 13.502zm-1.84 150.854l-22.807-13.134 22.807-13.134v26.268zm-.613-28.109l-23.297 13.502v-27.004l23.297 13.502zm2.453 28.477v-27.004l23.297 13.502-23.297 13.502zm-1.84 150.976l-23.052-13.379 23.052-13.379v26.758zm1.84.369v-27.004l23.297 13.502-23.297 13.502zm-2.453-28.845l-23.297 13.502v-27.004l23.297 13.502zm.613-1.719l-23.052-13.379 23.052-13.379v26.758zm1.84.368V471.34l23.297 13.502-23.297 13.502zm-1.84-30.563l-23.174-13.379 23.174-13.38v26.759zm1.84.245v-27.004l23.297 13.502-23.297 13.502zm-1.84-30.686l-23.174-13.379 23.174-13.379v26.758zm1.84.368v-27.004l23.297 13.502-23.297 13.502zm-1.84-30.686l-23.052-13.256 22.93-13.257.122 26.513zm1.84.246v-27.004l23.297 13.502-23.297 13.502zm-1.84 150.853l-22.807-13.134 22.807-13.133v26.267zm-.613-28.109l-23.297 13.502v-27.003l23.297 13.501zm2.453 28.477v-27.004l23.297 13.502-23.297 13.502zm-1.84 150.977l-23.052-13.38 23.052-13.379v26.759zm1.84.368V682.83l23.297 13.502-23.297 13.502zm-2.453-28.845l-23.297 13.502v-27.004l23.297 13.502zm.613-1.719l-23.052-13.379 23.052-13.379v26.758zm1.84.369v-27.004l23.297 13.502-23.297 13.502zm-1.84-30.687l-23.174-13.379 23.174-13.379v26.758zm1.84.369v-27.004l23.297 13.502-23.297 13.502zm-1.84-30.687l-23.174-13.379 23.174-13.379v26.758zm1.84.369v-27.004l23.297 13.502-23.297 13.502zm-1.84-30.809l-23.052-13.257 22.93-13.256.122 26.513zm1.84.368v-27.004l23.297 13.502-23.297 13.502zm-25.873-558.98V2.578L387.35 16.08l-23.298 13.502zm-1.839 150.976l-22.807-13.134 22.807-13.134v26.268zm-.613-28.109l-23.42 13.502v-27.004l23.42 13.502zm.613-1.718l-23.052-13.379 23.052-13.38v26.759zm-.613-28.477l-23.297 13.502v-27.004l23.297 13.502zm.613-1.841l-23.052-13.379 23.052-13.38v26.759zm-.613-28.354l-23.42 13.502V78.557l23.42 13.502zm2.452 28.354V93.409l23.42 13.502-23.42 13.502zm-1.839-30.195l-23.175-13.38 23.175-13.379v26.758zm-.613-28.6L338.303 75.12V48.116L361.6 61.618zm2.452 28.477V63.09l23.42 13.502-23.42 13.502zM362.213 59.9l-23.175-13.38 23.175-13.379V59.9zm-.613-28.6l-23.297 13.502V17.798L361.6 31.3zm2.452 28.354V32.65l23.298 13.502-23.298 13.502zm-1.839 151.099l-23.052-13.256 22.929-13.257.123 26.513zm-.613-28.354l-23.297 13.502v-27.004l23.297 13.502zm2.452 28.477v-27.004l23.298 13.502-23.298 13.502zm0 154.29l23.298 13.502-23.298 13.502v-27.004zm-1.839-3.314l-22.807-13.134 22.807-13.133v26.267zm-.613-28.109l-23.42 13.502v-27.004l23.42 13.502zm.613-1.718l-23.052-13.379 23.052-13.379v26.758zm-.613-28.477l-23.297 13.502v-27.004l23.297 13.502zm.613-1.841l-23.052-13.256 23.052-13.38v26.636zm-.613-28.477l-23.42 13.502v-27.004l23.42 13.502zm2.452 28.477v-27.004l23.42 13.502-23.42 13.502zm-1.839-30.195l-23.175-13.379 23.175-13.38v26.759zm-.613-28.6l-23.297 13.502V229.41l23.297 13.502zm2.452 28.477v-27.004l23.42 13.502-23.42 13.502zm-1.839-30.318l-23.175-13.379 23.175-13.379v26.758zm-.613-28.6l-23.297 13.502v-27.004l23.297 13.502zm2.452 28.477v-27.004l23.298 13.502-23.298 13.502zm-1.839 151.099l-23.052-13.256 22.929-13.257.123 26.513zm-.613-28.354l-23.297 13.502v-27.004l23.297 13.502zm.613 179.453l-22.807-13.134 22.807-13.133v26.267zm-.613-28.108l-23.42 13.502v-27.004l23.42 13.502zm.613-1.841l-23.052-13.38 23.052-13.379v26.759zm-.613-28.355l-23.297 13.502V471.34l23.297 13.502zm.613-1.841l-23.052-13.379 23.052-13.379v26.758zm-.613-28.477l-23.42 13.502v-27.004l23.42 13.502zm2.452 28.477v-27.004l23.42 13.502-23.42 13.502zm-1.839-30.195l-23.175-13.379 23.175-13.379v26.758zm-.613-28.6l-23.297 13.502v-27.004l23.297 13.502zm2.452 28.477v-27.004l23.42 13.502-23.42 13.502zm-1.839-30.318l-23.175-13.379 23.175-13.379v26.758zm-.613-28.599l-23.297 13.502v-27.004l23.297 13.502zm2.452 28.476v-27.003l23.298 13.502-23.298 13.501zm-1.839 151.099l-23.052-13.256 22.929-13.256.123 26.512zm-.613-28.354l-23.297 13.502v-27.004l23.297 13.502zm2.452 28.354v-27.003l23.298 13.502-23.298 13.501zM361.6 696.332l-23.42 13.502V682.83l23.42 13.502zm2.452 28.477v-27.004l23.42 13.502-23.42 13.502zm-1.839-30.318l-23.052-13.257 23.052-13.379v26.636zm-.613-28.354l-23.297 13.502v-27.004l23.297 13.502zm.613-1.841l-23.052-13.38 23.052-13.379v26.759zm-.613-28.477l-23.42 13.502v-27.004l23.42 13.502zm2.452 28.477v-27.004l23.42 13.502-23.42 13.502zm-1.839-30.196l-23.175-13.379 23.175-13.379V634.1zm-.613-28.599l-23.297 13.502v-27.004l23.297 13.502zm2.452 28.354v-27.004l23.42 13.502-23.42 13.502zm-1.839-30.196l-23.175-13.379 23.175-13.379v26.758zm-.613-28.599l-23.297 13.502v-27.004L361.6 575.06zm2.452 28.477v-27.004l23.298 13.502-23.298 13.502zm-27.711-437.831l-23.052-13.38 23.052-13.379v26.759zm-.613-28.477l-23.298 13.502v-27.004l23.298 13.502zm.613-1.841l-23.052-13.38 23.052-13.256v26.636zm0-30.196l-23.175-13.379 23.175-13.502v26.881zm0-30.44l-23.175-13.38 23.175-13.379v26.759zm0-30.318l-23.052-13.257 23.052-13.379v26.636zm0 151.099l-22.807-13.134 22.807-13.134v26.268zm-.613-28.109l-23.298 13.502v-27.004l23.298 13.502zm.613 179.453l-23.052-13.379 23.052-13.379v26.758zm-.613-28.354l-23.298 13.502v-27.004l23.298 13.502zm.613-1.841l-23.052-13.379 23.052-13.38v26.759zm0-30.195l-23.175-13.38 23.175-13.379v26.759zm0-30.441l-23.175-13.379 23.175-13.38v26.759zm0-30.318l-22.93-13.379 23.052-13.257-.122 26.636zm0 151.099l-22.807-13.134 22.807-13.134v26.268zm0 151.344l-23.052-13.379 23.052-13.379v26.758zm-.613-28.476l-23.298 13.502v-27.004l23.298 13.502zm.613-1.719l-23.052-13.379 23.052-13.257v26.636zm0-30.195l-23.175-13.379 23.175-13.38v26.759zm0-30.441l-23.175-13.379 23.175-13.379v26.758zm0-30.318l-23.052-13.256 23.052-13.257v26.513zm0 151.099l-22.807-13.134 22.807-13.133v26.267zm-.613-28.109l-23.298 13.502v-27.003l23.298 13.501zm.613 179.454l-23.052-13.38 23.052-13.379v26.759zm-.613-28.477l-23.298 13.502v-27.004l23.298 13.502zm.613-1.719l-23.052-13.379 23.052-13.379v26.758zm0-30.318l-23.175-13.379 23.175-13.379v26.758zm0-87.271v26.635l-23.052-13.256 23.052-13.379zm-24.033-532.1V2.579l23.297 13.502-23.297 13.502zm0 90.832V93.409l23.42 13.502-23.42 13.502zm0-30.318V63.09l23.42 13.502-23.42 13.502zm0-30.441V32.65l23.297 13.502-23.297 13.502zm0 151.222v-27.004l23.297 13.502-23.297 13.502zm0 154.29l23.297 13.502-23.297 13.502v-27.004zm0-63.459v-27.004l23.42 13.502-23.42 13.502zm0-30.318v-27.004l23.42 13.502-23.42 13.502zm0-30.441v-27.004l23.297 13.502-23.297 13.502zm0 242.053v-27.004l23.42 13.502-23.42 13.502zm0-30.318v-27.004l23.42 13.502-23.42 13.502zm0-30.441v-27.003l23.297 13.502-23.297 13.501zm0 151.099v-27.003l23.297 13.502-23.297 13.501zm0 151.468v-27.004l23.42 13.502-23.42 13.502zm0-60.513v-27.004l23.42 13.502-23.42 13.502zm0-30.441v-27.004l23.42 13.502-23.42 13.502zm0-30.318v-27.004l23.297 13.502-23.297 13.502zm231.012-11.661v26.758l-23.175-13.379 23.175-13.379zM517.447 154.29v26.39l-22.807-13.133 22.807-13.257zm-25.872 11.416l-23.052-13.38 23.052-13.379v26.759zm2.82-28.354l23.052-13.38v26.636l-23.052-13.256zm-.981 28.599v-27.004l23.297 13.502-23.297 13.502zm-2.452-28.722l-23.298 13.502v-27.004l23.298 13.502zm.613-1.841l-23.052-13.38 23.052-13.379v26.759zm2.82-28.232l23.052-13.379v26.636l-23.052-13.257zm-.981 28.6v-27.004l23.297 13.502-23.297 13.502zm-1.839-30.564L468.4 91.813l23.175-13.379v26.758zm2.697-28.354l23.175-13.379v26.758l-23.175-13.379zm-.858 28.723V78.557l23.297 13.502-23.297 13.502zm-1.839-30.81L468.4 61.373l23.175-13.379v26.759zm2.697-28.354l23.175-13.379v26.759l-23.175-13.38zm-.858 28.723V48.116l23.297 13.502-23.297 13.502zm-1.839-30.686l-23.052-13.257 23.052-13.256v26.513zm77.617-11.416v26.759l-23.175-13.38 23.175-13.379zm0 30.441v26.758l-23.175-13.379 23.175-13.379zm0 30.318v26.636l-23.052-13.379 23.052-13.257zm0 30.195v26.636l-23.052-13.379 23.052-13.257zm0 30.318v26.39l-22.807-13.133 22.807-13.257zm0 29.827v26.636l-23.052-13.256 23.052-13.38zm0 30.196v26.758l-23.175-13.379 23.175-13.379zm0 30.44v26.759l-23.175-13.379 23.175-13.38zm0 30.318v26.636l-23.052-13.256 23.052-13.38zm0 30.196v26.635l-23.052-13.379 23.052-13.256zm0 30.318v26.267l-22.807-13.134 22.807-13.133zm1.839 26.635v-27.004l23.298 13.502-23.298 13.502zm-1.839 3.192v26.635l-23.052-13.256 23.052-13.379zm0 30.195v26.758l-23.175-13.379 23.175-13.379zm0 30.318v26.758l-23.175-13.256 23.175-13.502zm0 30.441v26.635l-23.052-13.379 23.052-13.256zm0 30.195v26.635l-23.052-13.379 23.052-13.256zm0 30.318v26.39l-22.807-13.134 22.807-13.256zm0 29.827v26.635l-23.052-13.256 23.052-13.379zm0 30.195v26.758l-23.175-13.379 23.175-13.379zm0 30.318v26.758l-23.175-13.379 23.175-13.379zm0 30.441v26.635l-23.052-13.379 23.052-13.256zm0 30.195v26.636l-23.052-13.257 23.052-13.379zM493.414 44.802V17.798l23.42 13.502-23.42 13.502zm24.033 139.315v26.636l-23.052-13.256 23.052-13.38zm-25.872 11.416l-22.807-13.134 22.807-13.134v26.268zm-.613-28.109l-23.298 13.502v-27.004l23.298 13.502zm2.452 28.477v-27.004l23.42 13.502-23.42 13.502zm24.033 139.684v26.267l-22.807-13.134 22.807-13.133zm-25.872 11.292l-23.052-13.379 23.052-13.379v26.758zm2.82-28.231l23.052-13.379v26.635l-23.052-13.256zm-.981 28.599v-27.004l23.297 13.502-23.297 13.502zm-2.452-28.722l-23.298 13.502v-27.004l23.298 13.502zm.613-1.841l-23.052-13.379 23.052-13.38v26.759zm2.82-28.231l23.052-13.38v26.636l-23.052-13.256zm-.981 28.599v-27.004l23.297 13.502-23.297 13.502zm-1.839-30.563l-23.175-13.38 23.175-13.379v26.759zm2.697-28.354l23.175-13.38v26.759l-23.175-13.379zm-.858 28.599v-27.004l23.297 13.502-23.297 13.502zm-1.839-30.686L468.4 242.667l23.175-13.38v26.759zm2.697-28.354l23.175-13.379v26.758l-23.175-13.379zm-.858 28.722V229.41l23.297 13.502-23.297 13.502zm-1.839-30.686l-23.052-13.379 23.052-13.257v26.636zm1.839.245v-27.004l23.42 13.502-23.42 13.502zm24.033 139.439v26.635l-23.052-13.256 23.052-13.379zm-25.872 11.415l-22.807-13.134 22.807-13.134v26.268zm-.613-28.109l-23.298 13.502v-27.004l23.298 13.502zm28.324 13.502v-27.004l23.298 13.502-23.298 13.502zm-25.872 14.975v-27.004l23.297 13.502-23.297 13.502zm24.033 139.684v26.39l-22.807-13.134 22.807-13.256zm-25.872 11.292l-23.052-13.379 23.052-13.379v26.758zm2.82-28.231l23.052-13.379v26.635l-23.052-13.256zm-.981 28.6v-27.004l23.297 13.502-23.297 13.502zm-2.452-28.845l-23.298 13.501v-27.003l23.298 13.502zm.613-1.719l-23.052-13.379 23.052-13.379v26.758zm2.82-28.354l23.052-13.379v26.635l-23.052-13.256zm-.981 28.722V471.34l23.297 13.502-23.297 13.502zm-1.839-30.563L468.4 454.402l23.175-13.38v26.759zm2.697-28.354l23.175-13.379v26.758l-23.175-13.379zm-.858 28.599v-27.004l23.297 13.502-23.297 13.502zm-1.839-30.686L468.4 423.961l23.175-13.379v26.758zm2.697-28.354l23.175-13.379v26.758l-23.175-13.379zm-.858 28.722v-27.004l23.297 13.502-23.297 13.502zm-1.839-30.686l-23.052-13.256 23.052-13.257v26.513zm1.839.246v-27.004l23.42 13.502-23.42 13.502zm24.033 139.438v26.635l-23.052-13.256 23.052-13.379zm-25.872 11.415l-22.807-13.134 22.807-13.133v26.267zm-.613-28.109l-23.298 13.502v-27.003l23.298 13.501zm2.452 28.477v-27.004l23.42 13.502-23.42 13.502zm-1.839 150.977l-23.052-13.38 23.052-13.379v26.759zm2.82-28.232l23.052-13.379v26.636l-23.052-13.257zm-.981 28.6V682.83l23.297 13.502-23.297 13.502zm-2.452-28.845l-23.298 13.502v-27.004l23.298 13.502zm.613-1.719l-23.052-13.379 23.052-13.379v26.758zm2.82-28.354l23.052-13.379v26.636l-23.052-13.257zm-.981 28.723v-27.004l23.297 13.502-23.297 13.502zm-1.839-30.687L468.4 635.573l23.175-13.379v26.758zm2.697-28.354l23.175-13.379v26.758l-23.175-13.379zm-.858 28.723v-27.004l23.297 13.502-23.297 13.502zm-1.839-30.687L468.4 605.255l23.175-13.379v26.758zm2.697-28.354l23.175-13.379v26.758l-23.175-13.379zm-.858 28.723v-27.004l23.297 13.502-23.297 13.502zm-1.839-30.809l-23.052-13.257 23.052-13.256v26.513zm1.839.368v-27.004l23.42 13.502-23.42 13.502zm-25.872-558.98V2.578l23.297 13.502-23.297 13.502zm-1.84 150.976l-22.807-13.134 22.807-13.134v26.268zm-.613-28.109l-23.297 13.502v-27.004l23.297 13.502zm.613-1.718l-23.052-13.379 23.052-13.38v26.759zm-.613-28.477l-23.297 13.502v-27.004l23.297 13.502zm.613-1.841l-23.052-13.379 23.052-13.38v26.759zm-.613-28.354l-23.297 13.502V78.557l23.297 13.502zm2.453 28.354V93.409l23.42 13.502-23.42 13.502zm-1.84-30.195l-23.174-13.38 23.174-13.379v26.758zm-.613-28.6L441.792 75.12V48.116l23.297 13.502zm2.453 28.477V63.09l23.42 13.502-23.42 13.502zm-1.84-30.195l-23.174-13.38 23.174-13.379V59.9zm-.613-28.6l-23.297 13.502V17.798L465.089 31.3zm2.453 28.354V32.65l23.297 13.502-23.297 13.502zm-1.84 151.099l-23.052-13.256 22.93-13.257.122 26.513zm-.613-28.354l-23.297 13.502v-27.004l23.297 13.502zm2.453 28.477v-27.004l23.297 13.502-23.297 13.502zm0 154.29l23.297 13.502-23.297 13.502v-27.004zm-1.84-3.314l-22.806-13.134 22.806-13.133v26.267zm-.613-28.109l-23.297 13.502v-27.004l23.297 13.502zm.613-1.718l-23.052-13.379 23.052-13.379v26.758zm-.613-28.477l-23.297 13.502v-27.004l23.297 13.502zm.613-1.841l-23.052-13.256 23.052-13.38v26.636zm-.613-28.477l-23.297 13.502v-27.004l23.297 13.502zm2.453 28.477v-27.004l23.42 13.502-23.42 13.502zm-1.84-30.195l-23.174-13.379 23.174-13.38v26.759zm-.613-28.6l-23.297 13.502V229.41l23.297 13.502zm2.453 28.477v-27.004l23.42 13.502-23.42 13.502zm-1.84-30.318l-23.174-13.379 23.174-13.379v26.758zm-.613-28.6l-23.297 13.502v-27.004l23.297 13.502zm2.453 28.477v-27.004l23.297 13.502-23.297 13.502zm-1.84 151.099l-23.052-13.256 22.93-13.257.122 26.513zm-.613-28.354l-23.297 13.502v-27.004l23.297 13.502zm.613 179.453l-22.806-13.134 22.806-13.133v26.267zm-.613-28.108l-23.297 13.502v-27.004l23.297 13.502zm.613-1.842l-23.052-13.379 23.052-13.379v26.758zm-.613-28.354l-23.297 13.502V471.34l23.297 13.502zm.613-1.841l-23.052-13.379 23.052-13.379v26.758zm-.613-28.477l-23.297 13.502v-27.004l23.297 13.502zm2.453 28.477v-27.004l23.42 13.502-23.42 13.502zm-1.84-30.195l-23.174-13.379 23.174-13.379v26.758zm-.613-28.6l-23.297 13.502v-27.004l23.297 13.502zm2.453 28.477v-27.004l23.42 13.502-23.42 13.502zm-1.84-30.318l-23.174-13.379 23.174-13.379v26.758zm-.613-28.599l-23.297 13.502v-27.004l23.297 13.502zm2.453 28.476v-27.003l23.297 13.502-23.297 13.501zm-1.84 151.099l-23.052-13.256 22.93-13.256.122 26.512zm-.613-28.354l-23.297 13.502v-27.004l23.297 13.502zm2.453 28.354v-27.003l23.297 13.502-23.297 13.501zm-2.453 122.991l-23.297 13.502V682.83l23.297 13.502zm2.453 28.477v-27.004l23.42 13.502-23.42 13.502zm-1.84-30.318l-23.052-13.257 23.052-13.379v26.636zm-.613-28.354l-23.297 13.502v-27.004l23.297 13.502zm.613-1.842l-23.052-13.379 23.052-13.379v26.758zm-.613-28.476l-23.297 13.502v-27.004l23.297 13.502zm2.453 28.476v-27.003l23.42 13.502-23.42 13.501zm-1.84-30.195l-23.174-13.379 23.174-13.379V634.1zm-.613-28.599l-23.297 13.502v-27.004l23.297 13.502zm2.453 28.354v-27.004l23.42 13.502-23.42 13.502zm-1.84-30.196l-23.174-13.379 23.174-13.379v26.758zm-.613-28.599l-23.297 13.502v-27.004l23.297 13.502zm2.453 28.477v-27.004l23.297 13.502-23.297 13.502zM439.83 165.706l-23.052-13.38 23.052-13.379v26.759zm-.613-28.477l-23.297 13.502v-27.004l23.297 13.502zm.613-1.841l-23.052-13.38 23.052-13.379v26.759zm0-30.196l-23.175-13.379 23.175-13.379v26.758zm0-30.44l-23.175-13.38 23.175-13.379v26.759zm0-30.318l-23.052-13.257 23.052-13.256v26.513zm0 151.099l-22.807-13.134 22.807-13.134v26.268zm-.613-28.109l-23.297 13.502v-27.004l23.297 13.502zm.613 179.453l-23.052-13.379 23.052-13.379v26.758zm-.613-28.354l-23.297 13.502v-27.004l23.297 13.502zm.613-1.841l-23.052-13.379 23.052-13.38v26.759zm0-30.195l-23.175-13.38 23.175-13.379v26.759zm0-30.441l-23.175-13.379 23.175-13.38v26.759zm0-30.318l-23.052-13.379 23.052-13.257v26.636zm0 151.099l-22.807-13.134 22.807-13.134v26.268zm0 151.344l-23.052-13.379 23.052-13.379v26.758zm-.613-28.476l-23.297 13.501v-27.003l23.297 13.502zm.613-1.719l-23.052-13.379 23.052-13.379v26.758zm0-30.195l-23.175-13.379 23.175-13.38v26.759zm0-30.441l-23.175-13.379 23.175-13.379v26.758zm0-30.318l-23.052-13.256 23.052-13.257v26.513zm0 151.099l-22.807-13.134 22.807-13.133v26.267zm-.613-28.109l-23.297 13.502v-27.003l23.297 13.501zm.613 179.454l-23.052-13.38 23.052-13.379v26.759zm-.613-28.477l-23.297 13.502v-27.004l23.297 13.502zm.613-1.719l-23.052-13.379 23.052-13.379v26.758zm0-30.318l-23.175-13.379 23.175-13.379v26.758zm0-30.318l-23.175-13.379 23.175-13.379v26.758zm0-30.44l-23.052-13.257 23.052-13.256v26.513zM415.797 29.582V2.578l23.42 13.502-23.42 13.502zm0 90.831V93.409l23.42 13.502-23.42 13.502zm0-30.318V63.09l23.42 13.502-23.42 13.502zm0-30.441V32.65l23.42 13.502-23.42 13.502zm0 151.222v-27.004l23.42 13.502-23.42 13.502zm0 154.29l23.297 13.502-23.42 13.502.123-27.004zm0-63.459v-27.004l23.42 13.502-23.42 13.502zm0-30.318v-27.004l23.42 13.502-23.42 13.502zm0-30.441v-27.004l23.42 13.502-23.42 13.502zm0 242.053v-27.004l23.42 13.502-23.42 13.502zm0-30.318v-27.004l23.42 13.502-23.42 13.502zm0-30.441v-27.003l23.42 13.502-23.42 13.501zm0 151.099v-27.003l23.42 13.502-23.42 13.501zm0 151.468v-27.004l23.42 13.502-23.42 13.502zm0-60.514v-27.003l23.42 13.502-23.42 13.501zm0-30.44v-27.004l23.42 13.502-23.42 13.502zm0-30.318v-27.004l23.42 13.502-23.42 13.502zm127.522-437.831l-23.052-13.38 23.052-13.379v26.759zm1.84.245v-27.004l23.297 13.502-23.297 13.502zm-2.453-28.722l-23.297 13.502v-27.004l23.297 13.502zm.613-1.841l-23.052-13.257 23.052-13.379v26.636zm1.84.368v-27.004l23.297 13.502-23.297 13.502zm-1.84-30.564l-23.174-13.379 23.174-13.379v26.758zm1.84.369V78.557l23.297 13.502-23.297 13.502zm-1.84-30.81l-23.174-13.379 23.174-13.379v26.759zm1.84.369V48.116l23.297 13.502-23.297 13.502zm-1.84-30.686l-23.052-13.257 23.052-13.256v26.513zm1.84.368V17.798L568.456 31.3l-23.297 13.502zm-1.84 150.731l-22.806-13.134 22.806-13.134v26.268zm-.613-28.109l-23.297 13.502v-27.004l23.297 13.502zm2.453 28.477v-27.004l23.297 13.502-23.297 13.502zm-1.84 150.976l-23.052-13.256 23.052-13.38v26.636zm1.84.368v-27.004l23.297 13.502-23.297 13.502zm-2.453-28.722l-23.297 13.502v-27.004l23.297 13.502zm.613-1.841l-23.052-13.379 23.052-13.38v26.759zm1.84.368v-27.004l23.297 13.502-23.297 13.502zm-1.84-30.563l-23.174-13.38 23.174-13.379v26.759zm1.84.245v-27.004l23.297 13.502-23.297 13.502zm-1.84-30.686l-23.174-13.379 23.174-13.38v26.759zm1.84.368V229.41l23.297 13.502-23.297 13.502zm-1.84-30.686l-23.052-13.379 23.052-13.257v26.636zm1.84.245v-27.004l23.297 13.502-23.297 13.502zm-1.84 150.854l-22.806-13.134 22.806-13.134v26.268zm1.84.368v-27.004l23.297 13.502-23.297 13.502zm-1.839 150.976l-23.053-13.256 23.053-13.379v26.635zm1.839.369v-27.004l23.297 13.502-23.297 13.502zm-2.453-28.845l-23.297 13.501v-27.003l23.297 13.502zm.614-1.719l-23.053-13.379 23.052-13.379.001 26.758zm1.839.368V471.34l23.297 13.502-23.297 13.502zm-1.84-30.563l-23.174-13.379 23.174-13.38v26.759zm1.84.245v-27.004l23.297 13.502-23.297 13.502zm-1.84-30.686l-23.174-13.379 23.174-13.379v26.758zm1.84.368v-27.004l23.297 13.502-23.297 13.502zm-1.84-30.686l-23.052-13.379 23.052-13.257v26.636zm1.84.246v-27.004l23.297 13.502-23.297 13.502zm-1.839 150.853l-22.807-13.134 22.807-13.133v26.267zm-.614-28.109l-23.297 13.502v-27.003l23.297 13.501zm2.453 28.477v-27.004l23.297 13.502-23.297 13.502zm-1.839 150.977l-23.053-13.38 23.053-13.379v26.759zm1.839.368V682.83l23.297 13.502-23.297 13.502zm-2.453-28.845l-23.297 13.502v-27.004l23.297 13.502zm.614-1.719l-23.053-13.379 23.053-13.379v26.758zm1.839.369v-27.004l23.297 13.502-23.297 13.502zm-1.839-30.687l-23.175-13.379 23.175-13.379v26.758zm1.839.369v-27.004l23.297 13.502-23.297 13.502zm0-30.318v-27.004l23.297 13.502-23.297 13.502zm-1.839-57.322v26.635l-23.053-13.379 23.053-13.256zm1.839 26.881v-27.004l23.297 13.502-23.297 13.502zm-25.873-558.98V2.578l23.298 13.502-23.298 13.502zm0 90.831V93.409l23.42 13.502-23.42 13.502zm0-30.318V63.09l23.42 13.502-23.42 13.502zm0-30.441V32.65l23.298 13.502-23.298 13.502zm0 151.222v-27.004l23.298 13.502-23.298 13.502zm0 154.29l23.298 13.502-23.298 13.502v-27.004zm0-63.459v-27.004l23.42 13.502-23.42 13.502zm0-30.318v-27.004l23.42 13.502-23.42 13.502zm0-30.441v-27.004l23.298 13.502-23.298 13.502zm0 242.053v-27.004l23.42 13.502-23.42 13.502zm0-30.318v-27.004l23.42 13.502-23.42 13.502zm0-30.441v-27.003l23.298 13.502-23.298 13.501zm0 151.099v-27.003l23.298 13.502-23.298 13.501zm0 151.468v-27.004l23.42 13.502-23.42 13.502zm0-60.514v-27.003l23.42 13.502-23.42 13.501zm0-30.44v-27.004l23.42 13.502-23.42 13.502zm0-30.318v-27.004l23.298 13.502-23.298 13.502zm127.523-11.661v26.758l-23.175-13.379 23.175-13.379zM620.937 154.29v26.39l-22.807-13.133 22.807-13.257zm-25.873 11.416l-23.052-13.38 23.052-13.379v26.759zm2.82-28.354l23.053-13.38v26.636l-23.053-13.256zm-.981 28.599v-27.004l23.298 13.502-23.298 13.502zm-2.452-28.722l-23.297 13.502v-27.004l23.297 13.502zm.613-1.841l-23.052-13.38 23.052-13.256v26.636zm2.82-28.232l23.053-13.379v26.636l-23.053-13.257zm-.981 28.6v-27.004l23.298 13.502-23.298 13.502zm-1.839-30.564l-23.175-13.379 23.175-13.502v26.881zm2.698-28.354l23.175-13.379v26.758l-23.175-13.379zm-.859 28.723V78.557l23.298 13.502-23.298 13.502zm-1.839-30.81l-23.175-13.379 23.175-13.379v26.759zm2.698-28.354l23.175-13.379v26.759l-23.175-13.38zm-.859 28.723V48.116l23.298 13.502-23.298 13.502zm-1.839-30.686l-23.052-13.257 23.052-13.379v26.636zm77.617-11.416v26.759l-23.174-13.38 23.174-13.379zm0 30.441v26.758l-23.174-13.379 23.174-13.379zm0 30.318v26.636l-23.052-13.379 23.052-13.257zm0 30.195v26.636l-23.052-13.379 23.052-13.257zm0 30.318v26.39l-22.807-13.133 22.807-13.257zm0 29.827v26.636l-23.052-13.256 23.052-13.38zm0 30.196v26.758l-23.174-13.379 23.174-13.379zm0 30.44v26.759l-23.174-13.379 23.174-13.38zm0 30.318v26.636l-23.052-13.256 23.052-13.38zm0 30.196v26.635l-23.052-13.379 23.052-13.256zm0 30.318v26.267l-22.807-13.134 22.807-13.133zm1.84 26.635v-27.004l23.297 13.502-23.297 13.502zm-1.84 3.192v26.635l-23.052-13.256 23.052-13.379zm0 30.195v26.758l-23.174-13.379 23.174-13.379zm0 30.318v26.758l-23.174-13.256 23.174-13.502zm0 30.441v26.635l-23.052-13.379 23.052-13.256zm0 30.195v26.635l-23.052-13.379 23.052-13.256zm0 30.318v26.39l-22.807-13.134 22.807-13.256zm0 29.827v26.635l-23.052-13.256 23.052-13.379zm0 30.195v26.758l-23.174-13.379 23.174-13.379zm0 30.318v26.758l-23.174-13.379 23.174-13.379zm0 30.441v26.635l-23.052-13.379 23.052-13.256zm0 30.195v26.636l-23.052-13.257 23.052-13.379zM596.903 44.802V17.798L620.201 31.3l-23.298 13.502zm24.034 139.315v26.636l-23.053-13.256 23.053-13.38zm-25.873 11.416l-22.807-13.134 22.807-13.134v26.268zm-.613-28.109l-23.297 13.502v-27.004l23.297 13.502zm2.452 28.477v-27.004l23.298 13.502-23.298 13.502zm24.034 139.684v26.267l-22.807-13.134 22.807-13.133zm-25.873 11.292l-23.052-13.379 23.052-13.379v26.758zm2.82-28.231l23.053-13.379v26.635l-23.053-13.256zm-.981 28.599v-27.004l23.298 13.502-23.298 13.502zm-2.452-28.722l-23.297 13.502v-27.004l23.297 13.502zm.613-1.841l-23.052-13.379 23.052-13.38v26.759zm2.82-28.231l23.053-13.38v26.636l-23.053-13.256zm-.981 28.599v-27.004l23.298 13.502-23.298 13.502zm-1.839-30.563l-23.175-13.38 23.175-13.379v26.759zm2.698-28.354l23.175-13.38v26.759l-23.175-13.379zm-.859 28.599v-27.004l23.298 13.502-23.298 13.502zm-1.839-30.686l-23.175-13.379 23.175-13.38v26.759zm2.698-28.354l23.175-13.379v26.758l-23.175-13.379zm-.859 28.722V229.41l23.298 13.502-23.298 13.502zm-1.839-30.686l-23.052-13.379 23.052-13.257v26.636zm1.839.245v-27.004l23.298 13.502-23.298 13.502zm24.034 139.439v26.635l-23.053-13.256 23.053-13.379zm-25.873 11.415l-22.807-13.134 22.807-13.134v26.268zm27.712-14.607v-27.004l23.297 13.502-23.297 13.502zm-25.873 14.975v-27.004l23.298 13.502-23.298 13.502zm24.034 139.684v26.39l-22.807-13.134 22.807-13.256zm-25.873 11.292l-23.052-13.379 23.052-13.379v26.758zm2.82-28.231l23.053-13.379v26.635l-23.053-13.256zm-.981 28.6v-27.004l23.298 13.502-23.298 13.502zm-2.452-28.845l-23.297 13.501v-27.003l23.297 13.502zm.613-1.719l-23.052-13.379 23.052-13.257v26.636zm2.82-28.354l23.053-13.379v26.635l-23.053-13.256zm-.981 28.722V471.34l23.298 13.502-23.298 13.502zm-1.839-30.563l-23.174-13.379 23.174-13.38v26.759zm2.698-28.354l23.175-13.379v26.758l-23.175-13.379zm-.859 28.599v-27.004l23.298 13.502-23.298 13.502zm-1.839-30.686l-23.174-13.379 23.174-13.379v26.758zm2.698-28.354l23.175-13.379v26.758l-23.175-13.379zm-.859 28.722v-27.004l23.298 13.502-23.298 13.502zm-1.839-30.686l-23.052-13.256 23.052-13.257v26.513zm1.839.246v-27.004l23.298 13.502-23.298 13.502zm24.034 139.438v26.635l-23.053-13.256 23.053-13.379zm-25.873 11.415l-22.807-13.134 22.807-13.133v26.267zm-.613-28.109l-23.297 13.502v-27.003l23.297 13.501zm2.452 28.477v-27.004l23.298 13.502-23.298 13.502zm-1.839 150.977l-23.052-13.38 23.052-13.379v26.759zm2.82-28.232l23.053-13.379v26.636l-23.053-13.257zm-.98 28.6V682.83l23.297 13.502-23.297 13.502zm-2.453-28.845l-23.297 13.502v-27.004l23.297 13.502zm.613-1.719l-23.052-13.379 23.052-13.379v26.758zm2.82-28.354l23.053-13.379v26.636l-23.053-13.257zm-.98 28.723l-.001-27.004 23.298 13.502-23.297 13.502zm-1.84-30.687l-23.174-13.379 23.174-13.379v26.758zm2.698-28.354l23.175-13.379v26.758l-23.175-13.379zm-.859 28.723v-27.004l23.298 13.502-23.298 13.502zm-1.839-30.687l-23.174-13.379 23.174-13.379v26.758zm2.698-28.354l23.175-13.379v26.758l-23.175-13.379zm-.859 28.723v-27.004l23.298 13.502-23.298 13.502zm-1.839-30.809l-23.052-13.257 23.052-13.256v26.513zm1.839.368v-27.004l23.298 13.502-23.298 13.502zm-25.872-558.98V2.578l23.42 13.502-23.42 13.502zm0 90.831V93.409l23.42 13.502-23.42 13.502zm0-30.318V63.09l23.42 13.502-23.42 13.502zm0-30.441V32.65l23.42 13.502-23.42 13.502zm0 151.222v-27.004l23.42 13.502-23.42 13.502zm0 154.29l23.298 13.502-23.421 13.502.123-27.004zm0-63.459v-27.004l23.42 13.502-23.42 13.502zm0-30.318v-27.004l23.42 13.502-23.42 13.502zm0-30.441v-27.004l23.42 13.502-23.42 13.502zm0 242.053v-27.004l23.42 13.502-23.42 13.502zm0-30.318v-27.004l23.42 13.502-23.42 13.502zm0-30.441v-27.003l23.42 13.502-23.42 13.501zm0 151.099v-27.003l23.42 13.502-23.42 13.501zm0 151.468v-27.004l23.42 13.502-23.42 13.502zm0-60.514v-27.003l23.42 13.502-23.42 13.501zm0-30.44v-27.004l23.42 13.502-23.42 13.502zm0-30.318v-27.004l23.42 13.502-23.42 13.502zm75.778-437.831l-23.052-13.38 23.052-13.379v26.759zm1.839.245v-27.004l23.42 13.502-23.42 13.502zm-2.575-28.722l-23.297 13.502v-27.004l23.297 13.502zm.736-1.841l-23.052-13.38 23.052-13.379v26.759zm1.839.368v-27.004l23.298 13.502-23.298 13.502zm-1.839-30.564l-23.175-13.379 23.175-13.38v26.759zm1.839.369V78.557l23.42 13.502-23.42 13.502zm-1.839-30.81l-23.175-13.379 23.175-13.379v26.759zm1.839.369V48.116l23.42 13.502-23.42 13.502zm-1.839-30.686l-23.052-13.257 23.052-13.256v26.513zm1.839.368V17.798l23.42 13.502-23.42 13.502zm-1.839 150.731l-22.807-13.134 22.807-13.134v26.268zm-.736-28.109l-23.297 13.502v-27.004l23.297 13.502zm2.575 28.477v-27.004l23.42 13.502-23.42 13.502zm-1.839 150.976l-23.052-13.379 23.052-13.379v26.758zm1.839.368v-27.004l23.42 13.502-23.42 13.502zm-2.575-28.722l-23.297 13.502v-27.004l23.297 13.502zm.736-1.841l-23.052-13.379 23.052-13.38v26.759zm1.839.368v-27.004l23.298 13.502-23.298 13.502zm-1.839-30.563l-23.175-13.38 23.175-13.379v26.759zm1.839.245v-27.004l23.42 13.502-23.42 13.502zm-1.839-30.686l-23.175-13.379 23.175-13.38v26.759zm1.839.368V229.41l23.42 13.502-23.42 13.502zm-1.839-30.686l-23.052-13.379 23.052-13.257v26.636zm1.839.245v-27.004l23.42 13.502-23.42 13.502zm-1.839 150.854l-22.807-13.134 22.807-13.134v26.268zm1.839.368v-27.004l23.298 13.502-23.298 13.502zm-1.839 150.976l-23.052-13.379 23.052-13.379v26.758zm1.839.369v-27.004l23.42 13.502-23.42 13.502zm-2.575-28.845l-23.297 13.501v-27.003l23.297 13.502zm.736-1.719l-23.052-13.379 23.052-13.379v26.758zm1.839.368V471.34l23.298 13.502-23.298 13.502zm-1.839-30.563l-23.175-13.379 23.175-13.38v26.759zm1.839.245v-27.004l23.42 13.502-23.42 13.502zm-1.839-30.686l-23.175-13.379 23.175-13.379v26.758zm1.839.368v-27.004l23.42 13.502-23.42 13.502zm-1.839-30.686l-23.052-13.256 23.052-13.257v26.513zm1.839.246v-27.004l23.42 13.502-23.42 13.502zm-1.839 150.853l-22.807-13.134 22.807-13.133v26.267zm-.736-28.109l-23.297 13.502v-27.003l23.297 13.501zm2.575 28.477v-27.004l23.42 13.502-23.42 13.502zm-1.839 150.977l-23.052-13.38 23.052-13.379v26.759zm1.839.368V682.83l23.42 13.502-23.42 13.502zm-2.575-28.845l-23.297 13.502v-27.004l23.297 13.502zm.736-1.719l-23.052-13.379 23.052-13.379v26.758zm1.839.369v-27.004l23.298 13.502-23.298 13.502zm-1.839-30.687l-23.175-13.379 23.175-13.379v26.758zm1.839.369v-27.004l23.42 13.502-23.42 13.502zm0-30.318v-27.004l23.42 13.502-23.42 13.502zm-1.839-57.322v26.635l-23.052-13.256 23.052-13.379zm1.839 26.881v-27.004l23.42 13.502-23.42 13.502zm-25.872-558.98V2.578l23.297 13.502-23.297 13.502zm0 90.831V93.409l23.42 13.502-23.42 13.502zm0-30.318V63.09l23.42 13.502-23.42 13.502zm0-30.441V32.65l23.297 13.502-23.297 13.502zm0 151.222v-27.004l23.297 13.502-23.297 13.502zm0 154.29l23.297 13.502-23.297 13.502v-27.004zm0-63.459v-27.004l23.42 13.502-23.42 13.502zm0-30.318v-27.004l23.42 13.502-23.42 13.502zm0-30.441v-27.004l23.297 13.502-23.297 13.502zm0 242.053v-27.004l23.42 13.502-23.42 13.502zm0-30.318v-27.004l23.42 13.502-23.42 13.502zm0-30.441v-27.003l23.297 13.502-23.297 13.501zm0 151.099v-27.003l23.297 13.502-23.297 13.501zm0 151.468v-27.004l23.42 13.502-23.42 13.502zm0-60.514v-27.003l23.42 13.502-23.42 13.501zm0-30.44v-27.004l23.42 13.502-23.42 13.502zm0-30.318v-27.004l23.297 13.502-23.297 13.502zm101.65-449.247v26.39l-22.807-13.133 22.807-13.257zm-25.872 11.416l-23.053-13.38 23.053-13.379v26.759zm2.82-28.354l23.052-13.38v26.636l-23.052-13.256zm-.981 28.599v-27.004l23.297 13.502-23.297 13.502zm-2.575-28.722l-23.297 13.502v-27.004l23.297 13.502zm.736-1.841l-23.053-13.38 23.053-13.379v26.759zm2.697-28.232l23.052-13.379v26.636l-23.052-13.257zm-.858 28.6v-27.004l23.297 13.502-23.297 13.502zm-1.839-30.564l-23.175-13.379 23.175-13.38v26.759zm2.575-28.354l23.174-13.379v26.758l-23.174-13.379zm-.736 28.723V78.557l23.297 13.502-23.297 13.502zm-1.839-30.81l-23.175-13.379 23.175-13.379v26.759zm2.575-28.354l23.174-13.379v26.759l-23.174-13.38zm-.736 28.723V48.116l23.297 13.502-23.297 13.502zm-1.839-30.686l-23.053-13.257 23.053-13.256v26.513zm1.839.368V17.798L723.69 31.3l-23.297 13.502zm24.033 139.315v26.636l-23.052-13.256 23.052-13.38zm-25.872 11.416l-22.807-13.134 22.807-13.134v26.268zm-.736-28.109l-23.297 13.502v-27.004l23.297 13.502zm2.575 28.477v-27.004l23.297 13.502-23.297 13.502zm24.033 139.684v26.267l-22.807-13.134 22.807-13.133zm-25.872 11.292l-23.053-13.379 23.053-13.379v26.758zm2.82-28.231l23.052-13.379v26.635l-23.052-13.256zm-.981 28.599v-27.004l23.297 13.502-23.297 13.502zm-2.575-28.722l-23.297 13.502v-27.004l23.297 13.502zm.736-1.841l-23.053-13.379 23.053-13.38v26.759zm2.697-28.231l23.052-13.38v26.636l-23.052-13.256zm-.858 28.599v-27.004l23.297 13.502-23.297 13.502zm-1.839-30.563l-23.175-13.38 23.175-13.379v26.759zm2.575-28.354l23.174-13.38v26.759l-23.174-13.379zm-.736 28.599v-27.004l23.297 13.502-23.297 13.502zm-1.839-30.686l-23.175-13.379 23.175-13.38v26.759zm2.575-28.354l23.174-13.379v26.758l-23.174-13.379zm-.736 28.722V229.41l23.297 13.502-23.297 13.502zm-1.839-30.686l-23.053-13.379 23.053-13.257v26.636zm1.839.245v-27.004l23.297 13.502-23.297 13.502zm24.033 139.439v26.635l-23.052-13.256 23.052-13.379zm-25.872 11.415l-22.807-13.134 22.807-13.134v26.268zm27.711-14.607v-27.004l23.42 13.502-23.42 13.502zm-25.872 14.975v-27.004l23.297 13.502-23.297 13.502zm24.033 139.684v26.39l-22.807-13.134 22.807-13.256zm-25.872 11.292l-23.052-13.379 23.052-13.379v26.758zm2.82-28.231l23.052-13.379v26.635l-23.052-13.256zm-.981 28.6v-27.004l23.297 13.502-23.297 13.502zm-2.575-28.845l-23.297 13.501v-27.003l23.297 13.502zm.736-1.719l-23.052-13.379 23.052-13.379v26.758zm2.697-28.354l23.052-13.379v26.635l-23.052-13.256zm-.858 28.722V471.34l23.297 13.502-23.297 13.502zm-1.839-30.563l-23.175-13.379 23.175-13.38v26.759zm2.575-28.354l23.174-13.379v26.758l-23.174-13.379zm-.736 28.599v-27.004l23.297 13.502-23.297 13.502zm-1.839-30.686l-23.175-13.379 23.175-13.379v26.758zm2.575-28.354l23.174-13.379v26.758l-23.174-13.379zm-.736 28.722v-27.004l23.297 13.502-23.297 13.502zm-1.839-30.686l-23.053-13.256 23.053-13.257v26.513zm1.839.246v-27.004l23.297 13.502-23.297 13.502zm24.033 139.438v26.635l-23.052-13.256 23.052-13.379zm-25.872 11.415l-22.807-13.134 22.807-13.133v26.267zm-.736-28.109l-23.297 13.502v-27.003l23.297 13.501zm2.575 28.477v-27.004l23.297 13.502-23.297 13.502zm-1.839 150.977l-23.052-13.38 23.052-13.379v26.759zm2.82-28.232l23.052-13.379v26.636l-23.052-13.257zm-.981 28.6V682.83l23.297 13.502-23.297 13.502zm-2.575-28.845l-23.297 13.502v-27.004l23.297 13.502zm.736-1.719l-23.052-13.379 23.052-13.379v26.758zm2.697-28.354l23.052-13.379v26.636l-23.052-13.257zm-.858 28.723v-27.004l23.297 13.502-23.297 13.502zm-1.839-30.687l-23.175-13.379 23.175-13.379v26.758zm2.575-28.354l23.174-13.379v26.758l-23.174-13.379zm-.736 28.723v-27.004l23.297 13.502-23.297 13.502zm-1.839-30.687l-23.175-13.379 23.175-13.379v26.758zm2.575-28.354l23.174-13.379v26.758l-23.174-13.379zm-.736 28.723v-27.004l23.297 13.502-23.297 13.502zm-1.839-30.809l-23.052-13.257 23.052-13.256v26.513zm1.839.368v-27.004l23.297 13.502-23.297 13.502zm-25.872-558.98V2.578l23.297 13.502-23.297 13.502zm0 90.831V93.409l23.297 13.502-23.297 13.502zm0-30.318V63.09l23.297 13.502-23.297 13.502zm0-30.441V32.65l23.297 13.502-23.297 13.502zm0 151.222v-27.004l23.297 13.502-23.297 13.502zm0 154.29l23.297 13.502-23.297 13.502v-27.004zm0-63.459v-27.004l23.297 13.502-23.297 13.502zm0-30.318v-27.004l23.297 13.502-23.297 13.502zm0-30.441v-27.004l23.297 13.502-23.297 13.502zm0 242.053v-27.004l23.297 13.502-23.297 13.502zm0-30.318v-27.004l23.297 13.502-23.297 13.502zm0-30.441v-27.003l23.297 13.502-23.297 13.501zm0 151.099v-27.003l23.297 13.502-23.297 13.501zm0 151.468v-27.004l23.297 13.502-23.297 13.502zm0-60.514v-27.003l23.297 13.502-23.297 13.501zm0-30.44v-27.004l23.297 13.502-23.297 13.502zm0-30.318v-27.004l23.297 13.502-23.297 13.502zm127.522 105.929l-23.052-13.38 23.052-13.379v26.759zm-.736-28.477l-23.297 13.502v-27.004l23.297 13.502zm.736-1.719l-23.052-13.379 23.052-13.379v26.758zm0-30.318l-23.175-13.379 23.175-13.379v26.758zm0-30.318l-23.175-13.379 23.175-13.379v26.758zm0-30.44l-23.052-13.257 23.052-13.256v26.513zm0-30.073l-22.807-13.134 22.807-13.133v26.267zm0-29.95l-23.052-13.379 23.052-13.379v26.758zm-.736-28.476l-23.297 13.501v-27.003l23.297 13.502zm.736-1.719l-23.052-13.379 23.052-13.379v26.758zm0-30.195l-23.175-13.379 23.175-13.38v26.759zm0-30.441l-23.175-13.379 23.175-13.379v26.758zm0-30.318l-23.052-13.379 23.052-13.257v26.636zm0-30.195l-22.807-13.134 22.807-13.134v26.268zm0-29.95l-23.052-13.379 23.052-13.379v26.758zm-.736-28.354l-23.297 13.502v-27.004l23.297 13.502zm.736-1.841l-23.052-13.379 23.052-13.38v26.759zm0-30.195l-23.175-13.38 23.175-13.379v26.759zm0-30.441l-23.175-13.379 23.175-13.38v26.759zm0-30.318l-23.052-13.379 23.052-13.257v26.636zm0-30.195l-22.807-13.134 22.807-13.134v26.268zm0-29.827l-23.052-13.38 23.052-13.379v26.759zm-.736-28.477l-23.297 13.502v-27.004l23.297 13.502zm.736-1.841l-23.052-13.38 23.052-13.379v26.759zm0-30.196l-23.175-13.379 23.175-13.38v26.759zm0-30.44l-23.297-13.38 23.174-13.379.123 26.759zm0-30.318l-23.052-13.257 23.052-13.256v26.513zm1.839 121.517v-27.004l23.42 13.502-23.42 13.502zm0-30.195v-27.004l23.298 13.502-23.298 13.502zm0-30.195V78.557l23.42 13.502-23.42 13.502zm0-30.441V48.116l23.42 13.502-23.42 13.502zm0-30.318V17.798L827.18 31.3l-23.298 13.502zm0 151.099v-27.004l23.298 13.502-23.298 13.502zm0 151.344v-27.004l23.42 13.502-23.42 13.502zm0 2.946l23.298 13.502-23.298 13.502v-27.004zm0-33.141v-27.004l23.298 13.502-23.298 13.502zm0-30.318v-27.004l23.42 13.502-23.42 13.502zm0-30.318V229.41l23.42 13.502-23.42 13.502zm0-30.441v-27.004l23.298 13.502-23.298 13.502zm0 302.567v-27.004l23.42 13.502-23.42 13.502zm0-30.196V471.34l23.298 13.502-23.298 13.502zm0-30.318v-27.004l23.42 13.502-23.42 13.502zm0-30.318v-27.004l23.42 13.502-23.42 13.502zm0-30.44v-27.004l23.298 13.502-23.298 13.502zm0 151.221v-27.004l23.298 13.502-23.298 13.502zm0 151.345V682.83l23.42 13.502-23.42 13.502zm0-30.195v-27.004l23.298 13.502-23.298 13.502zm0-30.318v-27.004l23.42 13.502-23.42 13.502zm0-30.318v-27.004l23.42 13.502-23.42 13.502zm0-30.441v-27.004l23.298 13.502-23.298 13.502zM778.01 29.582V2.578l21.703 13.502-21.703 13.502zm-1.839 150.976l-22.807-13.134 22.807-13.134v26.268zm-.736-28.109l-23.297 13.502v-27.004l23.297 13.502zm2.575 28.477v-27.004l23.42 13.502-23.42 13.502zm-1.839-30.195l-23.052-13.38 23.052-13.379v26.759zm-.736-28.477l-23.297 13.502v-27.004l23.297 13.502zm.736-1.841l-23.052-13.38 23.052-13.379v26.759zm-.736-28.354l-23.297 13.502V78.557l23.297 13.502zm2.575 28.354V93.409l23.42 13.502-23.42 13.502zm-1.839-30.196l-23.175-13.379 23.175-13.379v26.758zm-.736-28.6L752.138 75.12V48.116l23.297 13.502zm2.575 28.478V63.09l23.42 13.502-23.42 13.502zM776.171 59.9l-23.175-13.38 23.175-13.379V59.9zm-.736-28.6l-23.297 13.502V17.798L775.435 31.3zm2.575 28.354V32.65l23.297 13.502-23.297 13.502zm-1.839 151.099l-22.93-13.256 22.93-13.257v26.513zm-.736-28.354l-23.297 13.502v-27.004l23.297 13.502zm2.575 28.477v-27.004l23.297 13.502-23.297 13.502zm0 154.29l23.297 13.502-23.297 13.502v-27.004zm-1.839-3.314l-22.807-13.134 22.807-13.133v26.267zm-.736-28.109l-23.297 13.502v-27.004l23.297 13.502zm2.575 28.477v-27.004l23.42 13.502-23.42 13.502zm-1.839-30.195l-23.052-13.379 23.052-13.379v26.758zm-.736-28.477l-23.297 13.502v-27.004l23.297 13.502zm.736-1.841l-23.175-13.257 23.052-13.379.123 26.636zm-.736-28.477l-23.297 13.502v-27.004l23.297 13.502zm2.575 28.477v-27.004l23.42 13.502-23.42 13.502zm-1.839-30.195l-23.175-13.379 23.175-13.38v26.759zm-.736-28.6l-23.297 13.502V229.41l23.297 13.502zm2.575 28.477v-27.004l23.42 13.502-23.42 13.502zm-1.839-30.318l-23.175-13.379 23.175-13.379v26.758zm-.736-28.6l-23.297 13.502v-27.004l23.297 13.502zm2.575 28.477v-27.004l23.297 13.502-23.297 13.502zm-1.839 151.099l-22.93-13.256 22.93-13.257v26.513zm-.736-28.354l-23.297 13.502v-27.004l23.297 13.502zm.736 179.453l-22.807-13.134 22.807-13.133v26.267zm-.736-28.108l-23.297 13.502v-27.004l23.297 13.502zm2.575 28.476v-27.003l23.42 13.501-23.42 13.502zm-1.839-30.318l-23.052-13.379 23.052-13.379v26.758zm-.736-28.354l-23.297 13.502V471.34l23.297 13.502zm.736-1.841l-23.052-13.379 23.052-13.379v26.758zm-.736-28.477l-23.297 13.502v-27.004l23.297 13.502zm2.575 28.477v-27.004l23.42 13.502-23.42 13.502zm-1.839-30.195l-23.298-13.379 23.175-13.379.123 26.758zm-.736-28.6l-23.297 13.502v-27.004l23.297 13.502zm2.575 28.477v-27.004l23.42 13.502-23.42 13.502zm-1.839-30.318l-23.175-13.379 23.175-13.379v26.758zm-.736-28.599l-23.297 13.502v-27.004l23.297 13.502zm2.575 28.476v-27.003l23.297 13.502-23.297 13.501zm-1.839 151.099l-22.93-13.256 22.93-13.256v26.512zm-.736-28.354l-23.297 13.502v-27.004l23.297 13.502zm2.575 28.354v-27.003l23.297 13.502-23.297 13.501zm-2.575 122.991l-23.297 13.502V682.83l23.297 13.502zm2.575 28.477v-27.004l23.42 13.502-23.42 13.502zm-1.839-30.318l-23.175-13.257 23.052-13.379v26.636h.123zm-.736-28.354l-23.297 13.502v-27.004l23.297 13.502zm.736-1.842l-23.052-13.379 23.052-13.379v26.758zm-.736-28.476l-23.297 13.502v-27.004l23.297 13.502zm2.575 28.476v-27.003l23.42 13.502-23.42 13.501zm-1.839-30.195l-23.175-13.379 23.175-13.379V634.1zm-.736-28.599l-23.297 13.502v-27.004l23.297 13.502zm2.575 28.354v-27.004l23.42 13.502-23.42 13.502zm-1.839-30.196l-23.175-13.379 23.175-13.379v26.758zm-.736-28.599l-23.297 13.502v-27.004l23.297 13.502zm2.575 28.477v-27.004l23.297 13.502-23.297 13.502zm-27.712-437.831l-23.052-13.38 23.052-13.379v26.759zm-.735-28.477l-23.298 13.502v-27.004l23.298 13.502zm.735-1.841l-23.052-13.38 23.052-13.379v26.759zm0-30.196l-23.174-13.379 23.174-13.38v26.759zm0-30.44l-23.297-13.38 23.175-13.379v26.759h.122zm0-30.318l-23.052-13.257 23.052-13.256v26.513zm0 151.099l-22.807-13.134 22.807-13.134v26.268zm-.735-28.109l-23.42 13.502v-27.004l23.42 13.502zm.735 179.453l-23.052-13.379 23.052-13.379v26.758zm-.735-28.354l-23.298 13.502v-27.004l23.298 13.502zm.735-1.841l-23.052-13.379 23.052-13.38v26.759zm0-30.195l-23.174-13.38 23.174-13.379v26.759zm0-30.441l-23.174-13.379 23.174-13.38v26.759zm0-30.318l-23.052-13.379 23.052-13.257v26.636zm0 151.099l-22.807-13.134 22.807-13.134v26.268zm0 151.344l-23.052-13.379 23.052-13.379v26.758zm-.735-28.476l-23.298 13.501v-27.003l23.298 13.502zm.735-1.719l-23.052-13.379 23.052-13.379v26.758zm0-30.195l-23.174-13.379 23.174-13.38v26.759zm0-30.441l-23.174-13.379 23.174-13.379v26.758zm0-30.318l-23.052-13.256 23.052-13.257v26.513zm0 151.099l-22.807-13.134 22.807-13.133v26.267zm-.735-28.109l-23.42 13.502v-27.003l23.42 13.501zm.735 179.454l-23.052-13.38 23.052-13.379v26.759zm-.735-28.477l-23.298 13.502v-27.004l23.298 13.502zm.735-1.719l-23.052-13.379 23.052-13.379v26.758zm0-30.318l-23.174-13.379 23.174-13.379v26.758zm0-87.271v26.635l-23.052-13.256 23.052-13.379zm-24.033-532.1V2.579l23.298 13.502-23.298 13.502zm0 90.832V93.409l23.42 13.502-23.42 13.502zm0-30.318V63.09l23.42 13.502-23.42 13.502zm0-30.441V32.65l23.298 13.502-23.298 13.502zm0 151.222v-27.004l23.298 13.502-23.298 13.502zm0 154.29l23.298 13.502-23.298 13.502v-27.004zm0-63.459v-27.004l23.42 13.502-23.42 13.502zm0-30.318v-27.004l23.42 13.502-23.42 13.502zm0-30.441v-27.004l23.298 13.502-23.298 13.502zm0 242.053v-27.004l23.42 13.502-23.42 13.502zm0-30.318v-27.004l23.42 13.502-23.42 13.502zm0-30.441v-27.003l23.298 13.502-23.298 13.501zm0 151.099v-27.003l23.298 13.502-23.298 13.501zm0 151.468v-27.004l23.42 13.502-23.42 13.502zm0-60.514v-27.003l23.42 13.502-23.42 13.501zm0-30.44v-27.004l23.42 13.502-23.42 13.502zm0-30.318v-27.004l23.298 13.502-23.298 13.502z" fill="url(#paint0_linear_4_42)"/><defs><linearGradient id="paint0_linear_4_42" x1="690" y1="647.5" x2="527.298" y2="448.165" gradientUnits="userSpaceOnUse"><stop stop-color="#fff"/><stop offset="1" stop-color="#fff" stop-opacity="0"/></linearGradient></defs></svg>