<svg width="68" height="69" fill="none" xmlns="http://www.w3.org/2000/svg"><path fill-rule="evenodd" clip-rule="evenodd" d="M34 69c18.778 0 34-15.446 34-34.5C68 15.446 52.778 0 34 0S0 15.446 0 34.5C0 53.554 15.222 69 34 69zm13.694-47.917L17.472 32.104c-.944.48-1.133 1.534 0 1.917l8.028 2.396 2.361 7.187c0 .48.472 1.438.945 1.917.248.252 1.038.383 1.416 0l4.25-3.834 7.084 4.792c.944.64 2.36 1.438 3.305 0l5.195-23c.157-.639.283-2.012-.473-2.396-.314-.16-1.133-.383-1.889 0z" fill="#fff"/><path d="M29.278 43.125l.472-4.792 14.167-11.979.472-.479c0-.48 0-.48-.472-.48l-17 10.063c-.378.384-.158 1.118 0 1.438l1.889 5.75c.377 1.15.472.798.472.479z" fill="#fff"/></svg>