<svg width="110" height="150" viewBox="40 87 61 85" fill="none" xmlns="http://www.w3.org/2000/svg" preserveAspectRatio="none"><mask id="a" style="mask-type:luminance" maskUnits="userSpaceOnUse" x="-49" y="0" width="461" height="260"><path d="M412 0H-49v259.312h461V0z" fill="#fff"/></mask><g mask="url(#a)"><path d="M62.576 152.634h17.312c2.713-.144 4.898-2.401 4.898-5.162v-3.049c9.724-4.994 16.375-15.103 16.375-26.748 0-16.591-13.494-30.06-30.06-30.06-16.568-.025-30.062 13.469-30.062 30.06 0 16.568 13.494 30.061 30.061 30.061a30.6 30.6 0 007.467-.936v-18.656h-4.13v15.246a25.522 25.522 0 01-3.337.217 25.703 25.703 0 01-12.87-3.434l-.792-.456c-7.371-4.586-12.293-12.75-12.293-22.042 0-14.31 11.645-25.93 25.931-25.93 14.286 0 25.931 11.644 25.931 25.93 0 10.925-6.795 20.289-16.375 24.107v5.69c0 .552-.456 1.033-1.008 1.057H62.528a5.195 5.195 0 00-5.186 5.186 5.195 5.195 0 005.186 5.186H79.6c.576 0 1.056.48 1.056 1.057 0 .576-.48 1.056-1.056 1.056h-4.706c.024.913.024 2.617.024 2.785 0 .481-.096.937-.24 1.345-.553 1.441-1.945 2.473-3.554 2.473a3.784 3.784 0 01-3.553-2.473 3.606 3.606 0 01-.24-1.345c0-.168.023-1.872.023-2.785h-4.13c0 .913-.023 2.617-.023 2.785 0 .457.048.913.12 1.345a7.926 7.926 0 007.827 6.579c3.914 0 7.18-2.857 7.828-6.579h.72a5.195 5.195 0 005.186-5.186 5.195 5.195 0 00-5.186-5.187H62.624c-.576 0-1.056-.48-1.056-1.056a1.004 1.004 0 011.008-1.081z" fill="#fff"/></g><mask id="b" style="mask-type:luminance" maskUnits="userSpaceOnUse" x="-49" y="0" width="461" height="260"><path d="M412 0H-49v259.312h461V0z" fill="#fff"/></mask><g mask="url(#b)"><path d="M71.124 134.795c-9.34 0-16.927-7.588-16.927-16.928s7.587-16.927 16.927-16.927 16.928 7.587 16.928 16.927c-.025 9.34-7.612 16.928-16.928 16.928zm0-31.142c-7.827 0-14.214 6.387-14.214 14.214 0 7.828 6.387 14.214 14.214 14.214 7.828 0 14.214-6.386 14.214-14.214-.024-7.827-6.386-14.214-14.214-14.214z" fill="#fff"/></g><mask id="c" style="mask-type:luminance" maskUnits="userSpaceOnUse" x="-49" y="0" width="461" height="260"><path d="M412 0H-49v259.312h461V0z" fill="#fff"/></mask><g mask="url(#c)"><path d="M86.683 117.867c0 8.596-6.963 15.559-15.559 15.559s-15.559-6.963-15.559-15.559c0-8.595 6.963-15.558 15.56-15.558 8.595 0 15.558 6.963 15.558 15.558z" fill="#E0E0E0"/></g><mask id="d" style="mask-type:luminance" maskUnits="userSpaceOnUse" x="-49" y="0" width="461" height="260"><path d="M412 0H-49v259.312h461V0z" fill="#fff"/></mask><g mask="url(#d)"><path d="M80.008 117.867a8.88 8.88 0 01-8.884 8.884c-4.898 0-8.884-3.986-8.884-8.884s3.986-8.884 8.884-8.884 8.884 3.986 8.884 8.884z" fill="#272827"/></g><mask id="e" style="mask-type:luminance" maskUnits="userSpaceOnUse" x="-49" y="0" width="461" height="260"><path d="M412 0H-49v259.312h461V0z" fill="#fff"/></mask><g mask="url(#e)"><path d="M70.02 114.89c.312.696-.024 1.512-.745 1.824-.72.313-1.536 0-1.825-.696-.312-.696.025-1.512.745-1.825.696-.312 1.537 0 1.825.697z" fill="#fff"/></g><mask id="f" style="mask-type:luminance" maskUnits="userSpaceOnUse" x="-49" y="0" width="461" height="260"><path d="M412 0H-49v259.312h461V0z" fill="#fff"/></mask><g opacity=".46" mask="url(#f)"><mask id="g" style="mask-type:luminance" maskUnits="userSpaceOnUse" x="62" y="117" width="11" height="10"><path d="M72.9 117.843H62.625v8.908h10.277v-8.908z" fill="#fff"/></mask><g mask="url(#g)"><path d="M72.445 121.061c-1.2-2.762-4.466-3.986-7.3-2.738a5.629 5.629 0 00-2.52 2.185c1.128 3.626 4.49 6.267 8.5 6.267.167 0 .335 0 .48-.024 1.296-1.561 1.704-3.745.84-5.69z" fill="#39E22B"/></g></g></svg>