<svg width="68" height="69" fill="none" xmlns="http://www.w3.org/2000/svg"><path fill-rule="evenodd" clip-rule="evenodd" d="M34 69c18.778 0 34-15.446 34-34.5C68 15.446 52.778 0 34 0S0 15.446 0 34.5C0 53.554 15.222 69 34 69zM22.93 26.276h-5.337c-.395 0-.751.722-.593 1.204.132.4.553 1.484 1.186 2.607.527 1.07 1.858 3.69 2.965 5.616 1.12 1.806 3.796 5.737 5.535 7.02.922.67 3.281 2.047 5.337 2.207.923.134 3.005.361 3.954.2.33-.066.988-.44.988-1.403.066-.736.316-2.327.79-2.808.198-.201.712-.482 1.187 0 .395.334 1.304 1.163 1.779 1.805.659.802 2.135 2.407 2.767 2.407 1.582.133 4.745.2 5.733.2.395-.067 1.265-.32 1.581-.802.132-.267.317-.923 0-1.404-1.054-1.404-3.36-4.333-4.15-4.814-.33-.2-1.029-.762-1.187-1.404-.066-.2 0-.842.79-1.805.99-1.337 3.084-4.212 3.559-5.015C50.209 29.42 51 27.921 51 27.28c0-.267-.119-.802-.593-.802-.725-.067-2.293-.2-2.767-.2-1.318-.068-4.073-.081-4.547.4-.066.067-.316.442-.79 1.404-.264.669-.91 2.207-1.384 3.01-.33.534-1.147 1.804-1.78 2.607-.329.468-1.106 1.364-1.58 1.203-.198-.134-.594-.642-.594-1.605V27.28c0-.267-.079-.883-.395-1.203-.198-.201-.751-.602-1.384-.602H31.43c-.461 0-1.502.04-1.977.2-.197.067-.672.281-.988.602-.198.2-.435.642.198.802.395.067 1.225.361 1.384 1.003.065.335.197 1.445.197 3.21.066.869.04 2.808-.593 3.61-.066.134-.356.281-.988-.2-.198-.201-.751-.843-1.384-1.806-.659-1.003-2.095-3.37-2.57-4.814-.197-.601-.83-1.805-1.779-1.805z" fill="#fff"/></svg>