<svg width="576" height="95" fill="none" xmlns="http://www.w3.org/2000/svg"><path d="M73.5 70.287c0 4.996-1.314 9.204-3.944 12.688-2.63 3.419-6.18 6.048-10.65 7.823-4.47 1.775-9.335 2.695-14.594 2.695H.594V2.968H48.98c4.273 0 7.888 1.118 11.044 3.353 3.09 2.235 5.457 5.128 7.166 8.678 1.643 3.55 2.498 7.166 2.498 11.045 0 4.338-1.118 8.414-3.287 12.293-2.235 3.879-5.457 6.771-9.664 8.743 5.194 1.513 9.27 4.274 12.294 8.284 2.958 4.01 4.47 8.94 4.47 14.923zM18.214 18.023v22.812h23.47c1.972 0 3.747-.46 5.324-1.38 1.644-.92 2.893-2.236 3.879-3.945.986-1.71 1.446-3.681 1.446-5.982 0-2.367-.46-4.405-1.315-6.048-.92-1.644-2.103-2.959-3.55-3.945-1.511-.986-3.155-1.446-5.061-1.446H18.213v-.066zm37.604 48.78c0-2.301-.46-4.34-1.381-6.18-.92-1.84-2.17-3.287-3.747-4.404-1.578-1.118-3.353-1.644-5.39-1.644H18.212v23.93h26.099c2.104 0 4.076-.526 5.785-1.578 1.71-1.052 3.09-2.498 4.142-4.273 1.052-1.775 1.578-3.682 1.578-5.851zm69.684-25.311c-5.259.066-9.927 1.052-14.003 3.025-4.076 1.906-7.034 4.733-8.941 8.48v40.496h-16.96V27.358h15.645v13.609c2.367-4.602 5.391-8.218 9.138-10.848 3.682-2.63 7.561-4.075 11.637-4.338.854.065 1.512.131 2.037.065.526-.066.987 0 1.381.198v15.448h.066zm4.47 32.477c0-4.274 1.184-8.02 3.616-11.176 2.432-3.222 5.785-5.654 10.058-7.495 4.273-1.775 9.27-2.695 14.989-2.695 2.827 0 5.654.197 8.547.657 2.892.395 5.39 1.118 7.494 2.038v-3.681c0-4.076-1.249-7.232-3.682-9.533-2.432-2.235-6.179-3.353-11.11-3.353-3.747 0-7.231.658-10.584 1.907-3.287 1.249-6.771 3.09-10.453 5.456l-5.325-11.11c4.339-2.958 8.81-5.128 13.411-6.574 4.602-1.38 9.467-2.104 14.595-2.104 9.532 0 16.895 2.301 22.22 6.969 5.325 4.668 7.955 11.373 7.955 20.182V74.43c0 1.775.329 3.024.986 3.747.657.723 1.643 1.183 3.09 1.38v13.872c-1.512.263-2.893.46-4.142.657a12.985 12.985 0 01-3.09.132c-3.418 0-5.982-.724-7.691-2.236-1.71-1.512-2.762-3.352-3.09-5.522l-.395-3.418c-2.958 3.747-6.639 6.64-10.978 8.678-4.339 2.037-8.744 3.09-13.28 3.09-4.405 0-8.415-.921-11.899-2.762-3.55-1.84-6.311-4.339-8.283-7.494-1.973-3.221-2.959-6.772-2.959-10.584zm41.483 3.155c.92-.855 1.709-1.775 2.301-2.827.591-1.052.92-1.972.92-2.76v-6.575c-2.038-.855-4.273-1.446-6.64-1.907a35.204 35.204 0 00-6.771-.657c-4.405 0-8.021.92-10.913 2.827-2.827 1.84-4.273 4.339-4.273 7.363 0 1.643.46 3.221 1.38 4.799.921 1.512 2.301 2.761 4.01 3.681 1.71.92 3.879 1.381 6.443 1.381 2.564 0 5.062-.526 7.495-1.512 2.563-1.052 4.536-2.3 6.048-3.813zm36.223-59.89V.404h16.961v16.83h-16.961zm0 76.194V26.7h16.961v66.727h-16.961zm94.535 0H285.12v-36.88c0-5.26-.92-9.139-2.761-11.571-1.84-2.432-4.47-3.616-7.823-3.616-2.301 0-4.602.592-6.968 1.71-2.367 1.183-4.405 2.76-6.246 4.799-1.841 2.037-3.221 4.404-4.273 7.034v38.524h-16.961v-66.07h15.383v12.36c1.71-2.827 3.879-5.26 6.509-7.166 2.629-1.907 5.653-3.419 9.072-4.536 3.418-1.118 7.034-1.644 10.979-1.644 4.141 0 7.56.723 10.255 2.235 2.695 1.512 4.733 3.485 6.114 5.983 1.38 2.498 2.367 5.325 2.958 8.349.526 3.09.855 6.18.855 9.27v41.219zM316.939.47h17.093v71.724c0 3.155.525 5.259 1.512 6.31 1.051 1.052 2.366 1.578 4.075 1.578 1.513 0 3.025-.197 4.405-.525 1.381-.33 2.63-.79 3.747-1.381l2.301 13.148c-2.301 1.118-4.93 1.972-7.954 2.564-3.024.592-5.786.92-8.349.92-5.325 0-9.467-1.446-12.425-4.273-2.959-2.827-4.405-6.903-4.405-12.096V.47zm71.329 94.273c-5.457 0-10.322-.92-14.595-2.761-4.273-1.841-7.954-4.34-11.044-7.56-3.09-3.222-5.391-6.838-6.969-10.914-1.578-4.076-2.367-8.349-2.367-12.885 0-4.733.789-9.138 2.367-13.214a32.103 32.103 0 016.903-10.913c3.024-3.155 6.705-5.653 11.044-7.428 4.339-1.775 9.204-2.696 14.529-2.696 5.522 0 10.453.92 14.726 2.696 4.273 1.775 7.955 4.273 11.044 7.428 3.09 3.156 5.391 6.772 7.035 10.913 1.643 4.142 2.432 8.547 2.432 13.214 0 4.536-.789 8.81-2.432 12.885-1.644 4.076-3.945 7.692-7.035 10.913-3.089 3.222-6.705 5.72-11.044 7.56-4.273 1.841-9.138 2.762-14.594 2.762zm-17.422-34.186c0 3.748.789 7.1 2.301 10.124 1.512 3.025 3.616 5.326 6.311 6.969 2.696 1.643 5.654 2.498 8.875 2.498 3.222 0 6.18-.855 8.81-2.564 2.629-1.709 4.733-4.01 6.311-6.968 1.577-2.959 2.366-6.377 2.366-10.19 0-3.747-.789-7.1-2.366-10.058-1.578-2.959-3.682-5.26-6.311-6.969-2.63-1.71-5.588-2.564-8.941-2.564-3.221 0-6.18.855-8.809 2.564-2.63 1.71-4.734 4.01-6.246 6.969-1.512 2.958-2.301 6.377-2.301 10.19zm94.667 34.186c-5.457 0-10.321-.92-14.595-2.761-4.273-1.841-7.954-4.34-11.044-7.56-3.09-3.222-5.391-6.838-6.968-10.914-1.578-4.076-2.367-8.349-2.367-12.885 0-4.733.789-9.138 2.367-13.214a32.086 32.086 0 016.902-10.913c3.024-3.155 6.706-5.653 11.045-7.428 4.339-1.775 9.203-2.696 14.528-2.696 5.523 0 10.453.92 14.726 2.696 4.274 1.775 7.955 4.273 11.045 7.428 3.09 3.156 5.391 6.772 7.034 10.913 1.644 4.142 2.433 8.547 2.433 13.214 0 4.536-.789 8.81-2.433 12.885-1.643 4.076-3.944 7.692-7.034 10.913-3.09 3.222-6.706 5.72-11.045 7.56-4.339 1.841-9.203 2.762-14.594 2.762zm-17.487-34.186c0 3.748.789 7.1 2.301 10.124 1.512 3.025 3.616 5.326 6.311 6.969 2.695 1.643 5.654 2.498 8.875 2.498s6.18-.855 8.809-2.564c2.63-1.709 4.734-4.01 6.311-6.968 1.578-2.959 2.367-6.377 2.367-10.19 0-3.747-.789-7.1-2.367-10.058-1.577-2.959-3.681-5.26-6.311-6.969-2.629-1.71-5.588-2.564-8.941-2.564-3.221 0-6.179.855-8.809 2.564-2.629 1.71-4.733 4.01-6.245 6.969-1.512 2.958-2.301 6.377-2.301 10.19zm109.458 32.871L538.025 64.83l-9.204 8.875v19.722H511.86V.47h16.961v56.603l27.02-29.715h18.079L549.069 55.43l26.625 38.063h-18.21v-.065z" fill="#fff"/></svg>